<svg xmlns="http://www.w3.org/2000/svg" viewBox="0 0 1222 1000"><path fill="#E0E3ED" d="M1 787.57l49.68.26c7.9-.1 16.65-.35 26.18-.08 4.76.05 9.72.22 14.86.2 5.14.03 10.47-.1 15.97-.13l35.06-.4c6.18-.05 12.5-.1 19-.18 6.48-.02 13.1.15 19.88.2l10.27.14c3.46 0 6.95-.08 10.48-.1 7.05-.1 14.23-.2 21.53-.23l45.24.47c15.53 0 31.47.15 47.77-.2 4.1-.03 8.2-.12 12.3-.03l12.42.33c4.16.1 8.34 0 12.53-.15 4.2-.13 8.42-.06 12.65-.06l51.58.2h26.3c4.4-.02 8.82 0 13.25.03 4.42.06 8.86.2 13.3.28l13.37.23c2.23.03 4.46-.02 6.7-.02l6.7-.16c8.96-.3 17.94-.03 26.93.07 9 .1 18.02.3 27.04.32l27.1-.15c9.02-.1 18.05-.03 27.07-.03 9.03 0 18.04 0 27.04.02l26.93.14c8.96.1 17.9-.12 26.78-.2 17.78-.3 35.42-.46 52.85-.6l25.98-.14c4.3-.03 8.6.07 12.86.1 4.27.06 8.52.1 12.75.17 4.25.08 8.46.06 12.66.1 4.2-.05 8.38-.1 12.54-.12l24.7-.27 12.16-.14c4.03-.05 8.04-.1 12.02-.03 7.96.03 15.83.3 23.6.13 15.52-.1 30.62-.37 45.22.14 14.6.5 28.72-.2 42.27.2 13.55.52 26.53-.58 38.88-.13 6.18.05 12.2.23 18.04.24l17.02.1 15.98-.18 7.57-.06 7.3.08c9.52.1 18.27.26 26.17.07 7.9-.1 14.96-.22 21.1-.3l15.6-.08 12.98-.05v3.2l-13-.02h-15.58l-21.1-.25c-7.9-.16-16.65.1-26.18.24l-7.3.13-7.56-.06c-5.14-.04-10.47-.1-15.98-.16-11-.03-22.72.2-35.07.47-6.17.13-12.5.17-19-.17-6.47-.33-13.1-.35-19.88-.12-13.54.54-27.66-.57-42.26-.1-14.6.54-29.7.15-45.23 0l-5.84-.07c-1.95-.02-3.9.03-5.88.04l-11.87.13c-3.98.07-8 .02-12.02-.02l-12.16-.12-24.7-.18-12.54-.06c-4.2.06-8.4.06-12.65.2l-12.74.3c-4.27.06-8.55.15-12.85.14h-25.97c-17.43-.12-35.07-.16-52.85-.6-17.78-.6-35.7-.13-53.7.1-18 .17-36.06.36-54.12.2-9.03-.1-18.06-.43-27.1-.4-2.24-.02-4.5 0-6.75.05l-6.76.1-13.5.42c-4.5.16-9 .2-13.48.26-2.25.06-4.5.02-6.73-.03-2.24 0-4.48-.15-6.72-.25-8.94-.6-17.87-.48-26.76-.06-4.45.2-8.88.34-13.3.4-4.44.02-8.85.04-13.26-.03l-26.3-.23c-17.42-.04-34.64-.1-51.58-.13-4.23-.03-8.45.02-12.64-.15-4.2-.22-8.38-.35-12.54-.26-4.16.04-8.3.2-12.4.25-4.13.07-8.23-.03-12.3-.1-16.3-.36-32.25-.36-47.78-.45l-45.23.08-21.52-.07H191.9c-3.45.06-6.87.1-10.25.17-6.78.1-13.4.17-19.9.26-6.48 0-12.8-.08-18.98-.1l-35.07-.23c-5.5-.02-10.84-.13-15.98-.06-5.14.08-10.1.16-14.86.22-9.53.26-18.28.06-26.18-.02L1 790.77v-3.2zM612.66 500.43l-29.34.25-13.86.1H555.6l-13.86-.15-6.93-.07-3.46-.04-3.47-.13-3.46-.13-3.46-.02-6.93-.03-13.85-.05h-1.3l-.02-1.32c0-2.66.08-5.32.13-8l.15-7.97.17-7.98c.06-2.66.04-5.32.06-7.98v-.83h.82c2.3.03 4.62-.02 6.93-.04L514 466l13.87-.13 27.73-.3 27.72-.3c4.62.03 9.24.07 13.86.17l6.94.1 6.93.07 1.3.02v1.3l.3 33.5zm-3.22-3.18l-.22-30.33 1.83 1.83c-4.62-.02-9.25.06-13.87-.05l-13.86-.24-27.72.05-27.73.05-13.86.03h-6.92c-2.3.02-4.62 0-6.93.05l1.7-1.7.25 15.95c.04 2.66.1 5.32.1 8 0 2.65.04 5.3-.02 7.97l-2.03-2.04c2.3.06 4.62.06 6.93.15l6.93.2 6.94.2c2.3.08 4.62.2 6.93.06 2.3-.12 4.62-.03 6.93 0l6.93.15 13.87.22c2.3 0 4.62 0 6.93-.1l6.93-.2c2.3-.1 4.62-.07 6.93-.1l6.92-.03 13.86-.08c4.1-.04 8.18-.02 12.26 0zM612.66 566.13l-29.34.25-13.86.1H555.6l-13.86-.15-6.93-.08-3.46-.03-3.47-.13-3.46-.14h-3.46l-6.93-.04-13.85-.06h-1.3l-.02-1.32c0-2.66.08-5.32.13-7.98l.15-7.98.17-7.98c.06-2.66.04-5.33.06-8v-.8h.82c2.3.02 4.62-.03 6.93-.04l6.93-.06 13.87-.13 27.73-.3 27.72-.3c4.62.03 9.24.06 13.86.17l6.94.1 6.93.06h1.3v1.3l.3 33.53zm-3.22-3.18l-.22-30.34 1.83 1.85c-4.62-.02-9.25.06-13.87-.05l-13.86-.24-27.72.04-27.73.05-13.86.02h-6.92c-2.3.03-4.62 0-6.93.05l1.7-1.7.25 15.96c.04 2.66.1 5.32.1 7.98s.04 5.32-.02 8l-2.03-2.05c2.3.05 4.62.05 6.93.14l6.93.22 6.94.2c2.3.06 4.62.18 6.93.05 2.3-.13 4.62-.04 6.93 0l6.93.15 13.87.22c2.3 0 4.62 0 6.93-.1l6.93-.2c2.3-.1 4.62-.07 6.93-.1l6.92-.03 13.86-.1c4.1-.03 8.18 0 12.26 0z"/><path fill="#E0E3ED" d="M499.03 566.13l-29.34.25-13.87.1h-13.86l-13.86-.15-6.93-.08-3.46-.03-3.46-.13-3.46-.14h-3.47l-6.92-.04-13.86-.06h-1.3l-.02-1.32c0-2.66.08-5.32.13-7.98l.15-7.98.16-7.98c.06-2.66.04-5.33.06-8v-.8h.82c2.3.02 4.62-.03 6.93-.04l6.93-.06 13.86-.13 27.73-.3 27.72-.3c4.6.03 9.23.06 13.85.17l6.94.1 6.92.06h1.3v1.3l.3 33.53zm-3.22-3.18l-.2-30.34 1.82 1.85c-4.63-.02-9.25.06-13.87-.05l-13.86-.24-27.73.04-27.73.05-13.86.02h-6.93c-2.3.03-4.62 0-6.93.05l1.7-1.7.25 15.96c.04 2.66.1 5.32.1 7.98s.04 5.32-.02 8l-2.03-2.05c2.3.05 4.62.05 6.93.14l6.93.22 6.93.2c2.32.06 4.63.18 6.94.05 2.3-.13 4.62-.04 6.93 0l6.93.15 13.87.22c2.3 0 4.62 0 6.93-.1l6.93-.2c2.3-.1 4.62-.07 6.93-.1l6.93-.03 13.85-.1c4.1-.03 8.18 0 12.26 0zM612.66 438.62l-29.34.25-13.86.1H555.6l-13.86-.15-6.93-.07-3.46-.04-3.47-.12-3.46-.12-3.46-.02-6.93-.03-13.85-.04h-1.3l-.02-1.32c0-2.66.08-5.32.13-7.98l.15-8 .17-7.97c.06-2.67.04-5.33.06-8v-.82h.82c2.3.04 4.62 0 6.93-.03l6.93-.06 13.87-.14 27.73-.28 27.72-.3c4.62 0 9.24.05 13.86.15l6.94.1 6.93.07h1.3v1.3l.3 33.52zm-3.22-3.18l-.22-30.33 1.83 1.84c-4.62-.02-9.25.06-13.87-.05l-13.86-.25-27.72.05-27.73.04-13.86.03h-6.92c-2.3.02-4.62 0-6.93.05l1.7-1.7.25 15.95c.04 2.66.1 5.32.1 8 0 2.65.04 5.3-.02 7.97l-2.03-2.04c2.3.05 4.62.05 6.93.14l6.93.2 6.94.2c2.3.08 4.62.2 6.93.06 2.3-.13 4.62-.04 6.93 0l6.93.14 13.87.22c2.3 0 4.62 0 6.93-.1l6.93-.2c2.3-.1 4.62-.07 6.93-.1l6.92-.03 13.86-.08c4.1-.04 8.18 0 12.26 0z"/><path fill="#E0E3ED" d="M561.12 532l-29.34.25-13.86.1h-13.86l-13.86-.15-6.93-.07-3.47-.04-3.47-.14-3.46-.12-3.47-.02-6.93-.03-13.86-.07h-1.3v-1.3c0-2.68.08-5.34.12-8l.16-7.98.15-7.98c.06-2.66.04-5.32.06-8v-.8h.8c2.32.02 4.63-.02 6.94-.04l6.93-.06 13.86-.13 27.73-.3 27.72-.3c4.63.03 9.25.06 13.87.17l6.93.12 6.93.06h1.3v1.3l.32 33.52zm-3.22-3.18l-.22-30.34 1.83 1.84c-4.6-.02-9.24.06-13.86-.05l-13.86-.24-27.72.04-27.73.05-13.86.02-6.93.02c-2.3 0-4.62-.02-6.93.03l1.7-1.72.26 15.97c.04 2.66.1 5.32.1 7.98s.04 5.33-.02 8l-2.03-2.05c2.32.04 4.63.05 6.94.14l6.93.2 6.93.2c2.3.07 4.62.2 6.93.06 2.3-.14 4.62-.04 6.93 0l6.93.14 13.86.22c2.3 0 4.62 0 6.93-.1l6.92-.2c2.3-.1 4.62-.07 6.93-.1l6.93-.03 13.86-.08c4.1-.04 8.18 0 12.26 0zM561.12 468.94l-29.34.25-13.86.1-13.86-.02-13.86-.14-6.93-.07-3.47-.04-3.47-.13-3.46-.12-3.47-.02-6.93-.03-13.86-.05h-1.3v-1.32c0-2.66.08-5.32.12-8l.16-7.97.15-8c.06-2.65.04-5.3.06-7.97v-.83h.8c2.32.04 4.63 0 6.94-.03l6.93-.06 13.86-.12 27.73-.3 27.72-.3c4.63.03 9.25.07 13.87.17l6.93.1 6.93.07h1.3v1.3l.32 33.52zm-3.22-3.18l-.22-30.34 1.83 1.84c-4.6-.02-9.24.06-13.86-.05l-13.86-.23-27.72.04-27.73.06-13.86.02-6.93.02c-2.3 0-4.62-.02-6.93.03l1.7-1.7.26 15.96c.04 2.65.1 5.3.1 7.97 0 2.66.04 5.33-.02 8l-2.03-2.05c2.32.04 4.63.05 6.94.14l6.93.2 6.93.2c2.3.07 4.62.2 6.93.06 2.3-.14 4.62-.04 6.93 0l6.93.14 13.86.22c2.3 0 4.62 0 6.93-.1l6.92-.2c2.3-.1 4.62-.07 6.93-.1l6.93-.03 13.86-.08c4.1-.04 8.18-.02 12.26 0zM561.12 600.64l-29.34.25-13.86.1-13.86-.02-13.86-.14-6.93-.07-3.47-.04-3.47-.13-3.46-.12-3.47-.02-6.93-.03-13.86-.06h-1.3v-1.3c0-2.68.08-5.34.12-8l.16-7.98.15-8c.06-2.65.04-5.3.06-7.98v-.82h.8c2.32.03 4.63 0 6.94-.03l6.93-.06 13.86-.12 27.73-.3 27.72-.3c4.63.03 9.25.06 13.87.17l6.93.1 6.93.07h1.3v1.3l.32 33.52zm-3.22-3.18l-.22-30.34 1.83 1.84c-4.6-.02-9.24.06-13.86-.05l-13.86-.23-27.72.04-27.73.06-13.86.02-6.93.02c-2.3 0-4.62-.02-6.93.03l1.7-1.7.26 15.96c.04 2.65.1 5.3.1 7.97 0 2.66.04 5.32-.02 8L448.6 597c2.32.04 4.63.04 6.94.14l6.93.2 6.93.2c2.3.07 4.62.2 6.93.06 2.3-.14 4.62-.04 6.93 0l6.93.14 13.86.22c2.3 0 4.62 0 6.93-.1l6.92-.2c2.3-.1 4.62-.07 6.93-.1l6.93-.03 13.86-.1c4.1-.03 8.18 0 12.26 0zM1221 242.28l-29.33.25-13.87.1h-13.86l-13.86-.15-6.93-.07-3.47-.03-3.46-.13-3.47-.13h-3.47l-6.93-.03-13.86-.06h-1.32v-1.3c0-2.67.08-5.33.12-8l.16-7.97.15-7.98c.07-2.67.05-5.33.08-8v-.82h.8c2.32.04 4.63 0 6.94-.02l6.93-.05 13.87-.13 27.72-.3 27.73-.3c4.62.03 9.24.06 13.86.16l6.93.12 6.93.05h1.28l.02 1.3.3 33.53zm-3.2-3.2l-.24-30.32 1.83 1.84c-4.63-.02-9.25.06-13.87-.05l-13.86-.24-27.73.05-27.72.05-13.86.02h-6.94c-2.3.02-4.62 0-6.93.05l1.7-1.7.24 15.96c.04 2.66.1 5.32.1 7.98 0 2.67.04 5.33-.02 8l-2.03-2.04c2.3.04 4.6.04 6.92.13l6.93.2 6.94.2c2.3.07 4.6.2 6.92.06 2.3-.14 4.62-.05 6.93 0l6.93.14 13.86.22c2.3 0 4.62 0 6.93-.1l6.93-.2c2.3-.1 4.62-.07 6.93-.1l6.94-.03 13.86-.1c4.08-.04 8.17 0 12.26 0z"/><path fill="#E0E3ED" d="M1169.46 208.15l-29.33.25-13.87.1h-13.86l-13.86-.15-6.93-.07-3.46-.04-3.46-.13-3.47-.1-3.45-.03-6.93-.03-13.87-.06h-1.3v-1.3c-.02-2.68.07-5.34.1-8l.17-7.98.16-7.98c.05-2.66.03-5.33.06-8v-.8h.8c2.32.02 4.63-.03 6.94-.04l6.94-.06 13.86-.13 27.72-.3 27.73-.3c4.62.02 9.24.05 13.86.16l6.92.1 6.93.06h1.3v1.3l.3 33.53zm-3.22-3.18l-.22-30.34 1.83 1.84c-4.62-.02-9.24.06-13.86-.05l-13.87-.24-27.73.04-27.72.05-13.87.02h-6.92c-2.3 0-4.62 0-6.93.04l1.7-1.7.25 15.96c.04 2.66.1 5.32.1 7.98s.04 5.32-.02 7.98l-2.03-2.03c2.3.04 4.62.04 6.93.14l6.93.2 6.95.2c2.3.07 4.62.2 6.93.06 2.3-.14 4.62-.04 6.93 0l6.94.14 13.86.22c2.3 0 4.62-.02 6.93-.1l6.93-.2c2.3-.1 4.62-.08 6.93-.1l6.92-.04 13.87-.1c4.08-.03 8.16 0 12.24 0zM1169.46 276.8l-29.33.24-13.87.1h-13.86l-13.86-.15-6.93-.08-3.46-.04-3.46-.13-3.47-.13h-3.45l-6.93-.04-13.87-.06h-1.3v-1.32c-.02-2.66.07-5.32.1-7.98l.17-7.98.16-7.98c.05-2.67.03-5.33.06-8v-.82h.8c2.32.04 4.63 0 6.94-.02l6.94-.06 13.86-.13 27.72-.3 27.73-.3c4.62.03 9.24.06 13.86.16l6.92.1 6.93.06h1.3v1.3l.3 33.53zm-3.22-3.2l-.22-30.33 1.83 1.84c-4.62 0-9.24.07-13.86-.04l-13.87-.24-27.73.04-27.72.05-13.87.03h-6.92c-2.3.02-4.62 0-6.93.05l1.7-1.7.25 15.96c.04 2.66.1 5.32.1 7.98s.04 5.32-.02 7.98l-2.03-2.03c2.3.04 4.62.04 6.93.13l6.93.22 6.95.2c2.3.06 4.62.18 6.93.05 2.3-.14 4.62-.05 6.93 0l6.94.14 13.86.23c2.3 0 4.62 0 6.93-.1l6.93-.2c2.3-.1 4.62-.07 6.93-.1l6.92-.03 13.87-.1c4.08-.03 8.16 0 12.24 0zM1173.16 671.32l-29.34.25-13.86.1h-13.86l-13.86-.15-6.94-.07-3.46-.04-3.47-.12-3.46-.12-3.46-.02-6.93-.03-13.85-.04h-1.3l-.02-1.32c0-2.66.08-5.32.13-8l.15-7.97.17-7.98c.06-2.67.04-5.33.06-8V637h.82c2.3.04 4.62 0 6.93-.03l6.93-.06 13.87-.14 27.73-.28 27.72-.3c4.62 0 9.24.05 13.86.15l6.93.1 6.95.07h1.3v1.3l.3 33.52zm-3.22-3.18l-.22-30.33 1.83 1.84c-4.62-.02-9.25.06-13.87-.05l-13.86-.25-27.72.04-27.73.04-13.86.02-6.92.02c-2.3 0-4.62 0-6.93.04l1.7-1.7.25 15.95c.04 2.66.1 5.32.1 7.98 0 2.67.04 5.33-.02 8l-2.03-2.05c2.3.04 4.62.05 6.93.14l6.93.2 6.94.2c2.3.07 4.62.2 6.93.06 2.3-.13 4.62-.04 6.93 0l6.93.14 13.87.22c2.3 0 4.62 0 6.93-.1l6.93-.2c2.3-.1 4.62-.07 6.93-.1l6.92-.03 13.86-.08c4.1-.04 8.17-.02 12.26 0z"/><path fill="#E0E3ED" d="M1121.62 705.84l-29.34.24-13.86.1h-13.86l-13.86-.15-6.93-.07-3.47-.04-3.47-.13-3.46-.13-3.47-.02-6.93-.03-13.86-.05h-1.3v-1.32c0-2.66.08-5.32.12-7.98l.16-8 .15-7.97c.06-2.66.04-5.32.06-7.98v-.83h.8c2.32.03 4.63-.02 6.94-.04l6.93-.06 13.86-.13 27.73-.28 27.72-.32c4.62.02 9.25.06 13.87.16l6.93.1 6.93.07 1.3.02v1.3l.32 33.5zm-3.22-3.2l-.22-30.32 1.83 1.83c-4.6-.02-9.23.06-13.85-.05l-13.87-.24-27.72.05-27.73.05-13.86.03h-6.93c-2.3.02-4.62 0-6.93.05l1.7-1.7.26 15.95c.04 2.66.1 5.32.1 8 0 2.65.04 5.3-.02 7.97l-2.03-2.04c2.32.06 4.63.06 6.94.15l6.93.2 6.93.2c2.3.08 4.62.2 6.93.06 2.3-.12 4.62-.03 6.93 0l6.94.15 13.86.22c2.3 0 4.62 0 6.93-.1l6.92-.2c2.3-.1 4.62-.07 6.93-.1l6.93-.03 13.86-.08c4.1-.04 8.18 0 12.26 0zM404.97 756.2l-29.33.23-13.87.1H347.9l-13.85-.15-6.93-.07-3.47-.02-3.46-.14-3.48-.12h-3.47l-6.93-.04-13.86-.06h-1.3v-1.32c-.02-2.66.07-5.32.1-7.98l.17-7.98.15-8c.06-2.65.04-5.3.07-7.97v-.83h.8c2.32.04 4.63 0 6.94-.02l6.92-.07 13.87-.13 27.7-.28 27.74-.3c4.62.02 9.24.05 13.86.15l6.93.1 6.93.06h1.3v1.3l.3 33.53zm-3.22-3.2l-.22-30.33 1.83 1.84c-4.62-.02-9.24.06-13.86-.04l-13.86-.24-27.73.04-27.7.05-13.88.03h-6.93c-2.32.02-4.63 0-6.94.05l1.7-1.7.25 15.96c.05 2.66.1 5.32.1 7.98s.05 5.32 0 7.98l-2.04-2.03c2.3.04 4.62.04 6.93.13l6.92.2 6.94.22c2.3.06 4.62.18 6.93.04 2.3-.13 4.6-.04 6.92 0l6.93.14 13.86.22c2.32 0 4.63 0 6.94-.1l6.93-.2c2.3-.08 4.62-.07 6.93-.1l6.93-.03 13.87-.1c4.08-.03 8.17 0 12.25 0z"/><path fill="#E0E3ED" d="M353.43 790.7l-29.33.24-13.87.1h-13.86l-13.86-.15-6.92-.08-3.47-.03-3.45-.15-3.47-.12h-3.46l-6.94-.04-13.86-.07h-1.3v-1.32c-.02-2.65.07-5.3.1-7.97l.17-7.98.15-8c.05-2.65.03-5.3.06-7.97v-.83h.82c2.3.04 4.62 0 6.93-.02l6.94-.07 13.85-.13 27.72-.28 27.73-.3c4.62.02 9.24.05 13.86.15l6.93.12 6.92.05h1.3v1.3l.3 33.53zm-3.2-3.2l-.24-30.32 1.82 1.84c-4.62-.03-9.24.05-13.86-.05l-13.86-.24-27.73.04-27.72.05-13.86.02h-6.95c-2.3.02-4.62 0-6.93.05l1.7-1.72.25 15.97c.04 2.66.1 5.32.1 7.98s.04 5.32-.02 7.98l-2.03-2.02c2.3.04 4.62.04 6.93.13l6.94.22 6.92.2c2.3.07 4.62.2 6.93.05 2.3-.13 4.62-.04 6.93 0l6.93.14 13.87.23c2.3 0 4.62 0 6.93-.1l6.93-.2c2.3-.08 4.62-.07 6.93-.1l6.94-.03 13.86-.08c4.1-.04 8.17 0 12.26 0z"/><path fill="#E0E3ED" d="M467.05 790.7l-29.33.24-13.87.1H410l-13.87-.15-6.93-.08-3.47-.03-3.46-.15-3.47-.12h-3.47l-6.93-.04-13.86-.07h-1.3v-1.32c-.02-2.65.07-5.3.1-7.97l.17-7.98.16-8c.06-2.65.04-5.3.07-7.97v-.83h.8c2.32.04 4.63 0 6.94-.02l6.93-.07 13.87-.13 27.72-.28 27.72-.3c4.62.02 9.24.05 13.86.15l6.93.12 6.94.05h1.3v1.3l.3 33.53zm-3.22-3.2l-.22-30.32 1.84 1.84c-4.62-.03-9.24.05-13.86-.05l-13.86-.24-27.73.04-27.73.05-13.87.02h-6.93c-2.3.02-4.62 0-6.93.05l1.7-1.72.25 15.97c.03 2.66.1 5.32.1 7.98-.02 2.66.03 5.32-.03 7.98l-2.03-2.02c2.3.04 4.62.04 6.93.13l6.93.22 6.93.2c2.3.07 4.63.2 6.94.05 2.3-.13 4.62-.04 6.93 0l6.93.14 13.86.23c2.3 0 4.6 0 6.92-.1l6.93-.2c2.3-.08 4.62-.07 6.93-.1l6.93-.03 13.88-.08c4.08-.04 8.17 0 12.25 0z"/><path fill="#FFF" d="M606.1 665.05l463.07 4.5-8.97-547.36-454.5 3"/><path fill="#FFF" d="M607.3 663.86l56.7.68c9.65.12 19.3.28 28.95.33 9.64.04 19.3 0 28.94.15l28.93.47c4.82.05 9.64.16 14.47.18l14.47.07 57.88.27 28.95.14c4.82 0 9.64.06 14.47.14l14.47.2 28.94.43c9.64.13 19.3.1 28.94.17 9.65.06 19.3.04 28.94.17l28.94.4c19.3.25 38.6.64 57.88.8l-1.08 1.1-.54-34.22c-.14-11.4-.5-22.8-.72-34.2l-.36-17.1-.14-17.12-.1-17.1c-.06-5.7-.27-11.4-.4-17.1l-.2-8.56-.15-8.55-.26-17.1-.5-34.22-1.05-68.42-.56-34.2-.27-17.1-.13-17.12-.14-17.1c-.07-5.7-.06-11.4-.2-17.1l-.8-34.22c-.18-11.4-.25-22.8-.4-34.2l-.35-34.22c-.1-11.4-.4-22.8-.57-34.2l-.66-34.22.6.57-56.83.37-56.82.28-28.4.15-28.42.32-28.4.36-28.4.3-56.82.56-28.4.28c-9.48.1-18.95.06-28.42.1l-28.4.05c-9.47 0-18.94.1-28.4.22l-56.82.65 1.22-1.23c.06 11.24.16 22.48.08 33.73l-.07 16.87-.04 8.44.03 8.43.14 33.74.05 16.88-.1 16.87-.24 33.75.1 33.74c.04 11.24-.12 22.5-.14 33.74-.06 5.62.02 11.24.08 16.87l.15 16.87c.1 5.62.02 11.24 0 16.87l-.07 16.86c-.1 11.25-.1 22.5-.12 33.74-.05 11.25.02 22.5.1 33.74.03 11.25.14 22.5.05 33.74l-.1 33.74.22 33.74c.12 11.25.15 22.5.17 33.75l.08 32.56zm-2.38 2.38V631.3c-.03-11.24-.03-22.5.05-33.73l.1-33.75-.26-33.74c-.14-11.24-.04-22.5 0-33.74l.06-16.87c.02-5.62-.04-11.25-.06-16.87-.05-11.25-.1-22.5-.23-33.74l-.12-16.87c-.02-5.63-.1-11.26-.03-16.88.1-11.25.45-22.5.3-33.74l-.12-16.87c-.04-5.62-.13-11.24-.06-16.86l.2-33.74c0-11.25-.15-22.5-.22-33.75l-.1-16.87.05-16.87.14-33.73.04-8.43-.04-8.44-.1-16.87c-.1-11.24-.02-22.5.02-33.74V124h1.16l56.8-.18c9.48-.04 18.95-.05 28.42-.23l28.4-.4c9.48-.1 18.94-.3 28.4-.36l28.42-.14 56.81-.27c9.47-.03 18.94-.13 28.4-.08l28.42.05c9.47 0 18.94.06 28.4 0l28.42-.32 28.4-.36 28.4-.27 28.42-.27 14.2-.13c4.72-.06 9.46-.1 14.2-.08h1.2v1.2l.35 34.2c.04 5.72.1 11.42.2 17.12.08 5.7.15 11.4.3 17.1.23 11.4.6 22.8.92 34.2.34 11.4.6 22.8.78 34.2.2 11.4-.12 22.82.06 34.22.04 5.7.23 11.4.35 17.1l.53 17.1.5 17.1.3 17.1.43 34.23 1 68.42.52 34.2.26 17.1.12 8.57.03 8.55c.04 5.7 0 11.4.12 17.1l.4 17.1.38 17.1.18 17.1c.14 11.4.16 22.82.35 34.22l.48 34.2.02.8h-.8l-115.75-1.15-28.95-.27-28.94-.08c-9.64-.07-19.28-.03-28.93-.18l-28.94-.36-57.88-.74c-9.65-.13-19.3-.26-28.94-.26l-28.94-.08c-9.64-.03-19.3-.24-28.94-.36-9.64-.14-19.3-.13-28.94-.2l-59.06-.4z"/><path fill="#F4F6F8" d="M763.1 226.45c-29.8-15-63.85-21.83-97.06-24.65-1.4-.12-2.82-.06-4.18.3-9.78 2.65-6.78 15.52-.63 21.96 10.96 11.48 27.02 16.16 40.78 24.04 13.78 7.88 26.6 22.56 22.86 38.02-2.33 9.63-10.47 16.63-18.56 22.3-14.2 9.97-29.68 18.08-43.02 29.15-13.34 11.07-24.7 25.95-26.7 43.2-.55 4.85.08 10.6 4.18 13.22 2.4 1.52 5.43 1.58 8.27 1.46 35.05-1.52 67.9-23.03 102.82-19.7 4.43 14-6.72 27.3-10 40.22-4.03 15.8-2.27 33.72 3.03 48.97 2.4 6.9 6.13 14.02 12.76 17.05 24.14 11.06 46.9-21.9 51.6-40.88 3.9-15.76 5.16-39.34 24.1-44.56 15.62-4.3 71.13 31.67 113.5 39.76 8.48 1.62 17.9 2.9 25.2-1.7 10.2-6.4 11.22-21.8 5.4-32.35-5.8-10.56-16.42-17.4-26.6-23.83 22.83-6.6 46.73-13.83 63.47-30.77s23-46.86 6.88-64.4c-10.88-11.85-28.07-14.74-43.8-17.97-3.38-.7-7-1.56-9.3-4.13-3.9-4.4-2.2-11.26-.07-16.75 6.3-16.23 14.32-31.78 23.9-46.3 4.43-6.7 9.3-13.46 9.65-21.8.14-3.38-.68-6.78-2.56-9.58-4.65-6.9-12.44-6.36-19.1-4.58-35.5 9.5-56.35 48-90.87 60.93-.84.3-1.72.57-2.6.7-7.55 1.07-9.9-5.82-11.23-11.56-2.97-12.88-5.92-26.1-12.97-37.25-7.06-11.17-19.2-20.07-32.37-19.4-12.67.64-23.5 9.92-30.16 20.75s-10.1 23.28-14.8 35.1c-1 2.57-2.2 5.24-4.43 6.85-4.73 3.4-11.3.42-16.02-2.98-4.73-3.4-10.17-7.44-15.77-5.87s-5.7 12.46.05 11.5"/><path fill="#202E78" d="M672 289h12v10h-12zM988 289h11v10h-11zM815.14 283.37l.2-.47c.14-.3.33-.75.67-1.36.2-.3.33-.66.6-.95.3-.3.48-.7.68-1.1.2-.43.36-.93.64-1.38.3-.42.6-.9 1-1.3.78-.85 1.74-1.65 2.78-2.44 1.04-.8 2.17-1.58 3.48-2.14.32-.17.65-.3.98-.43.33-.13.66-.27 1.02-.36.7-.2 1.4-.42 2.07-.7.34-.15.7-.2 1.07-.28.35-.1.72-.16 1.1-.2l1.1-.16 1.06-.2c.74-.1 1.5-.1 2.24-.06.74 0 1.46.12 2.2-.02.75-.12 1.47.02 2.2.1.7.1 1.4.25 2.1.42 1.34.38 2.72.65 3.82 1.38 1.06.77 2.16 1.3 3.1 1.9.5.3.92.66 1.28 1.02.36.38.65.8 1 1.1.35.28.62.62.92.87.15.16.28.25.44.43.15.17.3.37.4.54.44.68.73 1.5.4 2.36-.15.4-.43.67-.6.8-.17.12-.27.17-.27.17l-1.03-2.12s-.08 0-.22.22c-.08.24 0 .03-.22-.3l-.16-.23c-.06-.08-.22-.22-.34-.34-.25-.25-.52-.53-.84-.8-.33-.25-.7-.48-1.12-.7-.4-.23-.74-.56-1.14-.86-.75-.67-1.65-1.3-2.68-1.86-1.06-.44-2.04-1.35-3.35-1.5-.62-.13-1.27-.2-1.92-.26-.33 0-.65-.1-.98-.12-.33 0-.65-.05-.97-.25-.3-.2-.65-.24-1-.2-.16 0-.33 0-.5.03l-.5.1c-.7.13-1.3.36-1.95.38-.36.02-.73-.05-1.1-.02-.27 0-.63.12-.94.2-.64.18-1.28.36-1.92.52-.32.08-.65.14-.96.26-.3.14-.56.36-.83.55-.53.38-1.2.47-1.82.66-.3.1-.6.2-.86.38-.25.2-.5.37-.8.48-.57.27-1.18.47-1.66.83s-.9.75-1.26 1.2c-.37.42-.7.86-1 1.28-.56.88-1.16 1.58-1.75 2.2-.27.32-.47.66-.57 1.02-.13.35-.26.64-.38.9-.24.5-.4 1-.53 1.3l-.2.48-2.16-.96z"/><path fill="#7084CB" d="M855.62 267.7c.3-.56.6-1.12.95-1.67 9.7-15.76 35.66-16 51.85-16.74 23.43-1.08 59.65 0 72.43 17.08 12.78 17.1 18.1 55.57 0 79.08-30.77 39.97-82.07 7.95-108.13-21.08-11.76-13.1-26.33-38.7-17.1-56.67z"/><path fill="#7084CB" d="M854.58 267.12l.58-1.02.33-.57.03-.07.1-.16.1-.16.24-.34.52-.76c.18-.28.43-.58.68-.9 1-1.25 2.28-2.67 4.07-4.07 1.78-1.38 3.97-2.78 6.55-4 1.27-.66 2.63-1.32 4.1-1.9 1.46-.6 3.05-1.04 4.72-1.42 1.67-.38 3.42-.65 5.22-1.02 1.8-.32 3.66-.7 5.6-1 3.87-.6 8.02-1.02 12.38-1.35 2.2-.16 4.42-.34 6.7-.45 2.28-.1 4.64-.12 7.04-.1 2.4.02 4.85 0 7.35-.08 2.5-.1 5.06-.17 7.65-.06 5.18.26 10.54.76 16 1.62 5.47.72 11.02 1.93 16.7 3.37 1.4.4 2.8.86 4.16 1.45 1.37.6 2.7 1.32 4 2.03 1.3.74 2.67 1.4 4.02 2.1 1.35.73 2.58 1.67 3.78 2.65.6.5 1.15 1.05 1.73 1.57.54.56 1.1 1.13 1.6 1.72.5.62 1.02 1.2 1.48 1.87.44.62.88 1.2 1.3 1.9 1.67 2.68 3.05 5.46 4.24 8.36 1.2 2.9 2.2 5.88 3.06 8.92.2.77.42 1.53.6 2.3l.5 2.32c.26 1.56.46 3.14.63 4.72.28 3.17.5 6.33.85 9.52.32 3.2.15 6.42-.24 9.6-.88 6.37-2.06 12.72-4.3 18.78-4.42 12.2-13.8 22.25-25.06 28.1-2.8 1.52-5.83 2.55-8.9 3.38l-2.32.47-1.17.24-1.18.16-2.35.28c-.8.07-1.57.07-2.36.1-3.13.13-6.24-.17-9.3-.55l-2.28-.44c-.76-.16-1.5-.28-2.25-.5-1.47-.43-2.95-.8-4.37-1.32-11.48-3.7-22.22-8.75-30.98-15.55-2.27-1.6-4.5-3.16-6.6-4.83-2.13-1.65-4.05-3.48-5.9-5.33-3.63-3.7-7.56-6.88-10.6-10.64-2.98-3.77-6.5-6.96-8.68-10.82-2.34-3.75-4.36-7.42-6.08-10.95-.9-1.75-1.74-3.46-2.45-5.16-.36-.85-.7-1.7-1-2.53-.28-.84-.52-1.68-.77-2.5-.9-3.3-1.46-6.4-1.93-9.22-.38-2.83-.52-5.4-.33-7.66.2-2.24.58-4.13 1.05-5.63.2-.76.45-1.4.65-1.96.2-.57.4-1.03.58-1.4l.5-1.1.03-.05zm2.1 1.13l-.47 1.02c-.15.33-.34.74-.52 1.26-.2.5-.44 1.1-.62 1.78-.45 1.37-.8 3.1-1.03 5.2-.22 2.06-.36 4.5-.08 7.2.2 2.73.95 5.7 2.1 8.8.57 1.56 1.15 3.17 1.8 4.84.6 1.7 1.32 3.4 2.12 5.14 1.67 3.46 3.88 6.93 6.44 10.38 1.28 1.74 2.6 3.5 3.8 5.43.6.95 1.26 1.9 2 2.77.36.44.77.88 1.16 1.3l1.26 1.25c3.48 3.22 6.42 7.3 10.5 10.45 2 1.6 4.07 3.16 6.08 4.88l3.08 2.53c1.06.82 2.1 1.68 3.2 2.5 1.1.8 2.18 1.63 3.35 2.36 1.17.72 2.35 1.44 3.56 2.14 1.2.7 2.36 1.48 3.57 2.2 1.23.7 2.42 1.45 3.68 2.1 5 2.73 10.28 5.3 16.03 6.7 5.75 1.25 11.6 2.4 17.6 2.27 2.98.04 5.97-.34 8.94-.87 2.93-.7 5.86-1.5 8.7-2.7.7-.3 1.42-.56 2.1-.92.7-.35 1.36-.74 2.03-1.12l1.02-.57.95-.67 1.88-1.38c1.18-1 2.3-2.1 3.44-3.16 1.03-1.16 2.1-2.25 3.1-3.45l1.5-1.85.74-.94c.1-.13.3-.33.34-.42l.33-.48c.9-1.27 1.74-2.6 2.56-3.9 1.6-2.68 2.9-5.54 4.1-8.42 1.2-2.88 2.35-5.84 2.98-8.93.35-1.54.54-3.1.73-4.67.1-.78.13-1.57.16-2.35.04-.8.08-1.57.08-2.35 0-1.57.03-3.13.05-4.7-.08-1.55.03-3.1.15-4.67.33-3.13-.06-6.26-.83-9.28-.77-3-1.45-6-2.17-8.97-.74-2.97-1.65-5.88-2.78-8.67-1.15-2.78-2.52-5.5-4.08-7.93-.37-.6-.85-1.24-1.27-1.86-.4-.58-.88-1.13-1.3-1.7-.48-.53-.98-1.05-1.47-1.57-.54-.48-1.05-.98-1.6-1.44-1.1-.93-2.28-1.75-3.43-2.6-1.14-.9-2.36-1.7-3.68-2.27-1.3-.6-2.67-1.05-4-1.54l-4.02-1.46c-5.32-1.98-10.85-3.03-16.23-3.8-5.4-.7-10.7-1.05-15.83-1.22-2.56-.1-5.1-.2-7.56-.18-1.23 0-2.46 0-3.68.03l-3.6.2c-2.38.13-4.7.36-7 .47l-6.68.23c-4.33.17-8.43.45-12.26.9-1.9.22-3.77.45-5.53.8-1.76.37-3.43.84-5 1.35-1.58.5-3.08 1.02-4.5 1.52-1.44.45-2.77 1-4 1.55-2.46 1.2-4.45 2.6-6.03 3.95s-2.8 2.68-3.6 3.8c-.22.27-.42.52-.6.78-.2.28-.35.54-.5.78-.1.13-.16.24-.23.35l-.12.16-.02.05-.02.02c-.04.08.05-.08.04-.05l-.05.08-.3.57-.57 1.02.02-.05zM817.06 267.7c-.3-.56-.6-1.12-.95-1.67-9.68-15.76-35.65-16-51.84-16.74-23.44-1.08-59.65 0-72.43 17.08-12.78 17.1-18.1 55.57 0 79.08 30.77 39.97 82.07 7.95 108.13-21.08 11.76-13.1 26.33-38.7 17.1-56.67z"/><path fill="#7084CB" d="M816.02 268.3l-.57-1.03-.32-.57-.04-.08c-.02-.02.07.13.02.06v-.02l-.03-.04-.12-.16-.23-.34-.5-.78c-.2-.26-.4-.5-.6-.78-.83-1.1-2.04-2.43-3.62-3.77-1.58-1.37-3.58-2.75-6.02-3.94-1.24-.54-2.57-1.08-4-1.52-1.43-.5-2.93-1-4.5-1.5-1.58-.5-3.24-.97-5-1.32-1.76-.35-3.62-.55-5.53-.77-3.83-.4-7.92-.65-12.26-.77-2.16-.05-4.4-.1-6.67-.17-2.3-.08-4.6-.28-6.98-.44-2.38-.15-4.8-.2-7.28-.1-2.48.1-5 .25-7.55.3-5.1.1-10.4.35-15.8.92-5.38.7-10.92 1.64-16.24 3.6-.66.26-1.33.47-2 .7-.66.26-1.33.48-2 .7-1.35.5-2.72.9-4.03 1.5-1.33.56-2.57 1.32-3.72 2.2-1.17.83-2.36 1.63-3.48 2.54-.56.46-1.08.95-1.62 1.43-.5.5-1 1.03-1.5 1.56-.44.57-.94 1.1-1.34 1.7-.44.6-.92 1.22-1.3 1.83-1.6 2.44-3.02 5.14-4.22 7.9-1.18 2.8-2.17 5.7-2.97 8.68-.38 1.5-.74 3-1.1 4.5-.15.77-.35 1.52-.53 2.27-.18.76-.32 1.52-.5 2.3-.64 3.04-1.02 6.17-.9 9.32.05 3.14 0 6.27.16 9.43.13 3.15.44 6.32 1.12 9.42.7 3.1 1.63 6.14 2.82 9.07 1.2 2.92 2.53 5.8 4.16 8.5l1.27 2c.43.66.9 1.28 1.36 1.92.9 1.24 2 2.46 3 3.7 1.03 1.17 2.14 2.27 3.2 3.42 1.16 1.05 2.32 2.12 3.54 3.1l1.9 1.38c.3.24.63.46.95.68l1.02.57 2.03 1.13c.68.38 1.4.65 2.1.98 2.82 1.3 5.8 2.1 8.77 2.78 3 .52 6 .9 9.02.83 6.02.08 11.9-1.12 17.63-2.5.7-.2 1.42-.38 2.13-.6.7-.22 1.4-.48 2.08-.7 1.38-.5 2.72-1.1 4.05-1.68 2.64-1.17 5.2-2.48 7.7-3.86 1.25-.67 2.45-1.44 3.66-2.14 1.2-.72 2.37-1.52 3.58-2.2 2.4-1.42 4.77-2.82 6.93-4.48 1.1-.8 2.15-1.65 3.2-2.47l3.12-2.5c2-1.7 4.1-3.25 6.1-4.84 4.06-3.17 7.24-7.02 10.67-10.3 1.73-1.64 3.23-3.43 4.48-5.32.64-.93 1.27-1.85 1.92-2.75.66-.9 1.3-1.76 1.93-2.65 1.24-1.77 2.48-3.48 3.5-5.25 1.05-1.76 2.04-3.5 2.88-5.23.8-1.75 1.53-3.47 2.16-5.15.33-.84.6-1.67.9-2.5l.86-2.37c.5-1.58 1-3.1 1.32-4.6.37-1.46.52-2.9.64-4.27.25-2.73.1-5.17-.15-7.25-.23-2.07-.6-3.82-1.05-5.17-.2-.68-.44-1.27-.64-1.78-.17-.5-.36-.92-.53-1.25l-.48-1 .02.03zm2.1-1.14l.52 1.1c.18.38.38.84.58 1.4.2.56.47 1.2.67 1.96.46 1.5.85 3.4 1.08 5.64.2 2.25.08 4.84-.27 7.68-.43 2.83-.95 5.94-1.78 9.28-.85 3.35-2.42 6.74-4.23 10.24-1.77 3.53-3.7 7.26-6.02 11.04-1.17 1.9-2.48 3.76-4.1 5.43-.82.85-1.62 1.7-2.4 2.6-.4.48-.78.9-1.16 1.37l-1.15 1.4c-3 3.83-7.14 6.78-10.78 10.5-1.86 1.82-3.78 3.65-5.93 5.28-2.1 1.66-4.36 3.2-6.64 4.77-2.33 1.5-4.57 3.17-6.93 4.75-2.4 1.53-4.95 2.86-7.54 4.18-5.2 2.63-10.74 4.73-16.45 6.77-1.4.55-2.88.95-4.35 1.4-.73.24-1.5.37-2.25.54l-2.27.45c-3.08.4-6.2.74-9.37.64-.8-.03-1.58-.03-2.37-.1l-2.38-.27-1.2-.14-1.17-.24-2.35-.47c-3.08-.84-6.17-1.84-8.96-3.47-2.86-1.48-5.46-3.37-8.07-5.23-1.28-.96-2.5-2-3.77-3.03-1.15-1.13-2.4-2.23-3.47-3.42l-1.57-1.8-.78-.9c-.14-.17-.24-.26-.4-.5l-.38-.48c-.5-.66-1-1.3-1.46-1.97l-1.34-2.05c-1.7-2.8-3.2-5.72-4.26-8.8-1.1-3.08-1.8-6.26-2.5-9.4-.28-1.6-.7-3.17-.96-4.77-.17-.8-.33-1.6-.46-2.4-.14-.78-.3-1.58-.4-2.4-.1-.8-.25-1.6-.3-2.4l-.14-2.43c-.04-.8-.04-1.6 0-2.42.03-.8.16-1.6.26-2.42.57-3.18.77-6.34.94-9.55.1-1.6.28-3.2.55-4.77l.5-2.34c.2-.77.43-1.53.64-2.3.9-3.05 1.98-6.03 3.25-8.9 1.24-2.92 2.65-5.7 4.4-8.36.4-.7.86-1.27 1.3-1.9.47-.67 1-1.24 1.5-1.87.53-.57 1.1-1.13 1.64-1.7.6-.5 1.16-1.05 1.76-1.54 1.22-.97 2.46-1.9 3.82-2.6 1.37-.7 2.74-1.32 4.05-2.04 1.32-.7 2.64-1.4 4-1.97 1.37-.58 2.78-1.02 4.18-1.42 5.67-1.42 11.23-2.53 16.7-3.17 5.46-.73 10.8-1.13 15.97-1.33 2.58-.08 5.12-.07 7.62-.08l3.7.02c1.22 0 2.44-.03 3.63-.04 2.4 0 4.76-.03 7.04.07 2.28.1 4.5.24 6.7.38 4.35.28 8.5.68 12.37 1.24 1.95.28 3.8.63 5.6.95 1.8.35 3.56.62 5.22 1 1.67.38 3.26.82 4.72 1.4 1.47.57 2.83 1.2 4.1 1.86 2.6 1.2 4.77 2.6 6.55 3.97 1.78 1.4 3.08 2.8 4.08 4.06.25.3.5.6.7.88l.52.77.23.35.1.15.1.16.05.08.33.56.6 1 .02.06z"/><path fill="#202E78" d="M805.9 323.8s.12-.28.37-.76c.26-.47.6-1.16 1.06-1.95.24-.4.55-.8.87-1.2l.53-.63c.08-.1.2-.2.36-.26.13-.07.2-.2.28-.3.35-.46.63-1 1.05-1.43.4-.47.96-.82 1.27-1.35.64-1.04 1.17-2.15 1.64-3.2.23-.55.5-1.04.74-1.5.1-.24.23-.47.38-.67.16-.2.34-.36.5-.53.33-.33.6-.65.76-1 .18-.32.34-.6.46-.85.24-.47.36-.76.36-.76.24-.6.93-.9 1.55-.67.6.24.9.94.66 1.55 0 .05-.03.1-.05.13l-.16.32-.4.74-.46.85c-.18.34-.36.72-.67 1.06-.14.18-.34.33-.52.5-.17.2-.3.4-.44.63-.3.43-.6.9-.9 1.37-.33.48-.63 1-.94 1.5-.3.53-.63 1.04-.92 1.58-.3.53-.42 1.18-.76 1.68-.3.53-.9.84-1.35 1.23-.1.1-.24.18-.26.33 0 .15-.06.3-.17.38-.18.2-.4.4-.6.57-.4.36-.7.76-.75 1.28-.12.47-.4.8-.54 1.14-.17.33-.35.6-.5.83-.27.45-.45.7-.45.7-.4.54-1.14.67-1.67.28-.5-.34-.64-1-.38-1.5l.04-.1zM864.47 325.1l-.54-.65c-.32-.43-.8-1.02-1.35-1.76-.26-.4-.5-.83-.74-1.3-.1-.24-.23-.48-.35-.73-.08-.12-.1-.27-.1-.44-.02-.16-.12-.26-.18-.4-.27-.5-.64-.97-.87-1.53-.27-.55-.37-1.2-.72-1.7-.7-1.02-1.5-1.95-2.27-2.8-.4-.44-.73-.88-1.07-1.3-.17-.2-.34-.4-.45-.6l-.3-.68c-.15-.44-.34-.82-.6-1.1-.2-.3-.4-.56-.58-.76-.34-.42-.56-.64-.56-.64-.45-.47-.45-1.23.02-1.7s1.23-.46 1.7 0l.08.1.22.3.5.65.6.77c.23.3.5.62.7 1.04.1.2.15.45.25.7.1.22.24.43.38.65.28.44.6.9.9 1.4.3.47.65.96 1 1.45.35.48.68 1 1.06 1.48.37.5.9.87 1.23 1.38.36.48.4 1.15.58 1.73.07.13.08.3.2.38.15.07.25.17.28.32.12.25.2.52.3.77.14.53.4.96.84 1.2.4.3.58.7.83.97.23.3.4.57.56.8l.47.7c.34.56.15 1.3-.42 1.64-.5.3-1.16.18-1.53-.27l-.05-.07z"/><g opacity=".2"><path fill="#FFF" d="M760.28 335.28c-9.83-9.48.86-28.88-8.5-38.83-5.5-5.85-14.75-4.97-22.74-5.67-5.67-.5-11.26-2.02-16.4-4.47-5.1-2.43-9.32-6-9.32-12.14 0-4.06 1.65-7.92 3.54-11.5.17-.32-4.23 1.33-4.56 1.53-2.6 1.6-3.7 4.75-5.24 7.13-3.1 4.83-6.04 9.9-8.02 15.34-4.34 11.93-4.78 25.33-.85 37.43 9.34 28.78 31.35 42.2 60.07 30.83 4.16-1.65 7.93-4.28 10.92-7.63.94-1.07 1.85-2.28 2.1-3.7.84-4.66 2.4-5.04-1.02-8.32z"/><path fill="#FFF" d="M759.43 336.13l-.14-.15c-.1-.1-.24-.22-.45-.46-.43-.45-1-1.1-1.6-2.07-1.25-1.9-2.4-5.13-2.67-9.16-.35-4.03.1-8.82.05-14.12-.04-2.64-.24-5.44-1.14-8.08-.46-1.32-1.1-2.6-1.96-3.7-.44-.58-.92-1.1-1.48-1.6-.5-.46-1.1-.93-1.74-1.3-2.55-1.6-5.8-2.3-9.27-2.63-3.47-.35-7.2-.38-11.07-.8-3.9-.46-7.84-1.38-11.7-2.83-.96-.37-1.9-.75-2.86-1.18-.48-.2-.93-.43-1.43-.67-.46-.24-.9-.46-1.4-.75-1.84-1.08-3.62-2.4-5.1-4.1-.75-.83-1.42-1.76-1.94-2.8-.5-1.03-.87-2.14-1.08-3.28-.2-1.12-.23-2.34-.15-3.4.08-1.18.27-2.28.55-3.37.56-2.2 1.44-4.25 2.43-6.22l.4-.74.18-.36.1-.2c-.58.64 1.2 2.02.84 1.44h.04c-.33.06-.92.26-1.4.42l-1.5.54-.75.3-.33.14c-.04 0-.13.06-.03 0l-.17.12c-1.58 1.04-2.66 2.86-3.73 4.78-.53.96-1.18 1.96-1.78 2.86-.6.9-1.2 1.84-1.76 2.78-2.3 3.73-4.38 7.65-5.86 11.76-3.1 8.26-3.94 17.27-2.95 25.84.22 2.15.65 4.26 1.12 6.35.28 1.04.52 2.08.85 3.1.16.5.3 1.02.48 1.5l.53 1.52c1.43 4 3.17 7.8 5.27 11.34 4.13 7.07 9.8 12.9 16.33 16.42 6.53 3.52 13.63 4.66 20.08 4.36 6.5-.3 12.36-1.97 17.26-4 4.77-2.07 8.34-5.2 10.6-8.07.52-.7.88-1.4 1.03-2.03.14-.72.32-1.67.52-2.4.2-.76.4-1.44.5-1.95.1-.54.07-.8-.05-1.1-.24-.6-.8-1.17-1.12-1.52l-.54-.54h-.03zm1.68-1.7l.63.6c.38.45 1.05 1 1.63 2.34.28.68.3 1.63.15 2.37-.14.75-.35 1.4-.53 2.12-.2.72-.3 1.35-.52 2.35-.25 1.08-.8 2.06-1.45 2.9-2.58 3.26-6.34 6.54-11.6 8.83-2.55 1.03-5.3 2.04-8.33 2.8-3 .76-6.25 1.33-9.67 1.45-6.8.32-14.42-.97-21.34-4.78-6.92-3.8-12.82-10-17.04-17.38-2.15-3.67-3.92-7.62-5.36-11.74l-.53-1.52c-.2-.55-.33-1.06-.5-1.6-.33-1.04-.58-2.12-.86-3.2-.47-2.16-.9-4.35-1.13-6.58-1.02-8.9.06-18.14 2.98-26.72 1.48-4.36 3.53-8.4 5.8-12.28.58-.97 1.16-1.92 1.76-2.87.6-.96 1.12-1.78 1.63-2.76.54-.96 1.08-1.98 1.77-2.98.36-.5.73-1 1.18-1.46.23-.23.46-.44.73-.67l.43-.33.36-.24.17-.1c.3-.2.33-.18.42-.23l.43-.18.8-.3 1.58-.54.82-.25c.3-.08.52-.16.98-.24l.3-.02c-.43-.84 2.25 1.16 1.37 2.16l-.1.17-.2.36-.36.7c-.97 1.87-1.8 3.77-2.34 5.7-.26.97-.46 1.98-.54 2.92-.04.22-.05.5-.06.76v.71c0 .5.06.96.1 1.43.17.94.44 1.84.84 2.7.4.85.94 1.64 1.56 2.37 1.3 1.42 2.96 2.52 4.68 3.42 1.76.94 3.53 1.75 5.37 2.46 3.64 1.4 7.4 2.33 11.1 2.76 3.73.4 7.44.5 11.07.8 3.6.3 7.23.97 10.33 2.8.78.45 1.48.96 2.17 1.57.64.55 1.25 1.2 1.77 1.9 1.05 1.36 1.8 2.9 2.32 4.42 1.02 3.08 1.2 6.1 1.24 8.85.02 5.52-.42 10.2-.1 13.96.26 3.77 1.26 6.5 2.3 8.07.5.8.98 1.37 1.28 1.7l.4.42.15.13h-.02z"/></g><g opacity=".2" fill="#FFF"><path d="M733.1 270.66c-2.52-2.23-6.8-3.47-9.6-3.03 1.18-.18 2.33-.32 3.47-.65-2.54-1.12-5.87-1.23-8.27.37-2.05 1.37-3.22 4.13-2.36 6.45.6 1.64 2.06 2.8 3.57 3.67 5.32 3 22.38 1.27 13.2-6.8z"/><path d="M726.95 280.34c-3.04 0-6-.57-7.77-1.57-2.2-1.25-3.6-2.7-4.25-4.45-1.05-2.85.2-6.4 2.94-8.2 2.6-1.76 6.42-1.96 9.7-.52l3.77 1.66-.6.17c1.26.57 2.42 1.28 3.36 2.1 4.18 3.7 3.32 6.34 2.43 7.6-1.6 2.24-5.64 3.2-9.58 3.2zm-3.97-12.7c-1.2 0-2.44.3-3.46.96-1.58 1.06-2.36 3.1-1.78 4.68.4 1.05 1.34 2 2.9 2.88 3.37 1.9 11.9 1.4 13.45-.78.73-1.03-1.14-2.86-1.98-3.6-2.28-2-6.15-3-8.35-2.67l-.04.02-.23-1.45c-.17-.02-.34-.02-.52-.02z"/></g><g opacity=".2" fill="#FFF"><path d="M969.63 336.23c-.35-.77-1.13-1.24-1.9-1.6-5.63-2.6-12.2-.88-18.4-.86-20.17.07-36.54-19.1-39.5-39.1-.88-6.02-.9-12.4-4-17.64-3.25-5.55-9.5-8.8-15.82-9.94-3.76-.7-7.9-1.36-11.75-.97-6.4.64-11.42 4.3-12.23 11.08-1.38 11.62 5.83 25.1 12.43 34.1 8.96 12.2 21.02 21.76 33.58 30.2 9.26 6.23 19.34 12.08 30.46 12.9 11.12.85 23.45-4.78 27-15.4.3-.9.53-1.9.13-2.77z"/><path d="M944.95 356c-.84 0-1.7-.03-2.57-.1-11.47-.85-21.77-6.83-31.2-13.16-15.7-10.56-26.17-20-33.93-30.57-4.37-5.95-14.36-21.3-12.7-35.14.82-7 5.9-11.63 13.55-12.4 4-.4 8.2.27 12.18.98 7.52 1.37 13.67 5.25 16.85 10.67 2.56 4.35 3.14 9.37 3.7 14.2.15 1.34.3 2.53.5 3.83 2.67 18.22 17.92 37.7 37.9 37.7h.1c1.7 0 3.47 0 5.2-.15 4.63-.36 9.44-.67 13.84 1.36.84.4 1.63 1.1 2.63 2.36 0 1.38.3 2.82-.08 3.9-2.83 8.48-12.54 16.55-25.97 16.55zm-64.33-88.5c-.75 0-1.5.05-2.22.12-6.26.63-10.23 4.2-10.9 9.77-1.52 12.77 8 27.33 12.15 33 7.56 10.28 17.8 19.5 33.2 29.85 9.08 6.1 18.97 11.86 29.75 12.67 9.76.73 22.03-4.07 25.48-14.4.1-.3.4-1.2.2-1.66-.2-.4-.92-.75-1.16-.86-3.7-1.7-7.9-1.5-12.37-1.15-1.77.13-3.6.15-5.4.15h-.1c-9.83 0-19.48-4.3-27.2-12.35-7.2-7.5-12.18-17.6-13.7-27.84-.2-1.33-.34-2.65-.5-4-.54-4.75-1.06-9.22-3.3-13.03-2.73-4.66-8.13-8-14.8-9.2-3-.55-6.14-1.06-9.13-1.06z"/></g><path fill="#202E78" d="M668.03 198.9s.14.14.37.42c.12.14.28.3.43.52.16.2.32.48.56.7.12.13.32.18.5.27.15.1.26.28.35.48.1.2.17.4.32.57.16.15.34.3.54.43.4.27.87.5 1.33.8.23.14.45.3.65.5.2.18.33.46.47.72.15.27.34.5.62.64.28.15.6.26.8.5.43.45.7 1.1 1.1 1.62.23.26.43.53.7.75.12.12.24.25.4.34.15.1.33.16.48.24.16.1.3.2.38.37.08.17.1.4.2.56.04.1.1.17.17.2.08.06.2.07.3.1.2.05.27.22.4.34.5.52.97 1.1 1.46 1.67.26.28.52.55.8.8.3.24.53.54.65.96.14.4.35.73.8.84.4.12.6.48.78.83.2.36.35.74.64 1 .25.3.6.48.92.73.6.5 1.1 1.07 1.63 1.63.27.27.48.6.73.9.26.28.58.5.94.67.7.37 1.3.84 1.92 1.27.6.46 1.18.9 1.5 1.63.35.66 1.05.96 1.66 1.34.3.2.62.37.84.63.1.15.16.32.25.47.1.14.23.25.37.35.27.2.58.35.82.57.24.2.36.53.47.87.2.68 1 .7 1.2 1.36.1.3.3.5.62.57.3.06.5.27.62.5.25.5.52.95.88 1.25.38.3.85.44 1.03.83.1.2.2.38.32.53.12.15.26.26.4.34.7.27 1.1.62 1.37.86.28.23.4.38.4.38.42.53.34 1.3-.17 1.7-.44.37-1.05.36-1.48.04l-.03-.02s-.16-.12-.4-.38c-.26-.26-.63-.64-.95-1.28-.1-.14-.23-.27-.4-.37-.15-.1-.37-.17-.57-.26-.2-.1-.36-.22-.48-.4-.13-.2-.22-.43-.38-.6-.32-.35-.8-.58-1.3-.8-.27-.12-.48-.3-.5-.67 0-.38-.2-.6-.54-.67-.7-.1-.52-1.15-1.22-1.33-.3-.12-.64-.24-.82-.5-.2-.26-.34-.6-.53-.87-.1-.14-.2-.28-.34-.37l-.45-.26c-.26-.22-.46-.5-.66-.8-.4-.6-.74-1.27-1.48-1.55-.82-.2-1.3-.76-1.8-1.3-.26-.3-.47-.6-.7-.9-.24-.3-.46-.6-.6-1.02-.14-.4-.32-.75-.65-.97-.33-.2-.72-.36-1.02-.6-.64-.44-1.3-.87-1.76-1.5-.22-.35-.33-.78-.6-1.05-.14-.14-.32-.24-.5-.32l-.63-.2c-.2-.05-.4-.12-.55-.25-.18-.08-.26-.28-.26-.55.05-.6-.3-.8-.78-.84-.5-.02-.8-.25-1-.6l-.67-.9c-.48-.58-1.03-1.06-1.5-1.63-.1-.15-.26-.24-.3-.47 0-.1 0-.23-.05-.32-.04-.08-.1-.14-.2-.2-.14-.08-.35-.13-.5-.22-.16-.1-.26-.24-.35-.4-.27-.72-.74-1.2-1.2-1.7l-1.4-1.32c-.45-.44-.74-1-1.33-1.23-.27-.13-.55-.24-.76-.43-.2-.2-.37-.4-.53-.6-.32-.43-.6-.86-.9-1.23-.15-.2-.3-.35-.46-.5-.16-.14-.4-.22-.58-.3-.2-.1-.37-.2-.48-.36-.1-.16-.17-.35-.3-.46-.23-.24-.5-.38-.73-.54-.2-.14-.38-.3-.52-.4-.3-.23-.43-.36-.43-.36-.48-.45-.5-1.2-.06-1.7.45-.48 1.2-.5 1.68-.05h.02l.03.04zM694.7 209.43s.08.08.2.24c.04.1.13.18.2.3.07.13.12.32.25.44.07.08.2.07.32.1.1.06.15.16.17.3.02.13.03.3.1.38.1.1.2.17.3.24.26.13.56.23.85.37.13.06.25.15.36.26.12.1.13.3.18.48.04.18.12.32.3.38.2.07.4.1.5.26.2.28.22.73.4 1.06.2.32.35.67.84.78.1.04.17.1.2.22 0 .12-.04.28-.03.4 0 .05.02.1.07.13.05.02.13.02.2.03.15 0 .16.13.23.2.24.32.4.72.6 1.08l.38.5c.15.14.23.34.18.63-.03.3.03.52.35.55.3.05.3.3.33.55.02.24.02.5.14.67.1.2.32.3.48.45.28.32.48.7.68 1.07.1.17.16.4.24.6.1.2.27.32.48.44.42.23.72.53 1.04.82.3.3.58.62.53 1.1 0 .47.44.67.78.93.17.12.33.24.4.42.02.1 0 .22 0 .32s.07.18.13.25c.13.13.3.24.4.4.13.13.07.36.02.6-.17.46.47.5.32.94-.2.46.68.37.52.78-.03.34-.02.64.12.86.17.2.47.34.44.6 0 .12-.03.25 0 .36.02.1.08.18.16.24.4.23.56.48.67.66.1.17.14.27.14.27.15.67-.26 1.32-.92 1.47-.47.1-.93-.07-1.2-.42l-.08-.08s-.07-.1-.14-.27c-.07-.18-.18-.44-.12-.87 0-.1-.03-.2-.1-.26l-.34-.2c-.12-.06-.2-.15-.2-.28 0-.14.03-.3 0-.4-.1-.25-.37-.42-.68-.58-.14-.1-.23-.2-.07-.45.17-.25.1-.4-.12-.45-.5-.1.13-.78-.36-.9-.2-.1-.4-.18-.43-.36-.06-.17-.02-.4-.05-.58 0-.1-.03-.18-.1-.25-.08-.06-.17-.1-.25-.17-.12-.14-.15-.34-.18-.54-.07-.4-.04-.85-.5-1.03-.58-.13-.73-.5-.9-.85-.1-.2-.15-.4-.2-.6-.07-.2-.12-.4-.05-.68.04-.27.03-.5-.14-.65-.18-.13-.45-.2-.6-.36-.32-.27-.7-.53-.8-.95-.04-.22.03-.52-.1-.68-.08-.2-.4-.22-.7-.27-.26-.07-.56-.1-.34-.52.24-.43.05-.54-.33-.52-.4.03-.55-.1-.58-.32-.08-.2-.13-.42-.22-.6-.2-.35-.47-.64-.65-1-.03-.1-.13-.14-.08-.3.02-.08.06-.17.06-.23s-.03-.1-.08-.1c-.1-.06-.23-.07-.33-.1-.1-.06-.14-.15-.15-.26.02-.52-.2-.8-.4-1.1-.23-.28-.5-.52-.72-.77-.22-.26-.3-.63-.68-.7-.18-.05-.37-.1-.47-.2-.1-.1-.18-.23-.26-.36-.13-.26-.23-.53-.36-.75-.06-.12-.14-.2-.23-.3-.1-.07-.24-.08-.37-.1-.12-.04-.23-.1-.28-.18-.04-.1-.04-.24-.1-.3-.14-.14-.33-.18-.45-.26-.14-.07-.23-.15-.3-.2-.18-.12-.26-.2-.26-.2-.48-.45-.5-1.2-.04-1.7.45-.47 1.2-.5 1.7-.03v.02l.07.06zM995.18 365.87s.1.08.24.27l.27.34c.1.14.16.34.33.48.08.07.24.08.36.12.1.06.17.17.2.32.05.14.08.3.18.4.1.1.23.18.37.25.28.14.6.25.94.4.15.07.3.15.44.26.14.13.2.33.28.52.07.2.2.34.4.4s.45.08.57.24c.28.28.4.76.67 1.1.27.33.54.7 1.08.74.12.04.2.1.26.22.05.12.05.3.1.42.02.06.05.1.1.13.06.02.15 0 .23 0 .16 0 .2.13.3.2.34.3.62.7.95 1.04.18.18.36.33.55.48.2.13.37.32.42.64.05.3.2.53.53.5.32 0 .43.26.54.5.1.26.2.53.4.68.2.17.45.24.67.37.4.26.77.6 1.13.94.2.17.33.4.5.57.18.17.42.26.7.3.52.12.95.36 1.4.54.44.23.87.44 1.06.96.23.46.76.5 1.22.64.23.06.45.13.6.28.08.1.12.22.18.32.07.1.16.14.26.2.2.07.43.1.6.22.2.1.27.34.34.58.1.53.74.3.85.8.07.2.22.32.47.27.25-.04.37.08.47.24.16.35.36.63.62.78.3.12.64.1.77.37.13.26.28.46.53.48.5.02.8.18 1.02.28.2.12.3.2.3.2.48.47.5 1.24.03 1.73-.36.37-.9.46-1.33.28h-.04s-.1-.05-.3-.2c-.18-.13-.46-.33-.7-.77-.07-.1-.16-.16-.28-.2-.13-.02-.3 0-.44-.02-.16 0-.28-.06-.37-.18-.08-.12-.15-.3-.26-.4-.24-.17-.6-.23-1-.25-.2-.02-.36-.1-.36-.42 0-.3-.14-.42-.4-.4-.53.12-.35-.8-.9-.75-.23 0-.5 0-.62-.18-.14-.15-.23-.4-.37-.57-.07-.1-.15-.17-.25-.2-.1-.05-.24-.06-.35-.1-.2-.1-.34-.3-.47-.48-.3-.38-.5-.85-1.07-.88-.63.04-.97-.3-1.34-.6-.18-.18-.34-.37-.5-.57-.15-.2-.3-.4-.37-.7-.1-.3-.2-.54-.44-.64-.24-.1-.55-.1-.76-.24-.47-.2-.97-.4-1.27-.8-.13-.25-.18-.58-.38-.73-.18-.2-.53-.16-.86-.15-.3-.02-.64 0-.56-.5.1-.5-.15-.6-.54-.5-.4.1-.62-.03-.74-.27-.15-.18-.27-.42-.44-.6-.33-.36-.72-.63-1.02-1-.07-.1-.2-.14-.2-.32 0-.1.02-.2 0-.25-.02-.07-.07-.1-.12-.13-.1-.04-.27-.03-.4-.07-.1-.04-.17-.14-.22-.26-.08-.25-.15-.5-.3-.66-.13-.18-.3-.33-.44-.48-.3-.3-.66-.53-.97-.8-.3-.26-.46-.67-.9-.74-.2-.06-.43-.1-.56-.2-.14-.13-.26-.26-.36-.4-.2-.3-.36-.6-.54-.84-.1-.13-.2-.23-.3-.33-.12-.07-.3-.1-.44-.13-.15-.03-.27-.1-.34-.2-.06-.1-.08-.25-.16-.32-.15-.15-.37-.2-.52-.3-.15-.08-.26-.18-.36-.24-.2-.12-.3-.2-.3-.2-.5-.44-.54-1.2-.1-1.7.44-.5 1.2-.54 1.7-.1v.02l.06.05zM1004.78 342.06s.06 0 .17.05l.2.1c.06.02.14.14.24.13.04 0 .1-.1.17-.15.06-.03.1.02.16.1.05.08.1.2.17.2.06 0 .13 0 .2-.05.16-.08.32-.2.5-.32.07-.03.15-.06.24-.07.08 0 .15.1.22.2.08.1.16.13.26.04.1-.08.2-.2.3-.17.16.03.33.33.5.4.2.1.4.2.62-.1.05-.06.1-.08.15 0 .03.06.08.2.13.26.02.03.04.06.07.03.03-.03.06-.1.08-.15.06-.1.1-.04.16-.05.2.02.4.15.6.2.1 0 .2 0 .32-.02.1-.04.2.02.3.22.12.2.24.26.3.02.1-.22.2-.1.3 0 .13.1.26.23.36.2.1-.02.18-.15.27-.23.17-.15.4-.17.64-.2.1-.05.26 0 .38 0s.2-.12.3-.27c.16-.28.38-.42.58-.6.2-.14.43-.28.7-.02.26.18.43-.14.62-.33.1-.1.2-.2.3-.18.05.02.12.08.17.12.05.03.1 0 .15-.02.1-.07.18-.2.28-.2.1-.06.2.08.32.23.23.34.35-.23.56.08.1.14.2.14.26-.06.07-.2.15-.17.24-.1.17.16.33.27.47.23.14-.08.25-.3.4-.17l.17.13c.06.02.1 0 .16-.06.18-.3.34-.35.45-.4.1-.02.17 0 .17 0 .67.18 1.06.88.87 1.55-.1.33-.3.6-.6.75l-.13.1s-.06.02-.16.02-.25 0-.47-.22c-.05-.03-.1-.03-.15 0-.06.06-.1.17-.16.25-.05.1-.1.12-.18.07-.07-.04-.14-.13-.2-.14-.15 0-.28.17-.42.4-.06.1-.14.13-.24-.12-.1-.25-.2-.25-.26-.06-.12.43-.38-.43-.53-.03-.08.14-.15.3-.25.25-.1-.03-.2-.15-.3-.2-.06-.03-.1-.05-.16 0-.05.03-.1.1-.13.14-.1.06-.2 0-.3-.06-.23-.1-.47-.32-.62.04-.12.46-.33.44-.53.45-.1 0-.2-.03-.33-.07-.12-.02-.23-.06-.38-.24-.15-.14-.3-.23-.37-.13-.08.12-.12.3-.22.38-.15.2-.3.45-.6.4-.16-.06-.36-.24-.48-.2-.14 0-.22.27-.33.5-.1.2-.24.45-.42.04-.2-.44-.3-.33-.42 0-.1.33-.24.4-.37.28-.12-.04-.25-.15-.37-.17-.24-.06-.47-.03-.7-.1-.05-.05-.1 0-.16-.14-.03-.06-.05-.14-.08-.18-.03-.04-.06-.03-.1 0-.04.03-.1.13-.16.18-.06.04-.1 0-.16-.06-.2-.34-.4-.38-.6-.4-.2-.04-.4.02-.58 0-.18-.02-.35-.23-.54 0-.1.1-.2.2-.28.2-.1 0-.17-.02-.24-.06l-.42-.3c-.07-.03-.13-.04-.2-.04s-.14.1-.2.17c-.08.08-.14.12-.2.1-.04-.06-.08-.16-.13-.16-.1 0-.22.1-.3.12-.08.04-.15.04-.2.06-.1.03-.17.03-.17.03-.66 0-1.2-.56-1.18-1.22.02-.67.56-1.2 1.22-1.18H1004.78zM999.37 358.88s.2.06.56.2c.18.07.4.14.65.27.26.1.54.27.9.4.16.05.38.02.58.03.2.03.4.15.58.3.2.14.37.3.6.4.2.08.46.13.7.2.5.08 1.05.14 1.62.22.3.06.57.12.85.22.3.1.53.3.78.5s.53.35.87.38c.33.03.68.02.97.2.62.25 1.15.76 1.77 1.1.3.16.6.35.95.46.17.06.34.14.52.17.2.03.4.03.57.06.2 0 .37.07.52.2.15.13.27.32.42.46.07.06.15.1.25.13l.3-.03c.23-.02.38.1.56.18.7.32 1.37.7 2.07 1.08.36.16.72.32 1.1.47.37.12.72.33 1 .68.3.35.63.58 1.1.53.45-.02.77.26 1.1.53.32.28.63.58 1 .73.38.2.8.25 1.2.38.76.27 1.5.64 2.22 1 .36.17.7.42 1.05.62.36.18.76.27 1.18.33.83.1 1.6.35 2.36.55.75.24 1.5.47 2.07 1.06.6.52 1.42.57 2.15.73.38.07.74.15 1.06.32.15.1.28.25.43.36.15.12.32.18.5.23.33.1.7.15 1 .28.33.1.57.4.8.67.46.6 1.27.37 1.7.93.2.25.48.38.82.33.35-.04.6.1.82.3.43.38.86.7 1.33.9.23.08.5.1.72.15.2.07.42.15.6.3.17.14.32.3.5.4.16.1.34.15.53.18.76.04 1.3.25 1.65.38.36.14.54.24.54.24.57.34.76 1.08.42 1.65-.3.5-.87.7-1.4.54h-.03s-.2-.07-.53-.24c-.34-.17-.85-.4-1.4-.92-.15-.1-.32-.18-.5-.22-.2-.04-.44-.04-.67-.05-.23-.02-.44-.1-.63-.24-.2-.15-.37-.34-.6-.45-.44-.22-1-.3-1.58-.34-.3-.02-.57-.1-.73-.47-.16-.35-.43-.5-.78-.45-.74.1-.96-.94-1.7-.88-.37 0-.74 0-1.02-.2-.3-.2-.55-.45-.84-.66-.15-.1-.3-.2-.48-.24l-.54-.1c-.35-.1-.65-.33-.95-.54-.62-.43-1.2-.97-2.03-1-.88.1-1.56-.28-2.27-.63-.35-.2-.68-.42-1.02-.62-.35-.2-.68-.42-.97-.77-.3-.32-.6-.6-1-.7-.42-.08-.85-.1-1.24-.22-.8-.2-1.6-.38-2.3-.83-.34-.26-.62-.63-1-.8-.17-.08-.38-.1-.6-.13l-.68.04c-.23 0-.45.02-.64-.05-.2-.03-.36-.2-.47-.45-.18-.58-.6-.66-1.08-.53-.5.14-.9.03-1.2-.22l-1.03-.64c-.7-.37-1.43-.64-2.1-1-.16-.12-.36-.15-.48-.35-.06-.1-.1-.2-.2-.28-.06-.07-.15-.1-.24-.12-.2-.03-.4 0-.6-.03-.18-.04-.34-.13-.5-.26-.54-.58-1.2-.88-1.83-1.18-.66-.26-1.3-.5-1.92-.72-.6-.25-1.13-.67-1.78-.67-.32-.04-.64-.03-.92-.13-.27-.1-.53-.22-.78-.35-.48-.28-.94-.57-1.38-.8-.22-.12-.44-.2-.65-.27-.22-.07-.46-.04-.68-.04-.24 0-.44 0-.6-.1-.18-.1-.32-.26-.5-.32-.3-.12-.65-.1-.93-.15-.28-.03-.5-.1-.7-.12-.37-.06-.57-.12-.57-.12-.64-.17-1-.83-.83-1.47.17-.63.83-1 1.47-.83h.03z"/><g><path fill="#202E78" d="M629.93 225.47l.13-.36c.08-.24.2-.6.38-1.08.18-.48.38-1.06.68-1.73.3-.7.7-1.43 1.06-2.3.18-.43.3-.92.48-1.42.2-.48.47-.95.8-1.43.32-.47.7-.94 1-1.46l.9-1.7c.63-1.15 1.2-2.4 2.1-3.7.48-.62 1-1.27 1.7-1.84.35-.28.74-.54 1.2-.72.44-.2.84-.34 1.4-.44l.6-.1c.22-.04.52-.06.77-.08.55-.08 1-.02 1.52-.02 1 .05 2 .3 2.87.8 1.73 1 2.9 2.57 4.04 4.06.58.76 1.1 1.55 1.65 2.34.53.82 1.1 1.56 1.7 2.32.28.4.56.78.75 1.23.2.46.33.95.5 1.4.1.23.2.46.35.67.14.2.32.4.48.6.34.37.5.86.73 1.3.88 1.85 1.62 3.8 2.06 5.9.14.52.24 1 .35 1.6.08.5.16 1 .2 1.57.14 1.1.07 2.2-.24 3.26-.32 1.06-.6 2.08-.7 3.2-.1.55-.25 1.1-.52 1.58-.27.5-.54.98-.9 1.4-.7.88-1.52 1.65-2.34 2.37-.84.7-1.72 1.36-2.8 1.8-2.1.82-4.48.7-6.55-.05-1.05-.4-2-1.05-2.77-1.83-.8-.8-1.46-1.66-1.95-2.75-.2-.44-.4-1.07-.47-1.63-.1-.56-.1-1.14-.08-1.7.08-1.15.34-2.26.77-3.3.42-1.02 1-1.97 1.7-2.82.1-.12.13-.18.3-.35l.26-.27c.18-.18.37-.34.56-.5.4-.33.88-.66 1.3-.97 1.77-1.15 3.44-2.32 5.3-3.13.94-.4 1.9-.73 2.86-.9 1-.08 1.96-.05 2.9-.2 1.87-.26 3.78-.35 5.48.35.43.12.85.26 1.27.35.43.1.85.17 1.27.25l.62.12.16.04.17.06.28.1c.38.12.74.26 1.1.46.75.4 1.48.7 2.26.83.78.14 1.47.5 2.1.9 1.23.8 2.38 1.6 3.5 2.24 1.14.6 2.27 1.1 3.12 1.87.84.75 1.64 1.4 2.44 1.87 1.67.87 2.82 1.76 3.62 2.33l.9.68.3.24c.53.4.62 1.16.2 1.68-.4.5-1.12.6-1.64.22l-.02-.02-.3-.23c-.22-.15-.52-.37-.9-.7-.76-.6-1.9-1.47-3.23-2.75-.36-.28-.73-.6-1.17-.85-.44-.25-.92-.48-1.4-.72-.5-.25-.98-.55-1.46-.9-.46-.37-.92-.77-1.45-1.1-1.06-.68-2.3-1.2-3.64-1.63-.64-.25-1.3-.5-1.87-1.02-.3-.24-.6-.48-.94-.62-.34-.15-.72-.2-1.08-.27-.37-.07-.8-.13-1.16-.27l-.28-.1-.12-.06-.13-.05-.54-.23c-.72-.37-1.5-.57-2.33-.55-1.66.16-3.27-.2-5-.25-.43 0-.87.03-1.3.1-.42.1-.84.24-1.27.34-.42.1-.85.2-1.28.27-.44.1-.86.23-1.3.3-.86.24-1.73.5-2.56.9-.4.23-.8.45-1.2.7-.35.28-.7.58-1 .92-.3.37-.56.66-.85 1.06l-.45.6-.25.28s-.1.15-.16.2c-.56.7-1.04 1.47-1.43 2.26-.4.8-.73 1.6-.88 2.47-.1.42-.1.85-.13 1.28-.02.23 0 .44 0 .63-.03.2.03.5.05.74.07.36.15.87.38 1.26.1.2.22.4.38.57.15.18.3.35.5.5.35.3.77.5 1.2.7l.63.26.66.2c1.8.5 3.7.37 5.42-.1.8-.18 1.8-.48 2.52-1.13.36-.32.67-.68.9-1.1.25-.42.44-.87.6-1.32.16-.44.28-.9.47-1.32.14-.44.4-.83.72-1.23.72-.77.83-1.8.62-2.78-.23-.98-.28-1.9-.25-2.83 0-.42-.04-.94-.1-1.45-.04-.4-.1-.93-.2-1.38-.43-1.87-1.17-3.65-1.95-5.4-.18-.44-.44-.85-.55-1.33-.08-.5-.23-.97-.52-1.36-.27-.38-.6-.74-.9-1.12-.26-.4-.47-.82-.68-1.24-.7-1.8-1.63-3.34-2.73-4.72-1.12-1.34-2.37-2.5-3.73-3.26-.68-.37-1.36-.7-2.07-.8-.17-.05-.35-.03-.53-.05-.18 0-.35 0-.5.04-.16.03-.3.05-.48.1-.2.05-.37.12-.56.2-2.2 1.2-4 3.53-5.44 5.6-.34.54-.7 1.04-.95 1.57-.28.53-.45 1.08-.64 1.6-.2.5-.37 1-.6 1.44-.26.43-.54.83-.72 1.24-.36.83-.58 1.6-.8 2.28l-.5 1.7-.42 1.44c-.18.63-.84 1-1.48.82-.64-.18-1-.84-.82-1.48v-.06z"/></g><g><path fill="#202E78" d="M1006.6 351c-.06-.08-.1-.18-.1-.27 0-.08 0-.17-.16-.1-.1 0 .06-.26-.02-.26-.06-.03-.15 0-.22.07-.07.05-.1.14-.1.15 0 .05 0-.13-.03-.17-.03-.06 0 .16 0 .17-.02.04-.07-.04-.16-.06-.13-.05-.34-.02-.26.24.02.06.02.1-.04.1s-.2-.05-.23-.02c-.05.02.1.17.05.18l-.07.1c-.12.12-.3.22-.33.4-.03.1-.04.18-.23.2-.1 0-.18.02-.2.06-.03.04.04.12.07.2.02.02.02.05 0 .07v.02h-.02l.05-.2-.02.05-.07.07c0-.04-.02-.07-.05-.1-.02 0-.07-.02-.08 0v.05c.03.03.04.05.1.05.2 0 .3.1.46.18.15.07.26.35.5.13.1-.08.2-.1.28-.13.1-.05.2-.08.26-.1.08 0 .15-.07.22.04.07.1.15.16.22.1.15-.1.13-.5.3-.28.1.05.08-.1.08-.15 0-.07.12.04.25.08.12.04.02-.1.08-.13.05 0 .15 0 .17-.02.03-.02-.06-.1-.1-.14l-.03.48c-.08-.03-.03-.1 0-.17.05-.06.06-.13.07-.2 0-.05-.02-.1-.1-.13-.06-.03-.12-.06-.1-.13 0-.06.07-.15.04-.2-.02-.04-.12-.06-.2-.07-.16-.04-.2-.12-.26-.2v.03zm1.32-.88c.1.12.18.24.16.4-.02.1-.05.18 0 .24.04.05.18.07.26.1.08.05.07.13.04.2-.03.1 0 .16.04.2.07.06.13.1.22.15.1.06.2.1.12.2l-.04.67c-.12.03-.3.02-.3.1-.05.05.03.17 0 .25-.02.17-.4.07-.4.24-.02.08 0 .2-.04.28-.04.08-.1.12-.2.14-.16.03-.34-.02-.44.08-.18.37-.56.08-.8.1-.1-.04-.22.08-.34.23-.13.14-.26.1-.4.1-.1 0-.23-.06-.34-.12-.1-.07-.22-.1-.3-.3-.08-.15-.14-.28-.28-.23-.13.06-.27.1-.4.08-.24 0-.55-.04-.6-.44-.02-.1-.08-.17-.14-.2-.04-.04-.08-.05-.13-.07-.05-.04-.17-.12-.24-.22-.08-.1-.15-.22-.2-.34-.03-.03-.08-.05-.1-.08l-.03-.04.08-.34v-.04c.02-.03.05-.04.12-.04.12 0 .3.03.32-.02.02-.05-.07-.12-.14-.23-.08-.1-.12-.17-.1-.23.02-.04.1-.08.13-.12.2-.13.3-.35.42-.53l.13-.13c0-.07.25.03.26-.03.03-.05-.02-.16-.02-.23 0-.06.08-.08.16-.1.34 0 .47-.2.67-.35.1-.1.2-.17.33-.22.15-.04.3-.02.43-.1.14-.1.32-.25.5-.2.15.04.3.15.4.26l.28.3c.1.08.36-.03.42.1 0 .18.1.25.26.3.1.06.18.12.25.2l.02.02z"/></g><g><path fill="#202E78" d="M975.82 242.24c-.05-.08-.1-.18-.1-.28 0-.08 0-.16-.15-.1-.1.02.06-.25-.03-.25-.06-.02-.15.02-.2.08-.08.04-.12.14-.12.15 0 .06 0-.12-.02-.16-.03-.06 0 .16 0 .17-.02.04-.08-.04-.16-.07-.15-.05-.35 0-.27.24 0 .08.02.13-.04.12-.07 0-.2-.05-.23-.02-.05 0 .1.17.05.18l-.07.1c-.12.12-.3.22-.34.4-.02.1-.03.18-.22.2-.08 0-.17.02-.2.06-.02.04.04.12.08.2.02.02.02.05 0 .07v.02h-.02v.02l.04-.2c0 .02 0 .03-.02.04 0 .03-.04.05-.06.07 0-.03-.03-.06-.06-.08-.02-.02-.07-.03-.08-.02v.06c.02.03.04.06.1.06.2-.02.3.1.46.18.14.07.26.35.5.13.1-.08.2-.1.28-.14l.25-.1c.06 0 .13-.06.2.05.08.1.16.15.23.1.15-.1.13-.5.3-.3.1.06.08-.07.08-.14s.12.03.25.08c.12.03.02-.12.1-.14.02 0 .13.02.14 0 .03-.03-.06-.1-.1-.16l-.03.5c-.08-.03-.03-.1 0-.17.05-.08.06-.14.07-.2 0-.06-.03-.1-.1-.14-.07-.02-.13-.05-.12-.12.02-.06.07-.15.04-.2-.02-.04-.1-.06-.2-.07-.15-.03-.2-.1-.26-.2l.02.04zm1.33-.88c.08.12.17.24.15.4 0 .1-.04.18 0 .23.05.05.18.06.26.1.1.05.08.13.05.2-.03.1 0 .16.05.2.06.06.12.1.22.15.1.04.2.1.12.18l-.05.67c-.12.04-.3.03-.32.1-.03.05.05.18.03.26-.03.17-.4.06-.4.24-.03.08-.02.2-.05.28-.03.08-.1.1-.18.13-.17.05-.36 0-.46.1-.17.37-.56.08-.78.1-.12-.04-.23.08-.36.23-.12.15-.25.1-.38.1-.12 0-.24-.05-.35-.1-.13-.08-.24-.13-.3-.3-.1-.16-.16-.3-.3-.24-.13.05-.26.08-.4.06-.23 0-.55-.03-.6-.43-.02-.08-.07-.16-.14-.2-.03-.03-.07-.04-.12-.06-.06-.04-.18-.12-.25-.22-.1-.1-.16-.23-.2-.35-.05-.03-.1-.06-.1-.08l-.04-.04.08-.35v-.03c0-.03.04-.04.1-.04.13 0 .32.03.33-.02.02-.05-.07-.12-.14-.23-.08-.1-.12-.16-.1-.22.02-.05.08-.08.12-.12.22-.13.3-.35.43-.53l.12-.13c0-.06.25.03.27-.02.03-.05-.03-.16-.02-.23 0-.07.08-.1.16-.1.35-.03.48-.2.68-.36.1-.1.2-.18.33-.23.16-.04.3-.02.43-.1.14-.1.3-.25.48-.2.17.04.32.15.42.26.1.1.2.22.3.3.08.1.34-.02.4.1 0 .2.1.25.26.3.1.07.18.13.25.2l.02.03z"/></g><g><path fill="#202E78" d="M664.8 242.1l.5.1c.3.1.72.2 1.24.36.25.1.5.24.77.4l.4.26c.08.03.13.12.18.23.05.1.14.1.2.16.3.16.65.24.96.44.3.2.57.56.92.66.7.2 1.44.2 2.14.2.35 0 .67.03.98.05.16 0 .3 0 .45.06.13.07.25.17.38.23l.36.18c.12.05.24.05.35.06.23.02.42.04.58.03.32 0 .5-.04.5-.04.65-.1 1.25.33 1.36.98.1.64-.33 1.25-.98 1.35h-.15l-.62.03-.52-.02c-.17 0-.37 0-.6-.03-.23-.03-.5 0-.76-.14-.13-.06-.26-.18-.4-.26-.13-.1-.3-.1-.45-.14l-.98-.25c-.34-.1-.7-.16-1.07-.24l-1.1-.25c-.37-.08-.8.05-1.16-.1-.36-.06-.6-.5-.88-.78-.07-.05-.13-.16-.23-.13s-.2.03-.26-.04c-.15-.1-.27-.24-.4-.36-.24-.26-.5-.4-.86-.28-.3.05-.53-.1-.77-.14-.23-.06-.4-.14-.56-.2-.3-.1-.46-.2-.46-.2-.56-.33-.76-1.07-.44-1.64.27-.47.8-.7 1.3-.58l.13.03z"/></g><g><path fill="#7084CB" d="M1021.7 636.55H649.46l-3-145.5 375.24 4.65"/><path fill="#7084CB" d="M1022.9 637.75l-24.47-.08c-7.75-.05-15.5-.15-23.26-.1l-11.64.14c-3.87.02-7.75-.07-11.63-.1l-11.63-.13c-3.88-.04-7.75.05-11.63.07l-46.53.43c-7.74.02-15.5-.1-23.25-.15-7.76-.15-15.5 0-23.27.06l-11.63.12-11.63-.1-23.27-.2c-7.75-.1-15.5-.06-23.26-.1h-11.64l-11.63.15c-3.88.02-7.76.1-11.64.07l-11.64-.2c-7.75-.32-15.5.28-23.26.08l-46.53-.15h-.98l-.03-.98-.73-36.38-.07-18.2c-.03-3.03 0-6.06-.13-9.1l-.3-9.08-.3-9.1-.08-9.1-.17-18.18-.1-9.1-.22-9.1-.46-18.17-.02-.58h.6c7.8 0 15.62.17 23.44.26l23.45.32 23.44.4c7.8.14 15.63.12 23.45.14 7.8.02 15.63-.04 23.45.04l23.45.14 23.45.14c7.82.05 15.63.3 23.45.44l11.72.25c3.9.07 7.82.04 11.73.07l23.46.07c7.82.05 15.64-.03 23.46.2l11.72.26 11.73.07 11.74.07c3.9.04 7.8.02 11.72.17l11.72.34c3.9.1 7.82.27 11.73.27l11.73.1 5.87.04 5.86.14 11.72.28 11.73-.06h1l.03 1.04c.06 2.93.1 5.87.05 8.8l-.08 8.8-.12 8.8-.05 8.8-.04 8.8.07 8.82.07 8.8.04 4.4-.04 4.4-.15 17.6c-.02 2.94.04 5.88.07 8.8l.1 8.8.13 8.82.03 8.8.07 18.8zm-2.4-2.4l.02-16.4v-8.8l.1-8.8.08-8.82c0-2.93.06-5.87.03-8.8l-.24-17.6-.08-4.4.03-4.4.07-8.8.08-8.8-.07-8.82-.07-8.8-.16-8.8-.1-8.8c-.04-2.93 0-5.87.06-8.8l1.42 1.44c-3.9-.18-7.82-.4-11.72-.47h-11.73l-5.87.02-5.86-.17-11.72-.3c-3.9-.15-7.82-.08-11.73-.08h-11.73c-3.9.05-7.8-.08-11.72-.15l-11.73-.25-11.72-.26-11.73-.06c-7.82.04-15.63-.2-23.45-.35l-23.45-.45c-3.9-.05-7.8-.17-11.72-.17l-11.73.03-11.73.04c-3.9 0-7.82.05-11.73-.04l-23.44-.38-23.45-.37c-7.8-.07-15.62-.4-23.43-.6-7.82-.2-15.63-.47-23.45-.44l-23.46-.03-23.45-.16-11.72-.07-5.86-.05-5.86-.15 1.2-1.2.1 18.2.16 9.1.3 9.08.8 18.2.3 9.08c.02 3.03.06 6.06-.03 9.1-.05 3.03-.17 6.06-.12 9.1-.03 3.03.13 6.06.2 9.1l.46 9.07c.14 3.03.32 6.06.42 9.1.07 3.02.17 6.05.2 9.1l.1 9.08.25 18.2-1.34-1.33 46.53.1c7.75-.16 15.5.52 23.26.25l11.63-.16c3.87-.03 7.74.07 11.62.1l11.63.18 11.63.06c7.76.02 15.5.1 23.27.06l23.26-.04h11.64l11.64.03c7.75 0 15.5.04 23.26-.1 7.76-.1 15.5-.22 23.26-.22l46.53.25c3.88 0 7.76.08 11.64.04l11.63-.14c3.87-.04 7.75-.13 11.63-.14l11.63.1c7.76.03 15.5-.1 23.27-.14l22.07-.1z"/></g><g><path fill="#202E78" d="M1032.66 538.55l-12.24 3.63-8.34 9.7-12.24-3.6-12.24 3.63-8.37-9.65-12.25-3.6-1.84-12.66-8.37-9.67 5.28-11.65-1.83-12.67 10.72-6.93 5.28-11.65 12.76-.03 10.72-6.94 10.75 6.9 12.76-.02 5.33 11.63 10.74 6.9-1.8 12.68 5.33 11.64-8.34 9.68"/><path fill="#202E78" d="M1033.73 539.47l-12.98 3.83.55-.36-2.1 2.42-2.12 2.38-2.1 2.4c-.37.4-.7.82-1.03 1.23l-1 1.24-.45.55-.73-.2-6.18-1.6-3.1-.8-3.06-.9h.8l-6.1 1.84c-2.04.62-4.1 1.18-6.14 1.77l-.88.26-.6-.7-8.28-9.72.62.4-12.23-3.64-.77-.23-.1-.8c-.6-4.2-1.12-8.45-1.7-12.68l.26.56c-2.75-3.25-5.5-6.5-8.23-9.78l-.4-.45.25-.5c.9-1.94 1.86-3.85 2.74-5.8l2.6-5.83-.05.45-.88-6.35-.85-6.34-.07-.45.38-.24c1.8-1.13 3.6-2.25 5.4-3.4l5.33-3.53-.26.3c.85-1.95 1.76-3.88 2.65-5.8l2.68-5.7.17-.27h.42l6.38-.1c1.06-.02 2.13-.04 3.2-.1l3.18-.1-.4.1c1.76-1.2 3.48-2.48 5.27-3.63l5.34-3.5.5-.35.52.33 10.8 6.82-.57-.16 12.76-.14h.76l.32.7 2.7 5.8 2.58 5.84-.42-.48 5.32 3.53c.88.6 1.8 1.15 2.7 1.72l2.68 1.7.58.38-.1.68-1.73 12.68-.1-.6c.45.95.86 1.94 1.3 2.9l1.26 2.95 1.28 2.93c.42.98.84 1.96 1.3 2.92l.26.54-.4.46-8.27 9.75.24-.52-1.74 13.44zm-2.13-1.83l1.64-11.94.04-.35.24-.28 8.3-9.73-.2 1.4c-.88-1.95-1.85-3.85-2.78-5.77l-1.38-2.9c-.46-.95-.94-1.9-1.37-2.88l-.2-.43.06-.43 1.93-12.66.62 1.38-5.33-3.52-5.37-3.48-.32-.2-.14-.35-2.63-5.82-2.54-5.88 1 .66-6.37-.08-6.38.1h-.3l-.3-.18-10.83-6.78h1.36l-5.32 3.53c-.88.6-1.78 1.17-2.7 1.7-.9.58-1.83 1.08-2.75 1.62l-.34.2h-.28c-1.06-.08-2.13-.12-3.2-.12-1.05-.03-2.12.03-3.18.05l-6.38.15 1.12-.72-2.5 5.9-1.25 2.94c-.4 1-.87 1.95-1.33 2.9l-.2.42-.34.2c-1.8 1.14-3.62 2.25-5.43 3.36-.92.55-1.8 1.15-2.7 1.72l-2.67 1.75.6-1.3c.32 2.1.66 4.2.95 6.32.3 2.1.62 4.22.9 6.33l.06.42-.17.34c-.92 1.92-1.82 3.85-2.7 5.8-.48.95-.86 1.95-1.28 2.93l-1.25 2.95-.22-1.52c.73.78 1.45 1.57 2.14 2.38.72.8 1.38 1.63 2.06 2.44l4.05 4.95.26.3.04.34.36 3.2c.1 1.06.26 2.1.42 3.17l.46 3.17c.17 1.05.27 2.1.4 3.17l-.75-.85 6.07 1.98 3.04.97c1.02.32 2.03.65 3.05.96l.2.06.14.16 4.2 4.8c1.4 1.62 2.84 3.2 4.26 4.78l-.87-.25 12.18-3.8.28-.1.3.1 3.07.86 3.04.94 6.1 1.88-.96.3 2.12-2.4 2.03-2.48c1.33-1.66 2.7-3.3 4.08-4.92l.2-.23.32-.1 11.48-3.5z"/></g><g><path fill="#202E78" d="M704.8 548l4.04-.1c1.32-.04 2.6-.18 3.9-.24 2.6-.18 5.24-.5 7.83-.9 5.2-.82 10.3-2.13 15.26-3.87s9.76-3.94 14.32-6.54c4.55-2.6 8.9-5.56 12.94-8.9 3.96-3.4 8.03-6.98 9.24-11.2l.1-.4.03-.1c.02-.1 0 .1 0 .05v-.05l.05-.25.08-.48.02-.3c.04-.45.02-1.02-.05-1.52-.15-1.02-.48-2.05-1-2.87-.54-.82-1.22-1.47-2-1.8-.74-.34-1.65-.43-2.74-.27-1.07.15-2.27.52-3.52.94-1.28.42-2.43.86-3.66 1.34-2.4.98-4.73 2.1-6.98 3.35-2.2 1.28-4.34 2.75-6.1 4.57-.88.92-1.75 1.85-2.48 2.88l-.28.38-.08.1c.06-.1 0 0 0 0l-.03.04-.15.2-.55.86c-.34.56-.6 1.05-.9 1.6-1.08 2.24-1.83 4.67-2.12 7.15-.26 2.47-.12 5 .6 7.33.2.58.38 1.17.65 1.7.23.57.53 1.1.84 1.6.14.28.32.52.5.77l.5.7.66.75.6.62c1.76 1.68 3.9 3.05 6.26 4.07 2.34 1.04 4.83 1.8 7.43 2.37.66.17 1.3.3 1.93.4.64.1 1.28.25 1.93.34 1.3.18 2.6.38 3.9.46 5.26.46 10.6.1 15.8-.96 5.2-1 10.22-2.86 15-5.17 4.74-2.36 9.23-5.24 13.28-8.65 1.03-.82 1.98-1.75 2.97-2.63.93-.94 1.9-1.84 2.78-2.82 1.8-1.92 3.47-4 5-6.13 3.07-4.3 5.52-9 7.27-13.96l1.17 2.02c-1.12-.14-2.25-.03-3.33.35s-2.06 1.1-2.93 1.9c-.87.8-1.57 1.83-2.14 2.9-.58 1.07-.94 2.25-1.13 3.43-.22 1.2-.16 2.38.1 3.5.06.26.1.62.2.8l.35.96c.28.54.46 1 .82 1.53.62 1.04 1.42 1.98 2.34 2.8.9.84 1.93 1.58 3.03 2.18 1.1.62 2.26 1.13 3.47 1.5 1.2.4 2.45.66 3.7.8.6.1 1.3.1 1.84.14.7 0 1.42 0 2-.05 1.24-.08 2.57-.25 3.84-.5 2.56-.5 5.12-1.24 7.64-2.2 2.53-.94 5.03-2.03 7.56-3.15 5.05-2.24 10.23-4.65 15.86-6 1.4-.34 2.83-.63 4.28-.8 1.43-.17 3.03-.3 4.76.1.43.1.86.26 1.28.46l.08.05.14.07.1.07.24.12c.14.07.4.26.6.4.75.57 1.32 1.22 1.8 1.9.93 1.34 1.5 2.7 2.1 3.9.57 1.2 1.23 2.22 2 3.02.8.85 1.78 1.55 2.85 2.08 2.16 1.05 4.7 1.42 7.16 1.2 2.47-.22 4.9-1.03 6.86-2.4 1.97-1.36 3.42-3.3 4-5.5.27-1.08 1.17-1.73 2.23-1.45 1.07.27 1.25 1.36 1.25 2.43l.17.06c-.83 3.2-2.9 5.97-5.5 7.75-2.64 1.82-5.65 2.8-8.74 3.08-3.1.26-6.3-.2-9.2-1.62-1.46-.72-2.8-1.7-3.95-2.9-.3-.32-.56-.6-.84-1l-.4-.53c-.14-.2-.2-.3-.3-.47l-.28-.44-.12-.2-.07-.13-.14-.27-.5-1c-.64-1.3-1.18-2.5-1.8-3.36-.3-.43-.63-.8-.92-1 0-.02-.04-.03-.06-.05-.02-.02-.03-.04-.13-.1l-.22-.12-.1-.06-.04-.02.1.05-.05-.02c-.17-.08-.36-.14-.57-.2-.83-.2-1.98-.17-3.27.02-1.28.15-2.55.4-3.82.73-2.54.63-5.05 1.54-7.55 2.58-2.5 1.03-5.03 2.14-7.58 3.27-5.1 2.25-10.4 4.53-16.2 5.55-1.44.28-2.87.45-4.4.52-.8.05-1.46.04-2.16.03-.85-.05-1.54-.07-2.3-.18-1.5-.18-3-.52-4.42-1-1.44-.46-2.83-1.08-4.16-1.84-1.33-.74-2.58-1.66-3.72-2.72-1.14-1.04-2.16-2.26-2.97-3.63-.43-.63-.8-1.5-1.12-2.2l-.35-1-.05-.12-.02-.06-.04-.14v-.04l-.08-.3-.14-.6c-.34-1.64-.38-3.3-.08-4.9.27-1.6.77-3.13 1.54-4.53.76-1.42 1.7-2.74 2.9-3.84 1.2-1.1 2.58-2.07 4.2-2.62 1.62-.56 3.4-.72 5.1-.46l2.4.35-.85 2.3c-1.9 5.27-4.54 10.26-7.82 14.77-1.64 2.26-3.4 4.43-5.33 6.44-.93 1.03-1.95 1.97-2.94 2.95-1.04.9-2.04 1.88-3.14 2.74-4.28 3.55-9 6.53-14 8.97-2.5 1.2-5.07 2.26-7.7 3.17-2.64.86-5.3 1.68-8.02 2.26-2.72.58-5.48 1.06-8.27 1.28-2.78.25-5.58.33-8.38.17-1.4-.04-2.8-.2-4.2-.33-.7-.08-1.43-.2-2.13-.3l-1.07-.17-1-.2c-2.72-.5-5.5-1.28-8.18-2.38-2.68-1.14-5.37-2.63-7.58-4.82l-.86-.9-.66-.77s-.12-.15-.1-.1l-.04-.07-.08-.12-.17-.23-.35-.48c-.23-.33-.45-.65-.64-1-.4-.67-.78-1.36-1.07-2.08-.34-.7-.56-1.44-.8-2.18-1.67-6-.58-12.2 2.1-17.38.35-.64.76-1.35 1.14-1.94l.58-.83.14-.22.12-.17.08-.1.33-.42c.87-1.16 1.87-2.2 2.88-3.2 2.1-1.96 4.3-3.7 6.63-5.32 2.34-1.57 4.9-2.74 7.48-3.76 1.28-.5 2.64-1 3.92-1.4 1.3-.4 2.66-.85 4.2-1.06 1.5-.23 3.26-.15 4.83.58 1.56.68 2.8 1.9 3.64 3.24.86 1.35 1.34 2.86 1.57 4.38.1.78.14 1.53.08 2.34l-.06.63-.1.52-.03.25-.02.06-.03.13-.04.13-.13.54c-.4 1.45-1.07 2.8-1.84 4.04-.8 1.2-1.66 2.35-2.6 3.4-1.87 2.13-3.92 3.92-5.93 5.8-4.14 3.6-8.6 6.88-13.4 9.54-4.8 2.7-9.83 4.98-15.03 6.8-5.2 1.8-10.55 3.14-16 4-2.72.42-5.46.67-8.22.84-1.4.05-2.8.1-4.17.13l-4.04-.07c-1.1-.02-1.97-.8-1.96-1.9.02-1.1.92-1.83 2-1.83h.02z"/></g><g><path fill="#FFF" d="M710.78 578s3.1.22 8.54.27c2.72.03 6.02.16 9.8.2 3.8.05 8.07.1 12.73.2 2.33.06 4.76.13 7.27.18l7.78.24 8.2.25c2.8.07 5.67.39 8.6.4 5.8.14 11.83.24 17.95.45l9.23.38 9.3.3c6.22.12 12.43.13 18.55.2l17.97.16 16.8.12c5.34 0 10.38.2 15.04.37 4.66.18 8.93.32 12.72.33l9.8.1 8.55.07c.67 0 1.2.73 1.2 1.4 0 .66-.55 1.37-1.2 1.37h-.03s-3.1-.22-8.55-.28c-5.43-.08-13.2-.2-22.52-.44-4.66-.18-9.7-.48-15.05-.53-5.34-.1-10.97-.22-16.8-.32l-36.5-.64c-6.22 0-12.43-.05-18.55-.12-6.12-.07-12.13-.5-17.95-.77-1.46-.05-2.9-.17-4.33-.14-1.43.02-2.85.05-4.25-.03l-8.22-.33c-2.66-.1-5.26-.2-7.77-.28-2.5-.06-4.94 0-7.28.02-1.16 0-2.3.03-3.42.04l-3.26-.04-6.04-.1-9.8-.14c-5.44-.1-8.55-.13-8.55-.13-.66 0-1.2-.74-1.18-1.4 0-.67.56-1.37 1.22-1.37z"/></g><g><path fill="#FFF" d="M710.78 594s3.1.22 8.54.27c2.72.03 6.02.16 9.8.2 3.8.05 8.07.1 12.73.2 2.33.06 4.76.13 7.27.18l7.78.24 8.2.25c2.8.07 5.67.39 8.6.4 5.8.14 11.83.24 17.95.45l9.23.38 9.3.3c6.22.12 12.43.13 18.55.2l17.97.16 16.8.12c5.34 0 10.38.2 15.04.37 4.66.18 8.93.32 12.72.33l9.8.1 8.55.07c.67 0 1.2.73 1.2 1.4 0 .66-.55 1.37-1.2 1.37h-.03s-3.1-.22-8.55-.28c-5.43-.08-13.2-.2-22.52-.44-4.66-.18-9.7-.48-15.05-.53-5.34-.1-10.97-.22-16.8-.32l-36.5-.64c-6.22 0-12.43-.05-18.55-.12-6.12-.07-12.13-.5-17.95-.77-1.46-.05-2.9-.17-4.33-.14-1.43.02-2.85.05-4.25-.03l-8.22-.33c-2.66-.1-5.26-.2-7.77-.28-2.5-.06-4.94 0-7.28.02-1.16 0-2.3.03-3.42.04l-3.26-.04-6.04-.1-9.8-.14c-5.44-.1-8.55-.13-8.55-.13-.66 0-1.2-.74-1.18-1.4 0-.67.56-1.37 1.22-1.37z"/></g><g><path fill="#FFF" d="M752.65 616s1.8-.03 4.95 0c1.57 0 3.5 0 5.68.03 2.2.03 4.67 0 7.36.08l4.2.1 4.5.2 4.76.2c.82.02 1.63.1 2.46.2.83.1 1.66.1 2.5.14 3.38.12 6.86.18 10.4.36l5.34.33 2.7.16 2.7.1c3.58.05 7.18.05 10.72.08l10.4.06 9.73.02c3.1-.03 6.02.14 8.7.3 2.7.15 5.18.26 7.37.26l5.68.06h4.95c.66 0 1.2.5 1.2 1.16 0 .66-.54 1.16-1.2 1.16h-.06s-1.8.02-4.96 0c-3.15-.06-7.64 0-13.04-.2-2.7-.17-5.6-.38-8.7-.4l-9.73-.2-10.4-.22c-3.54-.06-7.13-.17-10.73-.2l-5.4.02c-1.78.02-3.57.03-5.34-.02-3.54-.05-7.02-.44-10.4-.7-.83-.04-1.66-.13-2.5-.1-.82.05-1.64.07-2.45 0l-4.76-.3c-3.1-.22-6-.33-8.72-.15-2.7.1-5.17-.02-7.36-.02l-5.68-.07-4.95-.12c-.67 0-1.2-.5-1.17-1.17 0-.66.55-1.13 1.2-1.13h.02z"/></g><g><path fill="#202E78" d="M975.92 258.33c-7.25-1.6-11.82-14.22-11.82-14.22s-3.77 13.02-11.63 13c5.32 2 11.06 9.3 12.75 19.28-.57-7.44 3.9-15 10.7-18.05z"/><path fill="#202E78" d="M973.16 258.57h-.02c-.46-.2-.8-.47-1.17-.7-.37-.25-.74-.5-1.05-.8-.33-.28-.68-.54-.98-.85l-.9-.9-.82-.97c-.28-.32-.53-.65-.78-1-.5-.65-.97-1.35-1.42-2.05-.42-.7-.84-1.43-1.22-2.16-.38-.73-.76-1.46-1.07-2.23-.33-.75-.63-1.5-.9-2.32l2.58-.08c-.13.42-.26.78-.4 1.16l-.46 1.12c-.16.37-.32.74-.5 1.1-.17.36-.33.73-.53 1.08-.2.35-.44.68-.66 1-.22.35-.4.7-.62 1.05-.4.7-.86 1.37-1.34 2.03-.98 1.3-2.1 2.52-3.53 3.47-.34.25-.74.43-1.12.62-.4.17-.8.33-1.2.44-.43.12-.85.22-1.28.26-.42.06-.85.05-1.28.05l.27-1.47c.47.25.97.45 1.4.74.47.27.9.57 1.32.87.44.3.83.64 1.23.96l1.15 1.03 1.1 1.1c.32.38.67.76 1 1.16l.92 1.23.87 1.27.8 1.3.75 1.37.66 1.4c.22.46.4.94.6 1.42.2.47.36.96.53 1.45.16.5.32 1 .45 1.5.14.48.3.98.4 1.48l.35 1.52-2.17.26-.1-1.48.04-1.5.15-1.47c.08-.48.2-.96.3-1.45.12-.48.28-.95.43-1.42l.57-1.36.67-1.32.74-1.26.8-1.23c.32-.38.6-.78.88-1.18l.94-1.13 1.03-1.05 1.1-.98 1.18-.9.28-.17zm5.83-.5l-3.74 1.96-1.08.7-1.03.77-.97.86-.9.92-.83 1-.76 1.04-.7 1.1c-.43.75-.82 1.5-1.22 2.28l-.52 1.2c-.14.4-.3.8-.42 1.23-.1.42-.2.85-.28 1.27l-.16 1.3-.06 1.3.05 1.3-2.33.28-.3-1.42c-.07-.48-.22-.94-.34-1.4-.1-.48-.25-.95-.4-1.4-.15-.46-.28-.93-.47-1.37-.17-.46-.32-.92-.52-1.36l-.6-1.32-.65-1.28-.73-1.24c-.5-.82-1.05-1.6-1.63-2.35-.3-.38-.6-.73-.92-1.1l-.97-1c-.35-.32-.68-.66-1.05-.94-.38-.25-.74-.56-1.13-.78l-.58-.37-.62-.3c-.4-.2-.82-.3-1.22-.48l-5.07-2.15 5.57-.66c.3-.03.6-.05.9-.13.3-.05.6-.16.88-.25.3-.1.58-.23.86-.37.3-.14.56-.3.83-.48.28-.17.55-.37.82-.57.26-.2.52-.44.8-.66.5-.47 1-.98 1.5-1.52s.92-1.13 1.34-1.75c.2-.3.4-.62.56-.95.15-.35.26-.7.42-1.04.15-.35.35-.67.5-1l.5-1.02c.3-.68.6-1.4.85-2.06l.98-2.6.75 2.54c.2.72.5 1.47.8 2.18.3.72.68 1.42 1.1 2.08.4.66.9 1.3 1.3 1.94.45.63.85 1.3 1.32 1.9.23.3.45.6.7.9.25.28.48.58.74.85l.8.8c.25.27.55.5.82.73.27.26.57.46.87.65.28.2.58.43.86.55.3.13.5.3.88.44l3.85 1.25z"/></g><g><path fill="#202E78" d="M993.56 250.05l-2.24.88c-.12.06-.16.12-.25.16-.07.02-.17.14-.26.2-.1.08-.17.17-.26.27-.36.37-.67.82-.95 1.3-.3.48-.56.98-.8 1.5l-.37.8c-.12.24-.24.52-.34.76l-1.08 2.7-.66-2.72-.2-.6c-.08-.22-.17-.43-.27-.63-.12-.2-.17-.43-.26-.65-.1-.2-.24-.37-.38-.54-.28-.34-.6-.63-.94-.83-.18-.1-.35-.2-.54-.23-.18-.07-.38-.1-.58-.13l-1.57-.36 1.24-.77c.3-.18.63-.38.93-.65.3-.26.57-.56.8-.9.48-.65.83-1.4 1.16-2.14.6-1.53.98-3.14 1.16-4.75l1.43.17c0 .32.02.64.06.96.05.32.13.63.2.95.07.32.1.64.2.95.08.32.2.63.32.93.26.6.7 1.12 1.15 1.57.23.22.48.42.74.6.27.18.55.3.83.44l1.73.75zm-3.7-.1c-.9-.68-1.63-1.55-2.16-2.52-.2-.36-.33-.73-.43-1.12-.1-.37-.16-.77-.24-1.15-.06-.4-.13-.78-.16-1.17-.03-.4-.04-.8-.02-1.2l1.56.2c-.26 1.73-.75 3.43-1.47 5.04-.2.4-.38.8-.6 1.2-.2.38-.46.75-.7 1.14-.24.38-.5.76-.8 1.14-.28.37-.62.74-1.06 1.04l-.57-1.88c.34.03.68.02 1 .14.33.1.63.24.9.4.27.2.52.4.7.63.23.22.4.47.56.7.17.23.3.48.46.7.16.22.38.42.47.68l.3.77c.07.27.14.5.2.8h-1.14c.27-.6.54-1.15.74-1.76.1-.3.18-.6.32-.9.13-.28.3-.56.46-.84.34-.56.73-1.1 1.22-1.6.12-.1.24-.24.4-.35.02 0 .04-.03.07-.06z"/></g><g><path fill="#3E4166" d="M559.97 777.24l2.7 1.6c2.5 1.48 5.1 2.97 7.97 3.36 15.12 2.04 8.02-23.75 13.97-31.06 5.82-7.15 20.54-8.38 28.8-10.52 3.35-.87 7.03-1.7 10.16-.2.9.42 1.66 1.02 2.32 1.74 1.95 2.16 2.8 5.4 2.5 8.37-.42 3.96-2.48 7.54-4.65 10.88-5.5 8.45-12.02 15.88-19.5 22.58-4.33 3.88-6.88 9.2-9.57 14.25-5.04 9.45-14.75 15.53-22.6 22.5-2.46 2.2-4.93 4.4-7.7 6.18-2.1 1.35-4.37 2.42-6.62 3.48-25.72 12.04-56.1 18-83.07 6-3.64-1.6-7.17-3.5-10.3-6-4.4-3.5-7.88-8.02-11.12-12.64-1.52-2.15-3.02-4.37-3.9-6.86-1.53-4.3-1.12-9.08.28-13.42 1.4-4.36 3.6-8.42 6.3-12.02 2.2-2.9 3.96-6.56 6.75-9 3.32-2.9 7.38-4.77 11.4-6.53 13.45-5.87 27.8-10.86 42.43-9.78 15.68 1.15 29.85 9.1 43.47 17.12z"/><path fill="#323556" d="M585.14 788.5c3.69-1 7.9-1.57 10.27-4.58 1.5-1.9 1.9-4.37 2.66-6.65 3.07-9.36 11.67-15.58 19.77-21.15 1.72-1.18 3.73-2.42 5.74-1.9 6.14 1.55-8.05 17.4-9.63 19.2-2.38 2.7-4.78 5.65-7.54 8-6.6 5.58-9.4 16-13.92 23.32-5.53 8.98-12.08 19.34-23.5 19.97-1.7.1-9.53-.8-10.03-2.43-.3-.96-.08-2-.04-3 .1-2.36-.8-4.7-.5-7.06.25-1.9 1.27-3.6 2.28-5.23 2.86-4.66 6.45-8.5 10.9-11.73 1.1-.8 13.56-6.88 13.56-6.73zM434.65 821.12c-.13 2.33-.5 4.65-1.06 6.9-.2.7-.4 1.4-.74 2.02-.74 1.3-2.1 2.15-3.38 2.93-3.52 2.13-7.67 3.08-11.77 2.47-.68-.1-1.4-.25-2.04.04-2.85 1.32 2.48 6.22 3.48 7.16 11.7 11.05 33.73-.27 40.96-10.7M522 826.42c-4.47 5.3-12.8 18.07-23.27 27.5-2.48 2.23-7.05 5.37-6.26 9.24.5 2.5 2.38 4.53 3.1 6.98.2.6.33 1.3.06 1.86-.5 1.1-2.1 1.18-3.56 1.26 0 0-9.73.86-13.64-1.45-3.65-2.14-6.63-5.7-7.3-9.9-.5-3.22.14-6.5.1-9.73-.07-6.4-2.75-12.43-5.38-18.25M525.58 834.94c11.7 8.16-.17 19.58 10.98 32.1 1.63 1.83 5.15 4.38 7.6 4.4h11.54c.9 0 1.63-.72 1.62-1.62 0-1.4-.7-4.5-2.83-5.96-3.4-2.32-4.04-4.3-1.53-7.7 6.66-9.1 14.05-17.82 21-26.78"/><path fill="#5053AB" d="M579.85 793.2c-1.5 5.04 1.7 11.1 4.8 14.9 3.26 4 7.78 6.1 2.33 11.15-6.98 6.48-39.8 23.16-61.87 25.93-60.48 7.6-79.27-19.1-79.33-19.1"/><path fill="#3E4166" d="M502.94 819.13c-10.3 10.92-20.56 22.05-32.33 31.56-2.3 1.86-4.73 3.75-6.22 6.33-1.5 2.6-1.8 6.1.05 8.43 3.64 4.57.83 6.8-4.04 7.2-5.65.5-11.76.2-15.8-4.24-3.47-3.8-4.45-9.07-5.6-13.9-1.2-5.1 1.16-7.5 3.47-11.55 2.2-3.86 3.63-8.16 4.44-12.53 1.16-6.12 1.15-12.4.84-18.63"/><path fill="#323556" d="M503.1 819.2c-10.3 10.9-20.56 22.04-32.33 31.55-2.32 1.87-4.74 3.76-6.23 6.34-1.48 2.58-2.12 5.8-.26 8.13.87 1.1 2.42 3.1 1.44 5.18-.67 1.44-2.97 1.66-4.7.6-1.55-.94-2.3-2.6-3.52-3.93-.96-1.04-2.1-1.9-3.26-2.72-.82-.57-1.65-1-2.3-1.77-.57-.7-1.07-1.6-.74-2.53.36-1.05 1.5-1.7 2.42-2.2 1.33-.7 2.74-1.2 4.12-1.78 1.67-.7 5.5-1.93 5.15-4.37-.3-1.9-2.5-2.96-3-4.8-.96-3.45 4.3-5.76 4.47-9.34.14-3.2-3.45-8.14-4.73-11.12-1.98-4.6-3.62-9.32-4.9-14.15-.15-.52-.28-1.1 0-1.56.44-.68 1.45-.57 2.24-.38 1.93.48 3.87 1 5.8 1.5 6.75 1.8 14.3 5.16 21.3 5.13 2.76-.03 4.03-.53 6.06 2.07 1.56 2 2.24 4.75 1.94 7.25"/><path fill="#3E4166" d="M526.98 817.76c3.37 2.28 4.37 5.97 7.02 8.9 3.24 3.55 7.37 6.8 11.64 9 9.2 4.8 20.1 4.72 30.44 3.76 3.3-.3 6.68-.7 9.94 0 3.23.7 5.75 2.47 7.3 5.36 1.17 2.16.72 4.7 4.1 4.7 2.2.03 4.22-1.43 5.47-3.25 4.04-5.85 1.5-13.76-3.13-18.52-4.56-4.66-11.55-4.43-16.76-8-3.34-2.26-5.48-5.9-7.24-9.56-2.16-4.48-3.93-9.4-3.32-14.32"/><path fill="#323556" d="M558.7 806.63c-4.4-1.2-11.33-4.72-15.88-4.22-4.03.46-7.78 6.17-10.83 8.66-1.34 1.08-2.75 2.18-3.44 3.74-4.3 9.6 13.76 20.28 20.57 22.76 9.73 3.55 18.72 2.6 28.93 1.76 2.96-.25 6.03-.3 8.9.54 3.18.9 5.36 2.7 6.58 5.8.5 1.22.9 2.6 2 3.3 1.57.98 3.24.1 3.82-1.44.5-1.34.22-2.83-.22-4.18-1.86-5.7-5.9-9-11.33-11.16-3.8-1.53-7.94-2.13-11.8-3.58-2.87-1.08-7.07-3.2-8.22-6.33-1.05-2.85.68-6.12-.02-9.13-.9-3.82-5.3-5.48-9.07-6.5z"/><path fill="#7581CE" d="M464.42 748.8c-6.64 5.6-12.27 12.4-16.42 20-3.9 7.14-6.64 14.88-8.75 22.7-.9 3.4-2.13 7.02-2.6 10.48-.48 3.57.25 6.73-2.6 9.65-.53.55-1.14 1.03-1.63 1.62-5.05 6.17 1.98 12.97 7.17 15.66 24.16 12.56 57.5 9.2 82.9 2.9 30.03-7.46 66.97-22.26 58.55-60.6-.22-1.02-.5-2.06-1.17-2.84-.9-1.05-2.33-1.42-3.6-1.97-4.12-1.8-6.03-6.1-8.78-9.35-3.6-4.26-7.94-8.26-12.1-11.98-25.32-22.72-65.8-17.6-90.98 3.72z"/><path fill="#5053AB" d="M545.1 803.4l1.62-.84c1.04-.56 2.56-1.4 4.4-2.6 1.8-1.27 4.13-2.67 6.22-4.92 1.06-1.1 2.12-2.34 3.1-3.73.98-1.37 1.95-2.88 2.72-4.55 1.56-3.3 2.5-7.36 2.07-11.58-.4-4.2-2.32-8.52-6-11.36-1.8-1.43-3.93-2.54-6.14-3.6-1.12-.52-2.22-1.02-3.38-1.36-1.16-.3-2.35-.46-3.5-.3-2.34.3-4.27 2.04-6.2 3.66-.96.82-1.92 1.66-2.83 2.55-.9.9-1.78 1.82-2.6 2.78-1.65 1.92-3.2 3.94-4.35 6.17-1.17 2.22-2.05 4.6-2.22 7.08-.12 1.22-.1 2.45 0 3.66.07 1.2.27 2.4.62 3.53.33 1.14.8 2.24 1.4 3.23.58 1 1.3 1.92 2.12 2.7 1.6 1.56 3.73 2.6 5.75 2.3.96-.12 1.95-.56 2.85-1.1.92-.56 1.83-1.2 2.63-1.85 3.34-2.66 5.55-6.26 6.7-9.78.07-.2.16-.46.2-.64.06-.23.14-.47.17-.67.1-.4.16-.85.2-1.27.05-.87.07-1.7-.07-2.5-.23-1.57-1.05-2.93-2.33-3.32-1.25-.43-2.57.05-3.58.73-1.03.7-1.8 1.63-2.38 2.5-1.16 1.77-1.55 3.43-1.7 4.53-.1.56-.1 1-.12 1.28v.44h-1.57v-.5c.02-.32.05-.82.15-1.45.2-1.27.66-3.15 2-5.16.33-.5.73-1.02 1.17-1.5.46-.48 1-.96 1.62-1.38.63-.4 1.34-.78 2.17-.98.42-.1.86-.16 1.32-.15.22 0 .48.03.73.07l.28.06.07.02.08.02h.04l.17.07c.9.3 1.78.9 2.37 1.7.6.8.97 1.76 1.17 2.72.2.95.26 1.95.14 2.95-.03.5-.12 1-.24 1.52-.05.28-.12.47-.2.7-.07.3-.15.5-.23.75-1.3 3.8-3.8 7.53-7.3 10.47-.9.73-1.8 1.4-2.83 2-1.04.58-2.2 1.08-3.52 1.23-1.27.14-2.62-.13-3.77-.67-1.14-.5-2.24-1.25-3.13-2.13-.94-.86-1.74-1.88-2.4-3-.67-1.1-1.17-2.3-1.54-3.55-.38-1.24-.6-2.54-.7-3.84-.12-1.3-.07-2.64.2-3.93.52-2.55 1.22-5.12 2.4-7.48 1.18-2.35 2.62-4.6 4.37-6.55.88-.97 1.8-1.9 2.77-2.77.95-.9 1.87-1.8 2.85-2.64.95-.83 1.92-1.72 3.04-2.47 1.1-.76 2.43-1.42 3.86-1.57 1.4-.17 2.8.04 4.06.4 1.28.3 2.5.76 3.65 1.25.57.24 1.14.5 1.7.76.58.27 1.12.6 1.66.9 1.08.64 2.12 1.34 3.1 2.14.97.8 1.8 1.7 2.63 2.63.4.5.75 1 1.1 1.5.32.5.64 1.04.9 1.58 1 2.2 1.56 4.5 1.75 6.74.46 4.5-.36 8.82-1.97 12.42-.8 1.8-1.8 3.42-2.87 4.86-1.1 1.42-2.28 2.64-3.43 3.73-1.16 1.1-2.28 2.05-3.33 2.94-1.05.88-2.08 1.6-3.02 2.24-1.9 1.27-3.44 2.15-4.5 2.74l-1.64.86-.7-1.4zM510.37 769.08c1.4-.3 2.7-.63 4.03-1.03 1.3-.43 2.64-.8 3.88-1.4 1.22-.62 2.37-1.35 3.43-2.2 1.1-.76 2.12-1.64 3.02-2.63.9-.97 1.65-2.05 2.28-3.23.63-1.2 1.1-2.45 1.38-3.75.28-1.3.34-2.62.18-3.9-.18-1.3-.6-2.5-1.4-3.6-.76-1-1.77-1.84-2.98-2.38-1.2-.56-2.57-.73-3.92-.78-1.35-.06-2.73.08-4.08.34-1.36.24-2.67.68-3.95 1.2-1.26.57-2.54 1.14-3.77 1.8-1.22.66-2.45 1.34-3.58 2.16-1.12.83-2.18 1.74-3.27 2.6-1.07.88-2.1 1.8-3.1 2.77l.2-.46c-.03 1.26.42 2.48 1.24 3.44.8.95 1.92 1.66 3.12 2.02l.43.13.5.1c.3.07.62.1.95.15.65.06 1.32.06 2 0 1.35-.07 2.7-.42 4.05-.75 1.37-.34 2.7-.7 3.92-1.18.6-.24 1.2-.56 1.67-.93.53-.4.9-.88 1.2-1.45.3-.55.5-1.16.53-1.74 0-.3-.03-.57-.1-.83l-.06-.16-.1-.23c-.08-.08-.1-.14-.2-.23-.34-.35-.88-.54-1.36-.5-.5.04-.87.3-1.1.7l-1.35-.78c.47-.86 1.44-1.44 2.38-1.46.94-.05 1.87.3 2.54 1 .16.17.34.43.46.66l.1.24c.1.2.1.24.14.37.1.44.16.9.14 1.32-.04.86-.3 1.66-.7 2.37-.2.35-.42.7-.68 1-.23.3-.57.7-.8.9-.64.57-1.3.98-2 1.32-.7.34-1.42.57-2.13.75-.72.2-1.4.34-2.1.5-1.4.3-2.83.57-4.3.7-.75.05-1.5.07-2.26 0-.37-.02-.76-.07-1.16-.14l-.52-.1c-.23-.05-.4-.1-.6-.16-1.47-.53-2.78-1.46-3.74-2.7-.48-.6-.9-1.3-1.18-2.04-.27-.75-.4-1.56-.4-2.36l.02-.3.24-.24c1-1 2.08-1.96 3.18-2.87.56-.45 1.1-.93 1.7-1.32.6-.4 1.26-.7 1.86-1.07 1.2-.76 2.4-1.57 3.6-2.33.62-.37 1.25-.73 1.9-1.07.6-.33 1.26-.68 1.94-.94 1.38-.5 2.8-.84 4.22-1.2 1.42-.33 2.9-.5 4.4-.46 1.48.04 2.96.4 4.42.9.36.13.73.25 1.07.45.33.17.7.33 1 .6.64.4 1.22 1.14 1.66 1.73l.28.45.14.22.07.12c.1.14.06.1.1.18.15.36.34.7.46 1.07.24.74.45 1.48.57 2.23.28 1.5.03 3.02-.3 4.43l-.3 1.06c-.1.34-.24.68-.38 1.02-.25.68-.53 1.36-.85 2-.66 1.3-1.43 2.56-2.4 3.67-.92 1.1-2.02 2.08-3.2 2.93-1.22.8-2.5 1.47-3.83 2.03-1.3.6-2.6 1.2-4 1.62-1.34.44-2.75.8-4.1 1.13l-.35-1.52zM503.56 808.74l1.25.07c.74-.02 1.88-.02 3.3-.37 1.37-.37 3.16-.78 4.78-2.03.83-.57 1.62-1.3 2.37-2.14.77-.8 1.47-1.74 2.05-2.8 1.17-2.07 1.77-4.8 1.62-7.66-.08-1.44-.3-2.9-.7-4.38-.37-1.45-.88-2.92-1.67-4.25-.78-1.34-1.83-2.53-3.12-3.43-.27-.2-.7-.45-1.04-.62-.35-.17-.7-.33-1.1-.47-.76-.24-1.57-.4-2.38-.47-3.27-.27-6.73.5-9.57 2.45-2.88 1.82-5.5 4.15-7.72 6.73-1 1.3-2 2.66-2.53 4.13-.55 1.45-.52 3 .44 3.98.9 1.03 2.42 1.34 3.9 1.44l1.14.07h1.12c.74.03 1.48.04 2.2.02 2.93-.05 5.72-.6 8.07-1.44 1.16-.42 2.15-1.02 2.9-1.72.72-.7 1.18-1.67 1.2-2.56 0-.45-.1-.86-.27-1.2-.1-.2-.2-.37-.3-.5l-.25-.24-.2-.16c-.57-.44-1.32-.62-2-.7-1.36-.08-2.5.2-3.26.36-.77.18-1.18.3-1.18.3l-.4-1.5s.4-.14 1.24-.32c.83-.17 2.06-.47 3.76-.33.84.1 1.84.32 2.77 1.06l.35.32.24.26c.22.26.37.5.52.8.28.56.43 1.22.42 1.87 0 1.32-.46 2.66-1.44 3.73-.93 1.06-2.24 1.72-3.55 2.18-1.32.47-2.7.74-4.1.98-1.44.22-2.92.4-4.45.46-1.52.08-3.12.02-4.7-.2-.82-.1-1.66-.23-2.5-.54-.4-.14-.83-.3-1.23-.55-.2-.12-.4-.26-.6-.42-.15-.1-.36-.32-.5-.5-.67-.68-1.1-1.67-1.17-2.65-.1-1 .12-1.94.42-2.8.3-.88.74-1.68 1.23-2.44.48-.77 1.04-1.47 1.73-2.08.65-.56 1.3-1.16 1.9-1.8l1.84-1.88c1.27-1.22 2.6-2.45 4.16-3.4.77-.44 1.66-.87 2.44-1.2.88-.35 1.7-.67 2.6-.92 1.75-.5 3.6-.7 5.43-.5.9.1 1.8.3 2.68.6.43.13.87.26 1.32.46.47.2.73.32 1.22.6.8.45 1.5 1.06 2.1 1.75.58.68 1.08 1.42 1.5 2.18.78 1.55 1.5 3.07 1.84 4.68.34 1.57.53 3.17.57 4.7.16 3.06-.27 6.04-1.57 8.5-.63 1.22-1.4 2.3-2.3 3.2-.9.84-1.82 1.58-2.77 2.14-.94.57-1.86 1.04-2.7 1.46-.88.4-1.73.67-2.5.86-1.54.4-2.8.42-3.7.46l-1.25-.05.08-1.56zM535.5 810.52l-2.6 1.04c-.42.16-.86.37-1.4.5-.52.14-1.06.36-1.62.64l-1.82.84c-.66.26-1.35.5-2.1.73-1.45.47-3.07.88-4.77 1.32-1.7.46-3.53.84-5.4 1.22-.95.16-1.9.35-2.9.5-.47.06-.96.15-1.46.2-.5.1-.98.2-1.47.28-1.98.4-4.03.48-6.03.9-2.02.27-4.06.35-6.04.7-1 .2-2 .3-2.97.4l-2.9.23c-1.92.07-3.76.37-5.52.24-1.75-.07-3.4 0-4.93-.02-1.54.07-2.94-.14-4.18-.22l-3.23-.06-2.8-.07.1-1.57 2.78.12c.9.05 1.96.08 3.2.1 1.23 0 2.62-.13 4.14-.03l2.35.1c.82.04 1.67.02 2.53.03 1.74-.04 3.58.17 5.47-.07l2.88-.28c.97-.05 1.94-.3 2.95-.2 2.02.14 3.96-.68 5.97-.86 2.03-.06 4-.56 5.96-.85l1.48-.22c.5-.1.96-.26 1.42-.4.93-.3 1.9-.36 2.85-.48.96-.07 1.83-.42 2.74-.55.9-.15 1.8-.24 2.63-.47.84-.23 1.64-.48 2.43-.73.77-.27 1.5-.56 2.22-.82 1.42-.56 2.74-.96 3.9-1.33 1.2-.33 2.12-.9 2.96-1.23l2.57-1.1.6 1.45z"/><g><path fill="none" d="M588.3 778.8l.3-.3"/></g></g><g><path fill="#FFF" d="M1001.47 492.84l.03-.07c.03-.1.13-.36.2-.5s.17-.37.27-.65c.1-.3.2-.64.27-1.02.08-.38.08-.8.05-1.15-.04-.37-.1-.63-.3-.9-.02-.1-.08-.17-.16-.24-.08-.06-.12-.16-.24-.23-.1-.05-.2-.16-.3-.3v-.05c-.08-.02.08.03.06.03l-.07-.04-.14-.05-.26-.1-.26-.1-.18-.02c-.12 0-.23-.06-.37-.04-.3-.05-.54.03-.82.04-.52.1-1.22.32-1.57.94-.33.6-.5 1.3-.53 2 0 .7.12 1.4.3 2l.2.46.03.1v.02l-.06-.15v.02l.03.03.04.06c.05.07.1.2.14.2-.02-.16.13.05.36.1.1.04.22.06.34.1l.35.1c.22.1.47.18.7.24.25.07.48.1.7.12.22 0 .43-.04.6-.1.35-.1.53-.28.57-.36 0-.04.04-.06 0-.08l-.02-.02c-.02-.02 0-.03 0-.03l.02-.33zm2.36.2s0 .2-.03.56c-.02.34-.23.95-.7 1.4-.43.46-1.04.78-1.66.94-.63.18-1.32.28-2.04.15-.36-.07-.7-.2-1.08-.36l-.57-.2c-.2-.07-.4-.14-.6-.26-.2-.1-.4-.2-.62-.38-.18-.1-.5-.45-.7-.77-.08-.13-.1-.17-.14-.27l-.04-.06v-.03h-.02l-.07-.2-.04-.15-.14-.63c-.15-.86-.22-1.75-.14-2.66.1-.92.36-1.86.85-2.75.26-.46.55-.9.92-1.33.38-.4.86-.78 1.42-.98.55-.2 1.14-.26 1.67-.13.27.03.55.14.8.24l.38.16.25.13.25.13c.04.03.08.05.13.06h.08l.1.04h.05c.23.04.46.1.63.26.2.1.37.3.53.45.16.16.3.34.42.54.5.77.73 1.56 1 2.3.1.36.12.73.07 1.05-.03.34-.1.63-.16.9-.13.56-.3 1-.44 1.37-.15.36-.3.63-.38.8 0 .05.03-.08 0-.1 0 .05-.02.07-.02.07l.03-.35z"/></g><g><path fill="#FFF" d="M1000.48 531.84l.02-.07.2-.5c.08-.14.17-.37.27-.65.1-.3.2-.64.28-1.02.07-.38.07-.8.05-1.15-.04-.37-.1-.63-.28-.9-.04-.1-.1-.17-.18-.24-.07-.06-.12-.16-.24-.23-.1-.05-.2-.16-.28-.3l-.02-.03c-.08-.04.08.02.06 0l-.07-.03-.13-.05-.26-.1-.25-.1-.18-.02c-.13 0-.24-.06-.38-.04-.3-.04-.54.03-.82.05-.5.08-1.2.3-1.57.93-.32.6-.5 1.3-.52 2 0 .7.1 1.4.3 2l.18.46.04.1v.02c-.02-.07.07.16-.05-.15v.02l.03.03.03.06c.05.07.1.2.14.2 0-.16.13.05.37.1.1.04.23.06.35.1l.35.1c.23.1.48.18.7.24.25.07.48.1.7.12.22 0 .44-.04.6-.1.35-.1.53-.28.58-.36 0-.04.03-.06 0-.08l-.02-.02c-.03-.02 0-.03 0-.03l.02-.33zm2.36.2s0 .2-.03.56c0 .34-.23.95-.68 1.4-.45.46-1.06.78-1.68.94-.62.18-1.3.28-2.03.15-.35-.07-.7-.2-1.08-.36-.18-.06-.37-.12-.56-.2-.2-.07-.4-.14-.6-.26-.2-.1-.4-.2-.63-.38-.17-.1-.5-.45-.7-.77-.08-.13-.1-.17-.13-.27l-.03-.06-.02-.03-.07-.2-.04-.15-.15-.63c-.15-.86-.22-1.75-.13-2.66.08-.92.35-1.86.85-2.75.24-.46.53-.9.9-1.33.4-.4.87-.78 1.42-.98.55-.2 1.15-.26 1.68-.13.26.03.54.14.8.24l.37.16.24.14.25.13c.03.03.07.05.1.06h.08l.1.04h.05c.24.04.46.1.64.26.2.1.37.3.53.45.16.16.3.34.43.54.5.77.72 1.56 1 2.3.1.36.12.73.07 1.05-.03.34-.1.63-.15.9-.13.56-.3 1-.45 1.37-.15.36-.3.63-.38.8 0 .05.03-.08.02-.1l-.03.07.04-.35z"/></g><g><path fill="#FFF" d="M981.72 524.67s.43-.6 1.2-1.62c.37-.52.84-1.14 1.4-1.85.54-.72 1.13-1.55 1.87-2.37l1.1-1.3 1.3-1.33 1.35-1.4c.23-.24.5-.44.8-.63.27-.2.48-.47.73-.7.97-1 1.92-2.05 3-3.02 1.04-1 2.3-1.82 3.3-2.88 2.07-2.07 4.1-4.2 6-6.18.98-1 1.93-1.92 2.86-2.78.46-.44.9-.86 1.37-1.23.5-.37.96-.7 1.4-1 .92-.65 1.73-1.24 2.4-1.84.67-.6 1.26-1.1 1.76-1.5.5-.4.87-.75 1.13-.98l.38-.35c.5-.44 1.25-.4 1.7.1.43.5.38 1.25-.1 1.7h-.03l-.1.1-1.55 1.28-1.74 1.5c-.67.57-1.4 1.24-2.3 1.88-.44.3-.9.63-1.4.96-.46.35-.93.74-1.4 1.15-.95.8-1.92 1.68-2.94 2.58-2.03 1.82-4.1 3.86-6.12 5.94-1 1.05-1.84 2.25-2.85 3.26-.97 1.05-2.14 1.86-3.2 2.74-.25.23-.53.43-.7.72-.2.3-.4.56-.64.77-.46.47-.95.9-1.4 1.32-.48.4-.9.85-1.3 1.28-.4.44-.7.93-.97 1.4-.28.48-.6.9-.92 1.28-.3.4-.6.76-.86 1.1l-1.4 1.82c-.78 1-1.25 1.57-1.25 1.57-.44.5-1.2.57-1.7.15-.48-.4-.56-1.13-.2-1.63l.02-.03z"/></g></svg>