<svg xmlns="http://www.w3.org/2000/svg" viewBox="0 0 1222 1000"><g><g><path fill="#E0E3ED" d="M.5 791.5l49.8.28c7.93-.1 16.7-.35 26.26-.1 4.77.07 9.74.23 14.9.22 5.16.02 10.5-.1 16.02-.14l35.16-.38 19.04-.2c6.5 0 13.15.16 19.95.22l10.3.12c3.46 0 6.96-.07 10.5-.1 7.06-.08 14.26-.2 21.58-.23l45.36.47c15.57 0 31.56.15 47.9-.2 4.1-.03 8.2-.13 12.32-.03l12.45.33c4.17.12 8.36.02 12.57-.14 4.2-.13 8.44-.07 12.68-.06l51.72.2h26.37c4.42-.02 8.84 0 13.28.03 4.44.05 8.9.2 13.35.28l13.4.23c2.23.04 4.47 0 6.7-.02l6.74-.15c8.98-.3 17.98-.03 27 .07s18.06.3 27.1.3l27.17-.13c9.06-.1 18.12-.04 27.17-.04s18.08.03 27.1.04l27 .14c8.98.1 17.93-.12 26.85-.2 17.83-.3 35.52-.45 53-.6 8.73-.05 17.42-.1 26.04-.13 4.3-.03 8.6.07 12.9.1l12.77.16c4.25.1 8.48.08 12.7.1l12.55-.1c8.34-.1 16.6-.2 24.78-.28l12.2-.14c4.03-.05 8.05-.1 12.04-.03 8 .03 15.87.3 23.66.14 15.56-.1 30.7-.37 45.35.15 14.66.5 28.8-.2 42.4.2 13.58.52 26.6-.6 38.98-.14 6.2.07 12.22.24 18.08.26l17.08.08 16.02-.17 7.6-.06 7.3.1c9.55.07 18.32.25 26.25.06l21.16-.33 15.64-.06 13.02-.06v3.2h-13.02c-4.24 0-9.48 0-15.64-.02l-21.15-.24c-7.9-.16-16.7.1-26.24.24-2.4.05-4.82.1-7.3.13-2.5 0-5.02-.02-7.6-.04-5.16-.06-10.5-.1-16.02-.17-11.04-.05-22.78.2-35.16.46-6.2.1-12.55.16-19.05-.18-6.5-.34-13.15-.36-19.94-.12-13.6.52-27.74-.58-42.4-.12-14.64.54-29.78.16-45.34 0-1.95 0-3.9-.04-5.86-.06-1.96-.02-3.92.03-5.9.04l-11.9.12c-4 .07-8 .03-12.05-.02l-12.2-.1-24.77-.2-12.56-.06c-4.2.06-8.44.07-12.7.2l-12.77.3c-4.28.06-8.58.15-12.9.15h-26.04c-17.46-.1-35.15-.16-52.98-.6-17.83-.58-35.8-.12-53.84.1-18.05.18-36.16.36-54.27.2-9.05-.1-18.1-.43-27.15-.4-2.26 0-4.53 0-6.8.05l-6.77.1-13.54.4c-4.5.17-9.02.23-13.52.28-2.25.05-4.5.02-6.74-.03-2.25 0-4.5-.15-6.74-.26-8.98-.6-17.93-.47-26.84-.06-4.46.2-8.9.34-13.35.4-4.44.03-8.87.04-13.28-.02l-26.37-.24-51.72-.14c-4.24-.02-8.47.02-12.68-.15-4.2-.2-8.4-.34-12.57-.25-4.17.04-8.32.2-12.45.26-4.13.07-8.23-.03-12.32-.08-16.34-.37-32.33-.37-47.9-.46l-45.35.07-21.58-.07h-10.5c-3.47.06-6.9.1-10.3.17-6.8.1-13.44.18-19.94.26-6.5.02-12.85-.06-19.04-.1l-35.16-.22c-5.52 0-10.87-.1-16.02-.05l-14.9.22c-9.56.26-18.33.06-26.25-.03l-49.8.37v-3.2z"/></g><g><g opacity=".5" fill="#E8EAF2"><path d="M1211.86 628.43c-32.54 7.04-62.63 3.44-95.78 3.44H848.32c-73.8 0-147.58.03-221.36 0-26.15 0-41.5 6.4-44.95-20.96-1.73-13.8 2.47-27.7 2.46-41.47v-97.26V348.1c0-18.67-10.44-93.08 5.76-102.95 3.3-2 7.3-2.57 11.15-3.1 60.65-8.1 126.64-1.63 187.86-1.63h229.75c34.7 0 69.37-.48 104.05-.8 15.06-.12 76.57-9.5 85.1 2.33 3.48 4.82 3.7 11.07 3.8 16.93.84 47.53 5.65 95.55 5.65 142.55v137.82c0 31.1 5.98 57.33-.86 88.05-1.63.4-3.25.78-4.86 1.13z"/><path d="M1164.8 634.3c-7.87 0-15.77-.23-23.82-.46-8.08-.23-16.44-.47-24.9-.47H764.47c-45.84.02-91.68.02-137.5 0h-.05c-4.44 0-8.5.2-12.4.37-18.65.84-30.97 1.4-34-22.64-1.04-8.3 0-16.64 1.02-24.7.7-5.6 1.43-11.36 1.42-16.97V348.1c0-4.1-.53-11.2-1.14-19.4-2.9-38.8-4.72-77.32 7.62-84.83 3.62-2.2 7.93-2.8 11.74-3.3 42.28-5.65 87.42-4.23 131.07-2.85 18.85.6 38.34 1.2 56.98 1.2h229.75c25.36 0 51.14-.26 76.08-.5l27.95-.3c3.5-.02 9.8-.58 17.06-1.22 32.82-2.92 62.8-4.8 69.28 4.17 3.88 5.37 4 12.26 4.1 17.8.37 21.54 1.6 43.54 2.76 64.83 1.42 25.58 2.88 52.03 2.88 77.73v137.82c0 10.04.63 19.65 1.24 28.94 1.3 19.78 2.53 38.46-2.14 59.43l-.2.9-.9.23c-1.63.4-3.28.78-4.9 1.13-16.23 3.5-31.73 4.4-47.38 4.4zm-316.48-3.93h267.76c8.5 0 16.88.24 24.98.47 23.9.68 46.45 1.32 70.48-3.88 1.3-.28 2.6-.58 3.9-.9 4.35-20.18 3.15-38.4 1.9-57.67-.63-9.35-1.26-19-1.26-29.15V401.43c0-25.62-1.46-52.03-2.87-77.57-1.17-21.3-2.4-43.35-2.76-64.95-.1-5.1-.2-11.47-3.53-16.07-6-8.34-45.4-4.83-66.57-2.95-7.64.68-13.67 1.22-17.3 1.25-9.3.1-18.63.18-27.94.27-24.95.26-50.75.52-76.12.52H789.23c-18.7 0-38.2-.6-57.08-1.2-43.53-1.38-88.54-2.8-130.58 2.83-3.5.46-7.5 1-10.57 2.88-11.8 7.2-8.3 54.06-6.2 82.06.65 8.6 1.16 15.38 1.16 19.6V569.44c0 5.8-.73 11.66-1.44 17.33-1 7.9-2.02 16.05-1.02 23.96 2.68 21.3 12.1 20.87 30.88 20.02 3.77-.17 8.03-.36 12.54-.36H848.32z"/></g><g><path fill="#D0D4E5" d="M1191.53 612.2c-.2 0-.4-.02-.6-.04-1.33-.16-2.48-.8-3.13-1.78-.6-.9-.74-2.24.2-2.95.65-.5 1.57-.22 2.05.3.4.47.42 1.05.04 1.46l-.74-.7c0-.03-.1-.18-.3-.27-.15-.06-.34-.1-.46 0-.43.32-.32 1.08.03 1.6.48.7 1.4 1.2 2.42 1.33 1.08.13 2.1-.17 2.78-.8.65-.6.96-1.48.86-2.44-.12-.98-.65-1.84-1.44-2.3l.5-.87c1.07.63 1.78 1.77 1.92 3.06.14 1.3-.3 2.5-1.17 3.3-.74.7-1.83 1.1-2.97 1.1z"/></g><g><path fill="#D0D4E5" d="M1137.8 614.75c-1.18 0-2.27-.42-3-1.15-.78-.75-1.17-1.83-1.1-2.96.1-1.15.64-2.18 1.53-2.83l.6.82c-.66.47-1.06 1.24-1.13 2.1-.06.83.23 1.62.8 2.17.56.55 1.43.88 2.36.84.93 0 1.78-.36 2.33-.93.7-.5.77-1.3.63-1.88-.14-.6-.6-1.37-1.48-1.5l.17-1c1.1.2 2 1.08 2.3 2.27.25 1.13-.12 2.23-.97 2.85-.66.7-1.77 1.17-2.97 1.2h-.1z"/></g><g><path fill="#D0D4E5" d="M1086.13 615.97c-1.58 0-2.9-1.08-3.57-2.28-.83-1.52-.7-3.12.33-4.2l.7.7c-.85.9-.64 2.13-.16 3 .6 1.06 1.8 2 3.2 1.7 1.42-.28 2.02-1.58 2.1-2.6.1-1-.26-2.34-1.54-2.85l.37-.93c1.47.58 2.32 2.1 2.17 3.85-.15 1.8-1.3 3.2-2.88 3.52-.25.04-.5.07-.73.07z"/></g><g><path fill="#D0D4E5" d="M1190.2 573.3h-.06c-.9-.12-1.53-.65-1.8-1.5-.37-1.1.02-2.6.9-3.45.68-.66 1.57-.85 2.45-.54l-.35.95c-.52-.2-1-.08-1.4.32-.6.58-.9 1.67-.66 2.42.13.45.45.72.93.8.88-.1 1.7-.67 2.18-1.5.45-.75.54-1.58.24-2.28l.93-.4c.4 1 .3 2.16-.3 3.2-.66 1.1-1.78 1.85-3 2h-.06z"/></g><g><path fill="#D0D4E5" d="M1135.8 575.58c-.07 0-.13 0-.18-.03-1.23-.44-2-1.66-1.98-3.1.03-1.45.85-2.65 2.1-3.06l.3.95c-1 .33-1.4 1.34-1.4 2.1-.02.75.3 1.73 1.22 2.12 3.2-.3 6-2.74 6.57-5.66-.67-.3-1.5-.35-2.3-.13-.88.23-1.58.75-1.93 1.42l-.9-.48c.5-.9 1.42-1.6 2.56-1.92 1.2-.33 2.43-.17 3.38.4.17.12.26.3.24.5-.48 3.56-3.84 6.58-7.65 6.88h-.04z"/></g><g><path fill="#D0D4E5" d="M1084.6 575.7c-.8 0-1.63-.22-2.34-.75-.07-.05-.12-.12-.16-.2-.48-1-.35-2.23.34-3.28.76-1.16 2.04-1.85 3.32-1.8l-.04 1c-.9-.04-1.87.48-2.45 1.35-.47.72-.58 1.53-.3 2.2 1.26.85 2.96.46 4.1-.33.95-.66 1.83-1.82 1.47-3.13l.96-.27c.42 1.52-.3 3.14-1.86 4.22-.85.58-1.94.98-3.04.98z"/></g><g><path fill="#D0D4E5" d="M1191.53 533.78c-.2 0-.4 0-.6-.03-1.33-.16-2.48-.8-3.13-1.77-.6-.9-.75-2.25.2-2.96.65-.5 1.57-.22 2.05.32.4.45.42 1.03.04 1.44l-.74-.68v-.02c0-.02-.1-.17-.3-.26-.15-.05-.34-.08-.46 0-.43.32-.32 1.08.03 1.6.48.72 1.4 1.22 2.42 1.34 1.08.12 2.1-.18 2.78-.8.65-.6.96-1.5.86-2.45-.12-.97-.65-1.83-1.44-2.3l.5-.86c1.07.63 1.78 1.77 1.92 3.06.14 1.28-.3 2.48-1.17 3.3-.74.7-1.83 1.08-2.97 1.08z"/></g><g><path fill="#D0D4E5" d="M1137.8 536.34c-1.18 0-2.27-.42-3-1.14-.78-.76-1.17-1.84-1.1-2.97.1-1.15.64-2.18 1.53-2.83l.6.8c-.66.48-1.06 1.25-1.13 2.1-.06.84.23 1.64.8 2.18.56.56 1.4.87 2.36.86.93-.02 1.78-.36 2.33-.94.7-.52.77-1.3.63-1.9-.14-.6-.6-1.35-1.48-1.5l.17-1c1.1.2 2 1.1 2.3 2.3.25 1.13-.12 2.22-.97 2.84-.66.72-1.77 1.17-2.97 1.2h-.1z"/></g><g><path fill="#D0D4E5" d="M1086.13 537.56c-1.58 0-2.9-1.08-3.57-2.28-.83-1.5-.7-3.1.33-4.2l.7.7c-.85.9-.64 2.15-.16 3.02.6 1.06 1.8 2 3.2 1.7 1.42-.3 2.02-1.6 2.1-2.62.1-1-.26-2.33-1.54-2.84l.37-.93c1.47.6 2.32 2.1 2.17 3.86-.15 1.8-1.3 3.2-2.88 3.52-.25.05-.5.08-.73.08z"/></g><g><path fill="#D0D4E5" d="M1190.2 494.9h-.06c-.9-.13-1.53-.66-1.8-1.5-.37-1.12.02-2.6.9-3.45.68-.66 1.57-.86 2.45-.55l-.35.94c-.52-.2-1-.08-1.4.32-.6.6-.9 1.68-.66 2.43.13.44.45.7.93.8.88-.12 1.7-.68 2.18-1.5.45-.76.54-1.6.24-2.3l.93-.37c.4 1 .3 2.15-.3 3.17-.66 1.12-1.78 1.87-3 2h-.06z"/></g><g><path fill="#D0D4E5" d="M1135.8 497.18c-.07 0-.13 0-.18-.03-1.23-.45-2-1.67-1.98-3.1.03-1.46.85-2.66 2.1-3.06l.3.94c-1 .33-1.4 1.34-1.4 2.12-.02.73.3 1.7 1.22 2.1 3.2-.3 6-2.74 6.57-5.65-.67-.3-1.5-.36-2.3-.14-.88.24-1.58.75-1.93 1.42l-.9-.47c.5-.9 1.42-1.6 2.56-1.9 1.2-.33 2.43-.18 3.38.4.17.1.26.3.24.5-.48 3.55-3.84 6.57-7.65 6.88h-.04z"/></g><g><path fill="#D0D4E5" d="M1084.6 497.3c-.8 0-1.63-.23-2.34-.76-.07-.05-.12-.1-.16-.2-.48-1-.35-2.22.34-3.28.76-1.16 2.04-1.86 3.32-1.8l-.03 1c-.96-.03-1.88.48-2.46 1.35-.47.73-.58 1.54-.3 2.2 1.26.87 2.96.47 4.1-.3.95-.67 1.83-1.83 1.47-3.14l.96-.27c.42 1.5-.3 3.13-1.86 4.2-.85.6-1.94 1-3.04 1z"/></g><g><path fill="#D0D4E5" d="M1031.08 612.2c-.2 0-.4-.02-.6-.04-1.33-.16-2.47-.8-3.13-1.78-.6-.9-.74-2.24.2-2.95.66-.5 1.58-.22 2.06.3.4.47.43 1.05.05 1.46l-.74-.7h.03c0-.03-.1-.18-.33-.27-.14-.06-.33-.1-.45 0-.42.32-.3 1.08.03 1.6.5.7 1.4 1.2 2.43 1.33 1.08.13 2.12-.17 2.8-.8.64-.6.95-1.48.85-2.44-.1-.98-.64-1.84-1.43-2.3l.5-.87c1.06.63 1.78 1.77 1.92 3.06.14 1.3-.3 2.5-1.17 3.3-.75.7-1.84 1.1-3 1.1z"/></g><g><path fill="#D0D4E5" d="M977.34 614.75c-1.17 0-2.25-.42-3-1.15-.76-.75-1.16-1.83-1.08-2.96.1-1.15.64-2.18 1.52-2.83l.6.82c-.65.47-1.06 1.24-1.12 2.1-.06.83.23 1.62.78 2.17.58.55 1.46.88 2.38.84.93 0 1.78-.36 2.33-.93.7-.5.78-1.3.64-1.88-.15-.6-.62-1.37-1.5-1.5l.18-1c1.1.2 2 1.08 2.28 2.27.27 1.13-.1 2.23-.96 2.85-.66.7-1.76 1.17-2.96 1.2h-.1z"/></g><g><path fill="#D0D4E5" d="M925.68 615.97c-1.58 0-2.9-1.08-3.56-2.28-.83-1.52-.7-3.12.33-4.2l.72.7c-.86.9-.65 2.13-.17 3 .58 1.06 1.8 2 3.2 1.7 1.4-.28 2-1.58 2.1-2.6.1-1-.26-2.34-1.54-2.85l.36-.93c1.48.58 2.33 2.1 2.18 3.85-.16 1.8-1.3 3.2-2.9 3.52-.24.04-.48.07-.72.07z"/></g><g><path fill="#D0D4E5" d="M1029.77 573.3h-.07c-.9-.12-1.54-.65-1.8-1.5-.37-1.1.02-2.6.9-3.45.68-.66 1.57-.85 2.44-.54l-.34.95c-.52-.2-1-.08-1.4.32-.6.58-.9 1.67-.66 2.42.15.45.46.72.94.8.88-.1 1.7-.67 2.18-1.5.44-.75.53-1.58.24-2.28l.92-.4c.4 1 .3 2.16-.3 3.2-.66 1.1-1.77 1.85-3 2h-.05z"/></g><g><path fill="#D0D4E5" d="M975.34 575.58c-.06 0-.1 0-.17-.03-1.23-.44-2-1.66-1.98-3.1.02-1.45.85-2.65 2.1-3.06l.3.95c-1 .33-1.4 1.34-1.4 2.1-.02.75.3 1.73 1.22 2.12 3.2-.3 6-2.74 6.57-5.66-.68-.3-1.52-.35-2.32-.13-.87.23-1.57.75-1.93 1.42l-.88-.48c.48-.9 1.4-1.6 2.55-1.92 1.2-.33 2.43-.17 3.38.4.17.12.26.3.23.5-.48 3.56-3.84 6.58-7.65 6.88h-.04z"/></g><g><path fill="#D0D4E5" d="M924.16 575.7c-.82 0-1.63-.22-2.35-.75-.05-.05-.1-.12-.14-.2-.48-1-.36-2.23.33-3.28.76-1.16 2.03-1.85 3.32-1.8l-.04 1c-.9-.04-1.88.48-2.45 1.35-.47.72-.6 1.53-.32 2.2 1.28.85 2.98.46 4.12-.33.95-.66 1.84-1.82 1.47-3.13l.96-.27c.42 1.52-.3 3.14-1.87 4.22-.85.58-1.95.98-3.04.98z"/></g><g><path fill="#D0D4E5" d="M1031.08 533.78c-.2 0-.4 0-.6-.03-1.33-.16-2.47-.8-3.13-1.77-.6-.9-.74-2.25.2-2.96.66-.5 1.58-.22 2.06.32.4.45.43 1.03.05 1.44l-.74-.68c.03 0 .03-.02.03-.02 0-.02-.1-.17-.33-.26-.14-.05-.33-.08-.45 0-.42.32-.3 1.08.03 1.6.5.72 1.4 1.22 2.43 1.34 1.08.12 2.12-.18 2.8-.8.64-.6.95-1.5.85-2.45-.1-.97-.64-1.83-1.43-2.3l.5-.86c1.06.63 1.78 1.77 1.92 3.06.14 1.28-.3 2.48-1.17 3.3-.75.7-1.84 1.08-3 1.08z"/></g><g><path fill="#D0D4E5" d="M977.34 536.34c-1.17 0-2.25-.42-3-1.14-.76-.76-1.16-1.84-1.08-2.97.1-1.15.64-2.18 1.52-2.83l.6.8c-.65.48-1.06 1.25-1.12 2.1-.06.84.23 1.64.78 2.18.58.56 1.43.87 2.38.86.93-.02 1.78-.36 2.33-.94.7-.52.78-1.3.64-1.9-.15-.6-.62-1.35-1.5-1.5l.18-1c1.1.2 2 1.1 2.28 2.3.27 1.13-.1 2.22-.96 2.84-.65.72-1.76 1.17-2.96 1.2h-.1z"/></g><g><path fill="#D0D4E5" d="M925.68 537.56c-1.58 0-2.9-1.08-3.56-2.28-.83-1.5-.7-3.1.33-4.2l.72.7c-.86.9-.65 2.15-.17 3.02.58 1.06 1.8 2 3.2 1.7 1.4-.3 2-1.6 2.1-2.62.1-1-.26-2.33-1.54-2.84l.36-.93c1.48.6 2.33 2.1 2.18 3.86-.16 1.8-1.3 3.2-2.9 3.52-.24.05-.48.08-.72.08z"/></g><g><path fill="#D0D4E5" d="M1029.77 494.9h-.07c-.9-.13-1.54-.66-1.8-1.5-.37-1.12.02-2.6.9-3.45.68-.66 1.57-.86 2.44-.55l-.34.94c-.52-.2-1-.08-1.4.32-.6.6-.9 1.68-.66 2.43.15.44.46.7.94.8.88-.12 1.7-.68 2.18-1.5.44-.76.53-1.6.24-2.3l.92-.37c.42 1 .3 2.15-.3 3.17-.66 1.12-1.77 1.87-3 2h-.05z"/></g><g><path fill="#D0D4E5" d="M975.34 497.18c-.06 0-.1 0-.17-.03-1.23-.45-2-1.67-1.98-3.1.02-1.46.85-2.66 2.1-3.06l.3.94c-1 .33-1.4 1.35-1.4 2.12-.02.73.3 1.7 1.22 2.1 3.2-.3 6-2.74 6.57-5.66-.68-.3-1.52-.36-2.32-.14-.87.24-1.57.75-1.93 1.42l-.88-.47c.48-.9 1.4-1.6 2.55-1.9 1.2-.33 2.43-.18 3.38.4.17.1.26.3.23.5-.48 3.55-3.84 6.57-7.65 6.87h-.04z"/></g><g><path fill="#D0D4E5" d="M924.16 497.3c-.82 0-1.63-.23-2.35-.76-.05-.05-.1-.1-.14-.2-.48-1-.36-2.22.33-3.28.75-1.16 2-1.86 3.32-1.8l-.04 1c-.96-.03-1.88.48-2.45 1.35-.47.73-.6 1.54-.32 2.2 1.28.87 2.98.47 4.12-.3.95-.67 1.84-1.83 1.47-3.14l.96-.27c.42 1.5-.3 3.13-1.87 4.2-.85.6-1.95 1-3.04 1z"/></g><g><path fill="#D0D4E5" d="M1191.53 457.83c-.2 0-.4-.02-.6-.04-1.33-.16-2.48-.8-3.13-1.78-.6-.9-.74-2.25.2-2.95.65-.5 1.57-.23 2.05.3.4.46.43 1.04.04 1.45l-.74-.68v-.02c0-.02-.1-.16-.3-.25-.15-.06-.34-.1-.46 0-.43.32-.32 1.07.03 1.6.48.7 1.4 1.2 2.42 1.33 1.08.12 2.1-.17 2.78-.8.65-.6.96-1.5.86-2.45-.1-.98-.65-1.84-1.44-2.3l.5-.86c1.07.6 1.78 1.75 1.92 3.04.14 1.28-.3 2.48-1.17 3.3-.74.7-1.83 1.1-2.97 1.1z"/></g><g><path fill="#D0D4E5" d="M1137.8 460.38c-1.18 0-2.27-.4-3-1.14-.78-.75-1.17-1.83-1.1-2.97.1-1.14.64-2.18 1.53-2.83l.6.8c-.66.5-1.06 1.25-1.13 2.1-.06.84.23 1.64.8 2.18.56.56 1.43.9 2.36.86.93-.02 1.78-.36 2.33-.94.7-.52.77-1.3.63-1.88-.14-.6-.6-1.37-1.48-1.52l.17-1c1.1.2 2 1.1 2.3 2.3.25 1.13-.12 2.22-.97 2.85-.66.7-1.77 1.16-2.97 1.18h-.1z"/></g><g><path fill="#D0D4E5" d="M1086.13 461.6c-1.58 0-2.9-1.08-3.57-2.28-.83-1.5-.7-3.1.33-4.2l.7.7c-.85.9-.64 2.15-.16 3.02.6 1.06 1.8 2 3.2 1.7 1.42-.3 2.02-1.6 2.1-2.62.1-1-.26-2.33-1.54-2.84l.37-.93c1.47.58 2.32 2.1 2.17 3.86-.15 1.8-1.3 3.2-2.88 3.53-.25.05-.5.07-.73.07z"/></g><g><path fill="#D0D4E5" d="M1190.2 420.17h-.06c-.9-.13-1.53-.67-1.8-1.5-.37-1.12.02-2.6.9-3.46.68-.65 1.57-.85 2.45-.53l-.35.94c-.52-.18-1-.07-1.4.33-.6.6-.9 1.67-.66 2.43.13.45.45.72.93.8.88-.1 1.7-.67 2.18-1.5.45-.75.54-1.58.24-2.28l.93-.38c.4 1 .3 2.14-.3 3.17-.66 1.12-1.78 1.86-3 2h-.06z"/></g><g><path fill="#D0D4E5" d="M1135.8 422.44c-.07 0-.13 0-.18-.03-1.23-.44-2-1.66-1.98-3.1.03-1.44.85-2.64 2.1-3.05l.3.95c-1 .33-1.4 1.35-1.4 2.12-.02.74.3 1.72 1.22 2.1 3.2-.3 6-2.73 6.57-5.65-.67-.3-1.5-.36-2.3-.14-.88.23-1.58.75-1.93 1.42l-.9-.47c.5-.9 1.42-1.6 2.56-1.92 1.2-.33 2.43-.18 3.38.4.17.12.26.3.24.5-.48 3.56-3.84 6.58-7.65 6.88h-.04z"/></g><g><path fill="#D0D4E5" d="M1084.6 422.56c-.8 0-1.63-.22-2.34-.75-.07-.04-.12-.1-.16-.18-.48-1-.35-2.24.34-3.3.76-1.15 2.04-1.85 3.32-1.8l-.04 1c-.9-.03-1.87.5-2.45 1.36-.47.72-.58 1.53-.3 2.2 1.26.85 2.95.46 4.1-.33.95-.65 1.83-1.8 1.47-3.12l.96-.27c.42 1.52-.3 3.14-1.87 4.22-.84.58-1.93.98-3.03.98z"/></g><g><path fill="#D0D4E5" d="M1191.53 380.64c-.2 0-.4 0-.6-.03-1.33-.15-2.48-.8-3.13-1.77-.6-.9-.74-2.24.2-2.95.65-.5 1.57-.22 2.05.3.4.47.43 1.05.04 1.46l-.74-.68v-.02c0-.02-.1-.17-.3-.26-.15-.06-.34-.1-.46 0-.43.32-.32 1.08.03 1.6.48.7 1.4 1.22 2.42 1.34 1.08.12 2.1-.18 2.78-.8.65-.6.96-1.5.86-2.45-.1-.98-.65-1.84-1.44-2.3l.5-.87c1.07.63 1.78 1.77 1.92 3.06.14 1.28-.3 2.48-1.17 3.3-.74.7-1.83 1.08-2.97 1.08z"/></g><g><path fill="#D0D4E5" d="M1137.8 383.2c-1.18 0-2.27-.42-3-1.15-.78-.75-1.17-1.83-1.1-2.96.1-1.16.64-2.2 1.53-2.84l.6.8c-.66.48-1.06 1.25-1.13 2.1-.06.84.23 1.63.8 2.18.56.56 1.4.88 2.36.86.93-.02 1.78-.37 2.33-.95.7-.5.77-1.3.63-1.88-.14-.6-.6-1.36-1.48-1.5l.17-1c1.1.2 2 1.08 2.3 2.28.25 1.14-.12 2.23-.97 2.85-.66.72-1.77 1.17-2.97 1.2h-.1z"/></g><g><path fill="#D0D4E5" d="M1086.13 384.42c-1.58 0-2.9-1.08-3.57-2.28-.83-1.5-.7-3.1.33-4.2l.7.7c-.85.9-.64 2.15-.16 3 .6 1.07 1.8 2.02 3.2 1.72 1.42-.3 2.02-1.6 2.1-2.62.1-1-.26-2.34-1.54-2.84l.37-.93c1.47.58 2.32 2.1 2.17 3.85-.15 1.8-1.3 3.2-2.88 3.52-.25.06-.5.08-.73.08z"/></g><g><path fill="#D0D4E5" d="M1190.2 339.32h-.06c-.9-.14-1.53-.67-1.8-1.52-.37-1.1.02-2.6.9-3.45.68-.66 1.57-.86 2.45-.54l-.35.95c-.52-.2-1-.08-1.4.32-.6.6-.9 1.67-.66 2.43.13.45.45.72.93.8.88-.1 1.7-.67 2.18-1.5.45-.75.54-1.58.24-2.28l.93-.38c.4 1 .3 2.14-.3 3.17-.66 1.13-1.78 1.87-3 2l-.06.02z"/></g><g><path fill="#D0D4E5" d="M1135.8 341.58c-.07 0-.13 0-.18-.03-1.23-.44-2-1.66-1.98-3.1.03-1.45.85-2.65 2.1-3.06l.3.95c-1 .33-1.4 1.34-1.4 2.1-.02.75.3 1.73 1.22 2.13 3.2-.3 6-2.75 6.57-5.67-.67-.3-1.5-.35-2.3-.13-.88.23-1.58.75-1.93 1.42l-.9-.48c.5-.9 1.42-1.6 2.56-1.92 1.2-.32 2.43-.17 3.38.42.17.1.26.3.24.5-.48 3.54-3.84 6.56-7.65 6.86h-.04z"/></g><g><path fill="#D0D4E5" d="M1084.6 341.7c-.8 0-1.63-.22-2.34-.75-.07-.05-.12-.1-.16-.2-.48-1-.35-2.22.34-3.28.76-1.16 2.04-1.85 3.32-1.8l-.04 1c-.9-.04-1.87.48-2.45 1.35-.47.72-.58 1.53-.3 2.2 1.26.85 2.96.46 4.1-.32.95-.66 1.83-1.82 1.47-3.13l.96-.27c.42 1.52-.3 3.14-1.87 4.22-.84.58-1.93.98-3.03.98z"/></g><g><path fill="#D0D4E5" d="M1031.08 457.83c-.2 0-.4-.02-.6-.04-1.33-.16-2.47-.8-3.13-1.78-.6-.9-.74-2.25.2-2.95.66-.5 1.58-.23 2.06.3.4.46.43 1.04.05 1.45l-.74-.68c.03 0 .03-.02.03-.02 0-.02-.1-.16-.33-.25-.14-.06-.33-.1-.45 0-.42.32-.3 1.07.03 1.6.5.7 1.4 1.2 2.43 1.33 1.08.12 2.12-.17 2.8-.8.64-.6.95-1.5.85-2.45-.1-.98-.64-1.84-1.43-2.3l.5-.86c1.06.6 1.78 1.75 1.92 3.04.14 1.28-.3 2.48-1.17 3.3-.75.7-1.84 1.1-3 1.1z"/></g><g><path fill="#D0D4E5" d="M977.34 460.38c-1.17 0-2.25-.4-3-1.14-.76-.75-1.16-1.83-1.08-2.97.1-1.14.64-2.18 1.52-2.83l.6.8c-.65.5-1.06 1.25-1.12 2.1-.06.84.23 1.64.78 2.18.58.56 1.46.9 2.38.86.93-.02 1.78-.36 2.33-.94.7-.52.78-1.3.64-1.88-.15-.6-.62-1.37-1.5-1.52l.18-1c1.1.2 2 1.1 2.28 2.3.27 1.13-.1 2.22-.96 2.85-.66.7-1.76 1.16-2.96 1.18h-.1z"/></g><g><path fill="#D0D4E5" d="M925.68 461.6c-1.58 0-2.9-1.08-3.56-2.28-.83-1.5-.7-3.1.33-4.2l.72.7c-.86.9-.65 2.15-.17 3.02.58 1.06 1.8 2 3.2 1.7 1.4-.3 2-1.6 2.1-2.62.1-1-.26-2.33-1.54-2.84l.36-.93c1.48.58 2.33 2.1 2.18 3.85-.16 1.8-1.3 3.2-2.9 3.52-.24.06-.48.08-.72.08z"/></g><g><path fill="#D0D4E5" d="M1029.77 420.17h-.07c-.9-.13-1.54-.67-1.8-1.5-.37-1.12.02-2.6.9-3.46.68-.65 1.57-.85 2.44-.53l-.34.94c-.52-.18-1-.07-1.4.33-.6.6-.9 1.67-.66 2.43.15.45.46.72.94.8.88-.1 1.7-.67 2.18-1.5.44-.75.53-1.58.24-2.28l.92-.39c.42 1 .3 2.14-.3 3.17-.66 1.12-1.77 1.86-3 2h-.05z"/></g><g><path fill="#D0D4E5" d="M975.34 422.44c-.06 0-.1 0-.17-.03-1.23-.44-2-1.66-1.98-3.1.02-1.44.85-2.64 2.1-3.05l.3.95c-1 .33-1.4 1.35-1.4 2.12-.02.74.3 1.72 1.22 2.1 3.2-.3 6-2.73 6.57-5.65-.68-.3-1.52-.36-2.32-.14-.87.23-1.57.75-1.93 1.42l-.88-.47c.48-.9 1.4-1.6 2.55-1.92 1.2-.33 2.43-.18 3.38.4.17.12.26.3.23.5-.48 3.56-3.84 6.58-7.65 6.88h-.04z"/></g><g><path fill="#D0D4E5" d="M924.16 422.56c-.82 0-1.63-.22-2.35-.75-.05-.04-.1-.1-.14-.18-.48-1-.36-2.24.33-3.3.76-1.15 2.03-1.85 3.32-1.8l-.04 1c-.9-.03-1.88.5-2.45 1.36-.47.72-.6 1.53-.32 2.2 1.28.85 2.98.46 4.12-.33.95-.65 1.84-1.8 1.47-3.12l.96-.27c.42 1.52-.3 3.14-1.87 4.22-.85.58-1.95.98-3.04.98z"/></g><g><path fill="#D0D4E5" d="M1031.08 380.64c-.2 0-.4 0-.58-.03-1.35-.15-2.5-.8-3.15-1.77-.6-.9-.74-2.24.2-2.95.66-.5 1.58-.22 2.06.3.42.47.43 1.05.05 1.46l-.74-.68c.03 0 .03-.02.03-.02 0-.02-.1-.17-.32-.26-.14-.06-.33-.1-.44 0-.43.32-.32 1.08.02 1.6.5.7 1.4 1.22 2.43 1.34 1.08.12 2.12-.18 2.8-.8.64-.6.95-1.5.85-2.45-.1-.98-.64-1.84-1.43-2.3l.5-.87c1.07.63 1.78 1.77 1.92 3.06.14 1.28-.3 2.48-1.17 3.3-.75.7-1.84 1.08-3 1.08z"/></g><g><path fill="#D0D4E5" d="M977.34 383.2c-1.17 0-2.25-.42-3-1.15-.76-.75-1.16-1.83-1.08-2.96.1-1.16.64-2.2 1.52-2.84l.6.8c-.65.48-1.06 1.25-1.12 2.1-.06.84.23 1.63.78 2.18.58.56 1.4.88 2.38.86.93-.02 1.78-.37 2.33-.95.7-.5.78-1.3.64-1.88-.15-.6-.62-1.36-1.5-1.5l.18-1c1.1.2 2 1.08 2.28 2.28.27 1.14-.1 2.23-.95 2.85-.65.72-1.76 1.17-2.96 1.2h-.1z"/></g><g><path fill="#D0D4E5" d="M925.68 384.42c-1.58 0-2.9-1.08-3.56-2.28-.83-1.5-.7-3.1.33-4.2l.72.7c-.86.9-.65 2.15-.17 3 .58 1.07 1.8 2.02 3.2 1.72 1.4-.3 2-1.6 2.1-2.62.1-1-.26-2.34-1.54-2.84l.36-.93c1.48.58 2.33 2.1 2.18 3.85-.16 1.8-1.3 3.2-2.9 3.52-.24.06-.48.08-.72.08z"/></g><g><path fill="#D0D4E5" d="M1029.77 339.32h-.07c-.9-.14-1.54-.67-1.8-1.52-.37-1.1.02-2.6.9-3.45.68-.66 1.57-.86 2.44-.54l-.34.95c-.52-.2-1-.08-1.4.32-.6.6-.9 1.67-.66 2.43.15.45.46.72.94.8.88-.1 1.7-.67 2.18-1.5.44-.75.53-1.58.24-2.28l.92-.38c.4 1 .3 2.14-.3 3.17-.65 1.13-1.77 1.88-3 2l-.05.02z"/></g><g><path fill="#D0D4E5" d="M975.34 341.58c-.06 0-.1 0-.17-.03-1.23-.44-2-1.66-1.98-3.1.02-1.45.85-2.65 2.1-3.06l.3.95c-1 .33-1.4 1.34-1.4 2.1-.02.75.3 1.73 1.22 2.13 3.2-.3 6-2.75 6.57-5.67-.68-.3-1.52-.35-2.32-.13-.87.23-1.57.75-1.93 1.42l-.88-.48c.48-.9 1.4-1.6 2.55-1.92 1.2-.32 2.43-.17 3.38.42.17.1.26.3.23.5-.48 3.54-3.84 6.56-7.65 6.86h-.04z"/></g><g><path fill="#D0D4E5" d="M924.16 341.7c-.82 0-1.63-.22-2.35-.75-.05-.05-.1-.1-.14-.2-.48-1-.36-2.22.33-3.28.76-1.16 2.03-1.85 3.32-1.8l-.04 1c-.9-.04-1.88.48-2.45 1.35-.47.72-.6 1.53-.32 2.2 1.28.85 2.98.46 4.12-.32.95-.66 1.84-1.82 1.47-3.13l.96-.27c.42 1.52-.3 3.14-1.87 4.22-.85.58-1.95.98-3.04.98z"/></g><g><path fill="#D0D4E5" d="M874.58 615.87c-.2 0-.4-.02-.6-.04-1.33-.15-2.47-.8-3.13-1.77-.6-.9-.74-2.24.2-2.95.66-.48 1.58-.22 2.06.32.42.45.43 1.03.05 1.45l-.74-.7h.03c0-.03-.1-.17-.33-.26-.14-.05-.33-.08-.45 0-.42.33-.3 1.08.03 1.6.5.72 1.4 1.22 2.43 1.34 1.08.12 2.12-.17 2.8-.8.64-.6.95-1.5.85-2.45-.1-1-.64-1.85-1.43-2.3l.5-.87c1.07.62 1.78 1.76 1.92 3.05.14 1.28-.3 2.48-1.17 3.3-.75.7-1.84 1.1-3 1.1z"/></g><g><path fill="#D0D4E5" d="M820.84 618.42c-1.16 0-2.25-.4-3-1.14-.76-.75-1.15-1.83-1.07-2.96.08-1.15.63-2.18 1.52-2.84l.58.8c-.65.5-1.06 1.25-1.12 2.1-.06.85.23 1.64.8 2.2.56.55 1.42.88 2.36.84.94-.02 1.78-.36 2.33-.94.7-.52.78-1.3.64-1.88-.15-.6-.62-1.37-1.5-1.52l.18-.98c1.1.2 2 1.08 2.3 2.27.25 1.14-.12 2.23-.97 2.86-.65.7-1.76 1.17-2.96 1.2h-.1z"/></g><g><path fill="#D0D4E5" d="M769.18 619.64c-1.58 0-2.9-1.07-3.56-2.28-.83-1.5-.7-3.1.33-4.2l.72.7c-.86.9-.65 2.15-.17 3.02.58 1.06 1.8 2 3.2 1.7 1.4-.28 2.02-1.6 2.1-2.62.1-1-.26-2.33-1.54-2.84l.36-.93c1.48.58 2.33 2.1 2.18 3.85-.16 1.8-1.3 3.2-2.9 3.52-.23.05-.48.07-.72.07z"/></g><g><path fill="#D0D4E5" d="M873.27 577h-.07c-.9-.14-1.54-.68-1.8-1.52-.37-1.12.02-2.6.9-3.45.68-.66 1.57-.86 2.44-.55l-.34.94c-.5-.18-1-.08-1.4.33-.6.58-.9 1.67-.66 2.42.15.45.46.73.94.8.88-.1 1.7-.67 2.18-1.5.44-.75.53-1.58.24-2.28l.92-.4c.42 1 .3 2.16-.3 3.2-.66 1.1-1.77 1.85-3 2h-.05z"/></g><g><path fill="#D0D4E5" d="M818.84 579.26c-.05 0-.1 0-.17-.03-1.22-.45-2-1.67-1.97-3.1.02-1.46.85-2.65 2.1-3.06l.3.95c-1 .33-1.4 1.35-1.4 2.12-.02.74.3 1.72 1.22 2.1 3.2-.3 6-2.73 6.57-5.65-.68-.32-1.52-.38-2.32-.16-.87.24-1.57.76-1.92 1.42l-.9-.46c.5-.9 1.42-1.6 2.56-1.92 1.2-.33 2.43-.18 3.38.4.17.1.26.3.24.5-.48 3.55-3.85 6.57-7.66 6.88h-.04z"/></g><g><path fill="#D0D4E5" d="M767.66 579.37c-.82 0-1.63-.22-2.34-.75-.07-.05-.12-.1-.16-.18-.48-1-.36-2.24.33-3.3.76-1.16 2.04-1.84 3.32-1.8l-.04 1c-.9-.03-1.88.48-2.45 1.35-.47.7-.58 1.52-.32 2.2 1.3.85 2.98.46 4.13-.33.95-.65 1.83-1.82 1.47-3.13l.96-.27c.42 1.52-.3 3.14-1.87 4.22-.85.58-1.95.97-3.04.97z"/></g><g><path fill="#D0D4E5" d="M874.58 537.46c-.2 0-.4 0-.6-.03-1.33-.16-2.47-.8-3.13-1.78-.6-.9-.74-2.24.2-2.95.66-.5 1.58-.22 2.06.3.42.46.43 1.04.05 1.46l-.74-.68.03-.02c0-.03-.1-.17-.33-.26-.14-.06-.33-.1-.45 0-.42.32-.3 1.08.03 1.6.5.7 1.4 1.2 2.43 1.33 1.08.13 2.12-.17 2.8-.8.64-.6.95-1.5.85-2.45-.1-.97-.64-1.83-1.43-2.3l.5-.86c1.06.62 1.78 1.77 1.92 3.06.14 1.27-.3 2.48-1.17 3.3-.75.7-1.84 1.08-3 1.08z"/></g><g><path fill="#D0D4E5" d="M820.84 540c-1.16 0-2.25-.4-3-1.13-.76-.75-1.15-1.83-1.07-2.96.08-1.14.63-2.17 1.52-2.82l.58.8c-.65.48-1.06 1.24-1.12 2.1-.06.84.23 1.63.78 2.18.58.56 1.46.9 2.38.85.93 0 1.78-.35 2.33-.93.7-.52.78-1.3.64-1.88-.15-.62-.62-1.38-1.5-1.53l.18-.98c1.1.18 2 1.07 2.28 2.26.27 1.14-.1 2.24-.96 2.86-.65.7-1.76 1.17-2.96 1.2h-.1z"/></g><g><path fill="#D0D4E5" d="M769.2 541.24c-1.6 0-2.9-1.08-3.58-2.3-.83-1.5-.7-3.1.33-4.18l.72.7c-.86.9-.65 2.14-.17 3 .58 1.07 1.8 2 3.2 1.72 1.4-.3 2.02-1.6 2.1-2.63.1-1-.26-2.33-1.54-2.83l.36-.93c1.48.57 2.33 2.08 2.18 3.84-.16 1.8-1.3 3.2-2.9 3.52-.23.05-.48.08-.7.08z"/></g><g><path fill="#D0D4E5" d="M873.27 498.58h-.07c-.9-.13-1.54-.67-1.8-1.5-.37-1.12.02-2.6.9-3.46.68-.66 1.57-.86 2.44-.54l-.34.94c-.5-.2-1-.08-1.4.32-.6.58-.9 1.67-.66 2.42.15.46.46.73.94.82.88-.12 1.7-.68 2.18-1.5.44-.76.53-1.6.24-2.3l.92-.38c.42 1 .3 2.15-.3 3.18-.66 1.1-1.77 1.86-3 2h-.05z"/></g><g><path fill="#D0D4E5" d="M818.84 500.85c-.05 0-.1 0-.17-.03-1.22-.45-2-1.67-1.97-3.1.02-1.46.85-2.65 2.1-3.06l.3.95c-1 .34-1.4 1.36-1.4 2.13-.02.74.3 1.72 1.22 2.1 3.2-.3 6-2.73 6.57-5.65-.68-.3-1.52-.36-2.32-.14-.87.23-1.57.75-1.92 1.42l-.9-.47c.5-.92 1.42-1.62 2.56-1.93 1.2-.33 2.43-.18 3.38.4.17.12.26.3.24.5-.48 3.56-3.85 6.58-7.66 6.88h-.04z"/></g><g><path fill="#D0D4E5" d="M767.66 500.96c-.82 0-1.63-.22-2.34-.75-.07-.03-.12-.1-.16-.17-.48-1-.36-2.24.33-3.3.75-1.15 2.03-1.85 3.32-1.8l-.04 1c-.97-.02-1.88.5-2.45 1.36-.47.7-.58 1.52-.32 2.18 1.3.86 2.98.47 4.13-.32.95-.65 1.83-1.8 1.47-3.12l.96-.27c.42 1.52-.3 3.13-1.87 4.22-.85.57-1.95.96-3.04.96z"/></g><g><path fill="#D0D4E5" d="M714.14 615.87c-.2 0-.4-.02-.6-.04-1.33-.15-2.48-.8-3.13-1.77-.6-.9-.73-2.24.2-2.95.66-.48 1.6-.22 2.07.32.4.45.42 1.03.03 1.45l-.73-.7h.02c-.02-.03-.13-.17-.34-.26-.14-.05-.33-.08-.45 0-.42.33-.3 1.08.04 1.6.48.72 1.4 1.22 2.42 1.34 1.08.12 2.12-.17 2.78-.8.65-.6.96-1.5.86-2.45-.1-1-.64-1.85-1.42-2.3l.5-.87c1.06.62 1.78 1.76 1.92 3.05.13 1.28-.3 2.48-1.18 3.3-.75.7-1.83 1.1-2.98 1.1z"/></g><g><path fill="#D0D4E5" d="M660.4 618.42c-1.17 0-2.26-.4-3-1.14-.77-.75-1.16-1.83-1.08-2.96.08-1.15.64-2.18 1.52-2.84l.6.8c-.66.5-1.06 1.25-1.12 2.1-.06.85.22 1.64.78 2.2.57.55 1.44.88 2.38.84.93-.02 1.78-.36 2.32-.94.7-.52.78-1.3.65-1.88-.14-.6-.6-1.37-1.48-1.52l.17-.98c1.1.2 2 1.08 2.28 2.27.27 1.14-.1 2.23-.96 2.86-.66.7-1.76 1.17-2.96 1.2h-.1z"/></g><g><path fill="#D0D4E5" d="M608.74 619.64c-1.58 0-2.9-1.07-3.56-2.28-.83-1.5-.7-3.1.32-4.2l.73.7c-.86.9-.66 2.15-.18 3.02.6 1.06 1.8 2 3.22 1.7 1.4-.28 2-1.6 2.1-2.62.08-1-.28-2.33-1.55-2.84l.36-.93c1.48.58 2.33 2.1 2.18 3.85-.16 1.8-1.3 3.2-2.9 3.52-.24.05-.48.07-.72.07z"/></g><g><path fill="#D0D4E5" d="M712.83 577h-.07c-.9-.14-1.54-.68-1.8-1.52-.37-1.12.02-2.6.9-3.45.67-.66 1.56-.86 2.44-.55l-.34.94c-.52-.18-1-.08-1.4.33-.6.58-.9 1.67-.66 2.42.14.45.46.73.94.8.88-.1 1.7-.67 2.18-1.5.44-.75.53-1.58.24-2.28l.92-.4c.4 1 .3 2.16-.3 3.2-.66 1.1-1.78 1.85-3 2h-.05z"/></g><g><path fill="#D0D4E5" d="M658.4 579.26c-.06 0-.12 0-.17-.03-1.23-.45-2-1.67-1.98-3.1.03-1.46.85-2.65 2.1-3.06l.3.95c-1 .33-1.4 1.35-1.4 2.12 0 .74.3 1.72 1.22 2.1 3.2-.3 6-2.73 6.57-5.65-.66-.32-1.5-.38-2.3-.16-.88.24-1.58.76-1.93 1.42l-.87-.46c.48-.9 1.4-1.6 2.54-1.92 1.2-.33 2.44-.18 3.4.4.16.1.25.3.22.5-.5 3.55-3.85 6.57-7.66 6.88h-.04z"/></g><g><path fill="#D0D4E5" d="M607.2 579.37c-.8 0-1.62-.22-2.33-.75-.07-.05-.12-.1-.15-.18-.48-1-.36-2.24.33-3.3.76-1.16 2.03-1.84 3.32-1.8l-.03 1c-.93-.03-1.88.48-2.45 1.35-.48.7-.6 1.52-.33 2.2 1.27.85 2.97.46 4.1-.33.96-.65 1.84-1.82 1.48-3.13l.96-.27c.44 1.52-.28 3.14-1.85 4.22-.85.57-1.94.97-3.04.97z"/></g><g><path fill="#D0D4E5" d="M714.14 537.46c-.2 0-.4 0-.6-.03-1.33-.16-2.48-.8-3.13-1.78-.6-.9-.73-2.24.2-2.95.67-.5 1.6-.22 2.07.3.4.46.42 1.04.03 1.46l-.73-.68c0-.02.02-.02.02-.02-.02-.03-.13-.17-.34-.26-.14-.06-.33-.1-.45 0-.42.32-.3 1.08.04 1.6.48.7 1.4 1.2 2.43 1.33 1.07.13 2.1-.17 2.77-.8.65-.6.97-1.5.86-2.45-.1-.97-.64-1.83-1.42-2.3l.5-.86c1.06.62 1.78 1.77 1.9 3.06.15 1.27-.27 2.48-1.16 3.3-.75.7-1.83 1.08-2.98 1.08z"/></g><g><path fill="#D0D4E5" d="M660.4 540c-1.17 0-2.26-.4-3-1.13-.77-.75-1.16-1.83-1.08-2.96.08-1.14.64-2.17 1.52-2.82l.6.8c-.66.48-1.06 1.24-1.12 2.1-.06.84.22 1.63.78 2.18.57.56 1.45.9 2.38.85.93 0 1.78-.35 2.32-.93.7-.52.78-1.3.65-1.88-.15-.62-.62-1.38-1.48-1.53l.17-.98c1.1.18 2 1.07 2.28 2.26.27 1.14-.1 2.24-.96 2.86-.66.7-1.76 1.17-2.96 1.2h-.1z"/></g><g><path fill="#D0D4E5" d="M608.74 541.24c-1.58 0-2.9-1.08-3.56-2.3-.84-1.5-.7-3.1.32-4.18l.72.7c-.86.9-.65 2.14-.17 3 .6 1.07 1.8 2 3.22 1.72 1.4-.3 2-1.6 2.1-2.63.08-1-.28-2.33-1.56-2.83l.38-.93c1.47.57 2.33 2.08 2.18 3.84-.16 1.8-1.3 3.2-2.9 3.52-.24.05-.48.08-.72.08z"/></g><g><path fill="#D0D4E5" d="M712.83 498.58h-.07c-.9-.13-1.54-.67-1.8-1.5-.37-1.12.02-2.6.9-3.46.67-.66 1.56-.86 2.44-.54l-.34.94c-.52-.2-1-.08-1.4.32-.6.58-.9 1.67-.66 2.42.14.46.46.73.94.82.88-.12 1.7-.68 2.18-1.5.44-.76.53-1.6.24-2.3l.92-.38c.4 1 .3 2.15-.3 3.18-.66 1.1-1.78 1.86-3 2h-.05z"/></g><g><path fill="#D0D4E5" d="M658.4 500.85c-.06 0-.12 0-.17-.03-1.23-.45-2-1.67-1.98-3.1.03-1.46.85-2.65 2.1-3.06l.3.95c-1 .34-1.4 1.36-1.4 2.13 0 .74.3 1.72 1.22 2.1 3.2-.3 6-2.73 6.57-5.65-.67-.3-1.5-.36-2.3-.14-.88.23-1.58.75-1.93 1.42l-.87-.47c.48-.92 1.4-1.62 2.54-1.93 1.2-.33 2.44-.18 3.4.4.16.12.25.3.22.5-.5 3.56-3.85 6.58-7.66 6.88h-.04z"/></g><g><path fill="#D0D4E5" d="M607.2 500.96c-.8 0-1.62-.22-2.33-.75-.07-.03-.12-.1-.15-.17-.48-1-.36-2.24.33-3.3.76-1.16 2.03-1.85 3.32-1.8l-.03 1c-.93-.03-1.88.48-2.45 1.36-.48.7-.6 1.5-.33 2.18 1.27.86 2.97.47 4.1-.32.96-.65 1.84-1.82 1.48-3.13l.96-.26c.44 1.52-.28 3.13-1.85 4.2-.85.6-1.94 1-3.04 1z"/></g><g><path fill="#D0D4E5" d="M874.58 461.5c-.2 0-.4 0-.6-.03-1.33-.16-2.47-.8-3.13-1.78-.6-.9-.74-2.25.2-2.96.66-.5 1.58-.22 2.06.3.42.46.43 1.05.05 1.46l-.74-.68.03-.02c0-.03-.1-.17-.33-.26-.14-.06-.33-.1-.45 0-.42.32-.3 1.08.03 1.6.5.7 1.4 1.2 2.43 1.33 1.08.13 2.12-.17 2.8-.8.64-.6.95-1.5.85-2.45-.1-.97-.64-1.83-1.43-2.3l.5-.86c1.06.62 1.78 1.77 1.92 3.06.14 1.27-.3 2.48-1.17 3.3-.75.7-1.84 1.08-3 1.08z"/></g><g><path fill="#D0D4E5" d="M820.84 464.06c-1.16 0-2.25-.42-3-1.15-.76-.74-1.15-1.82-1.07-2.95.08-1.15.63-2.18 1.52-2.83l.58.8c-.65.48-1.06 1.25-1.12 2.1-.06.84.23 1.63.78 2.18.58.56 1.44.88 2.38.85.93 0 1.78-.36 2.33-.94.7-.5.78-1.3.64-1.87-.15-.6-.62-1.37-1.5-1.5l.18-1c1.1.2 2 1.08 2.28 2.27.27 1.14-.1 2.24-.96 2.86-.65.7-1.76 1.17-2.96 1.2h-.1z"/></g><g><path fill="#D0D4E5" d="M769.2 465.28c-1.6 0-2.9-1.08-3.58-2.28-.83-1.5-.7-3.1.33-4.2l.72.7c-.86.9-.65 2.14-.17 3 .58 1.07 1.8 2.02 3.2 1.72 1.4-.3 2.02-1.6 2.1-2.62.1-1-.26-2.34-1.54-2.84l.36-.93c1.48.58 2.33 2.1 2.18 3.85-.16 1.8-1.3 3.2-2.9 3.52-.23.05-.48.08-.7.08z"/></g><g><path fill="#D0D4E5" d="M873.27 423.85h-.07c-.9-.13-1.54-.67-1.8-1.5-.37-1.13.02-2.6.9-3.46.68-.67 1.57-.87 2.44-.56l-.34.94c-.5-.18-1-.08-1.4.33-.6.6-.9 1.68-.66 2.43.15.46.46.73.94.82.88-.13 1.7-.7 2.18-1.5.44-.76.53-1.6.24-2.3l.92-.38c.42 1 .3 2.15-.3 3.17-.66 1.12-1.77 1.87-3 2h-.05z"/></g><g><path fill="#D0D4E5" d="M818.84 426.12c-.05 0-.1 0-.17-.03-1.22-.46-2-1.68-1.97-3.12.02-1.45.85-2.65 2.1-3.05l.3.95c-1 .33-1.4 1.35-1.4 2.12-.02.74.3 1.72 1.22 2.1 3.2-.3 6-2.73 6.57-5.65-.68-.3-1.52-.36-2.32-.15-.87.24-1.57.76-1.92 1.42l-.9-.46c.5-.92 1.42-1.6 2.56-1.92 1.2-.33 2.43-.18 3.38.4.17.12.26.3.24.5-.48 3.55-3.85 6.57-7.66 6.88h-.04z"/></g><g><path fill="#D0D4E5" d="M767.66 426.23c-.8 0-1.63-.22-2.34-.75-.07-.05-.12-.1-.16-.18-.48-1-.36-2.24.33-3.3.76-1.16 2.04-1.84 3.32-1.8l-.04 1c-.9-.02-1.88.48-2.45 1.36-.47.7-.58 1.52-.32 2.2 1.3.85 2.98.46 4.13-.33.95-.65 1.83-1.82 1.47-3.13l.96-.26c.42 1.52-.3 3.13-1.87 4.2-.85.6-1.95 1-3.04 1z"/></g><g><path fill="#D0D4E5" d="M874.58 384.32c-.2 0-.4 0-.6-.04-1.33-.15-2.47-.8-3.13-1.77-.6-.9-.74-2.23.2-2.94.66-.5 1.58-.22 2.06.3.4.46.43 1.04.05 1.46l-.74-.7h.03c0-.03-.1-.17-.32-.26-.14-.06-.33-.1-.45 0-.42.32-.3 1.08.03 1.6.5.7 1.4 1.2 2.43 1.33 1.08.1 2.12-.18 2.8-.8.64-.6.95-1.5.85-2.46-.1-.98-.64-1.84-1.43-2.3l.5-.86c1.06.62 1.78 1.77 1.92 3.05.14 1.28-.3 2.48-1.17 3.3-.75.7-1.84 1.1-3 1.1z"/></g><g><path fill="#D0D4E5" d="M820.84 386.87c-1.16 0-2.25-.4-3-1.14-.76-.75-1.15-1.83-1.07-2.96.08-1.15.63-2.18 1.52-2.83l.58.8c-.65.48-1.06 1.24-1.12 2.1-.06.84.23 1.63.8 2.18.56.56 1.42.87 2.36.85.93-.02 1.78-.36 2.33-.94.7-.52.78-1.3.64-1.88-.15-.6-.62-1.37-1.5-1.52l.18-.98c1.1.2 2 1.08 2.28 2.27.27 1.14-.1 2.24-.96 2.86-.65.7-1.76 1.17-2.96 1.2h-.1z"/></g><g><path fill="#D0D4E5" d="M769.2 388.1c-1.6 0-2.9-1.1-3.58-2.3-.83-1.5-.7-3.1.33-4.18l.72.7c-.86.9-.65 2.14-.17 3 .58 1.07 1.8 2.02 3.2 1.72 1.4-.3 2.02-1.6 2.1-2.63.1-.98-.26-2.32-1.54-2.83l.37-.93c1.47.6 2.32 2.1 2.17 3.86-.16 1.8-1.3 3.2-2.9 3.52-.23.05-.48.07-.7.07z"/></g><g><path fill="#D0D4E5" d="M873.27 343h-.07c-.9-.14-1.54-.68-1.8-1.52-.37-1.1.02-2.6.9-3.45.68-.66 1.57-.86 2.44-.55l-.34.94c-.5-.18-1-.08-1.4.33-.6.58-.9 1.67-.66 2.42.15.46.46.73.94.82.88-.14 1.7-.7 2.18-1.52.44-.75.53-1.6.24-2.28l.92-.4c.42 1 .3 2.16-.3 3.2-.66 1.1-1.77 1.85-3 2h-.05z"/></g><g><path fill="#D0D4E5" d="M818.84 345.26c-.05 0-.1 0-.17-.03-1.22-.45-2-1.67-1.97-3.1.02-1.46.85-2.65 2.1-3.06l.3.95c-1 .33-1.4 1.35-1.4 2.12-.02.74.3 1.72 1.22 2.1 3.2-.3 6-2.73 6.57-5.65-.68-.32-1.52-.37-2.32-.16-.87.24-1.57.76-1.92 1.43l-.9-.47c.5-.9 1.42-1.6 2.56-1.92 1.2-.33 2.43-.18 3.38.4.17.12.26.3.24.5-.48 3.55-3.85 6.57-7.66 6.88h-.04z"/></g><g><path fill="#D0D4E5" d="M767.66 345.38c-.8 0-1.63-.23-2.34-.76-.07-.04-.12-.1-.16-.18-.48-1-.36-2.24.33-3.3.76-1.15 2.04-1.84 3.32-1.8l-.04 1c-.9-.03-1.88.5-2.45 1.36-.47.7-.58 1.53-.32 2.2 1.3.85 2.98.46 4.13-.33.95-.65 1.83-1.8 1.47-3.12l.96-.27c.42 1.52-.3 3.13-1.87 4.22-.85.58-1.95.98-3.04.98z"/></g><g><path fill="#D0D4E5" d="M714.14 461.5c-.2 0-.4 0-.6-.03-1.33-.16-2.48-.8-3.13-1.78-.6-.9-.73-2.25.2-2.96.67-.5 1.6-.22 2.07.3.4.46.42 1.05.03 1.46l-.73-.68c0-.02.02-.02.02-.02-.02-.03-.13-.17-.34-.26-.14-.06-.33-.1-.45 0-.42.32-.3 1.08.04 1.6.48.7 1.4 1.2 2.43 1.33 1.06.13 2.1-.17 2.77-.8.65-.6.97-1.5.86-2.45-.1-.97-.64-1.83-1.42-2.3l.5-.86c1.06.62 1.78 1.77 1.9 3.06.15 1.27-.27 2.48-1.16 3.3-.75.7-1.83 1.08-2.98 1.08z"/></g><g><path fill="#D0D4E5" d="M660.4 464.06c-1.17 0-2.26-.42-3-1.15-.77-.74-1.16-1.82-1.08-2.95.08-1.15.64-2.18 1.52-2.83l.6.8c-.66.48-1.06 1.25-1.12 2.1-.06.84.22 1.63.78 2.18.57.56 1.44.88 2.38.85.93 0 1.78-.36 2.32-.94.7-.5.78-1.3.65-1.87-.15-.6-.62-1.37-1.48-1.5l.17-1c1.1.2 2 1.08 2.28 2.27.27 1.14-.1 2.24-.96 2.86-.66.7-1.76 1.17-2.96 1.2h-.1z"/></g><g><path fill="#D0D4E5" d="M608.74 465.28c-1.58 0-2.9-1.08-3.56-2.28-.84-1.5-.7-3.1.32-4.2l.72.7c-.86.9-.65 2.14-.17 3 .6 1.07 1.8 2 3.22 1.72 1.4-.3 2-1.6 2.1-2.63.08-1-.28-2.34-1.56-2.84l.38-.93c1.47.58 2.33 2.1 2.18 3.85-.16 1.8-1.3 3.2-2.9 3.52-.24.05-.48.08-.72.08z"/></g><g><path fill="#D0D4E5" d="M712.83 423.85h-.07c-.9-.13-1.54-.67-1.8-1.5-.37-1.13.02-2.6.9-3.46.67-.67 1.56-.87 2.44-.56l-.34.94c-.52-.18-1-.08-1.4.33-.6.6-.9 1.68-.66 2.43.14.46.46.73.94.82.88-.13 1.7-.7 2.18-1.5.44-.76.53-1.6.24-2.3l.92-.38c.4 1 .3 2.15-.3 3.17-.66 1.12-1.78 1.87-3 2h-.05z"/></g><g><path fill="#D0D4E5" d="M658.4 426.12c-.06 0-.12 0-.17-.03-1.23-.46-2-1.68-1.98-3.12.03-1.45.85-2.65 2.1-3.05l.3.95c-1 .33-1.4 1.35-1.4 2.12 0 .74.3 1.72 1.22 2.1 3.2-.3 6-2.73 6.57-5.65-.66-.3-1.5-.36-2.3-.15-.88.24-1.58.76-1.93 1.42l-.87-.46c.48-.92 1.4-1.6 2.54-1.92 1.2-.33 2.44-.18 3.4.4.16.12.25.3.22.5-.5 3.55-3.85 6.57-7.66 6.88h-.04z"/></g><g><path fill="#D0D4E5" d="M607.2 426.23c-.8 0-1.62-.22-2.33-.75-.07-.05-.12-.1-.15-.18-.48-1-.36-2.24.33-3.3.76-1.16 2.03-1.85 3.32-1.8l-.03 1c-.93-.04-1.88.48-2.45 1.35-.48.72-.6 1.53-.33 2.2 1.27.86 2.97.47 4.1-.32.96-.65 1.84-1.82 1.48-3.13l.96-.26c.44 1.5-.28 3.13-1.85 4.2-.85.6-1.94 1-3.03 1z"/></g><g><path fill="#D0D4E5" d="M714.14 384.32c-.2 0-.4 0-.6-.04-1.33-.15-2.48-.8-3.13-1.77-.6-.9-.73-2.23.2-2.94.66-.5 1.58-.22 2.06.3.4.46.43 1.04.04 1.46l-.73-.7c0-.03-.1-.17-.3-.26-.15-.06-.34-.1-.46 0-.42.32-.3 1.08.04 1.6.48.7 1.4 1.2 2.43 1.33 1.07.1 2.1-.18 2.77-.8.65-.6.96-1.5.86-2.46-.1-.98-.64-1.84-1.42-2.3l.5-.86c1.06.62 1.77 1.77 1.9 3.05.15 1.28-.27 2.48-1.16 3.3-.75.7-1.83 1.1-2.98 1.1z"/></g><g><path fill="#D0D4E5" d="M660.4 386.87c-1.17 0-2.26-.4-3-1.14-.77-.75-1.16-1.83-1.08-2.96.08-1.15.64-2.18 1.52-2.83l.6.8c-.66.48-1.06 1.24-1.12 2.1-.06.84.22 1.63.78 2.18.57.56 1.44.87 2.38.85.93-.02 1.78-.36 2.32-.94.7-.52.78-1.3.65-1.88-.15-.6-.62-1.37-1.48-1.52l.17-.98c1.1.2 2 1.08 2.28 2.27.27 1.14-.1 2.24-.96 2.86-.66.7-1.76 1.17-2.96 1.2h-.1z"/></g><g><path fill="#D0D4E5" d="M608.74 388.1c-1.58 0-2.9-1.1-3.56-2.3-.84-1.5-.7-3.1.32-4.18l.72.7c-.86.9-.65 2.14-.17 3 .6 1.07 1.8 2 3.22 1.72 1.4-.3 2-1.6 2.1-2.63.08-.98-.28-2.32-1.56-2.83l.38-.93c1.47.6 2.33 2.1 2.18 3.86-.16 1.8-1.3 3.2-2.9 3.52-.24.05-.48.07-.72.07z"/></g><g><path fill="#D0D4E5" d="M712.83 343h-.07c-.9-.14-1.54-.68-1.8-1.52-.37-1.1.02-2.6.9-3.45.67-.66 1.56-.86 2.44-.55l-.34.94c-.52-.18-1-.08-1.4.33-.6.58-.9 1.67-.66 2.42.14.46.46.73.94.82.88-.14 1.7-.7 2.18-1.52.44-.75.53-1.6.24-2.28l.92-.4c.4 1 .3 2.16-.3 3.2-.66 1.1-1.78 1.85-3 2h-.05z"/></g><g><path fill="#D0D4E5" d="M658.4 345.26c-.06 0-.12 0-.17-.03-1.23-.45-2-1.67-1.98-3.1.03-1.46.85-2.65 2.1-3.06l.3.95c-1 .33-1.4 1.35-1.4 2.12 0 .74.3 1.72 1.22 2.1 3.2-.3 6-2.73 6.57-5.65-.66-.32-1.5-.37-2.3-.16-.88.24-1.58.76-1.93 1.43l-.87-.47c.48-.9 1.4-1.6 2.54-1.92 1.2-.33 2.43-.18 3.4.4.16.12.25.3.22.5-.5 3.55-3.85 6.57-7.66 6.88h-.04z"/></g><g><path fill="#D0D4E5" d="M607.2 345.38c-.8 0-1.62-.23-2.33-.76-.07-.04-.12-.1-.15-.18-.48-1-.36-2.24.33-3.3.76-1.15 2.03-1.85 3.32-1.8l-.03 1c-.93-.02-1.88.48-2.45 1.36-.48.7-.6 1.53-.33 2.2 1.27.85 2.97.46 4.1-.33.96-.65 1.84-1.82 1.48-3.12l.96-.27c.44 1.52-.28 3.13-1.85 4.22-.85.58-1.94.98-3.03.98z"/></g><g><path fill="#D0D4E5" d="M1190.2 301.34h-.06c-.9-.14-1.53-.67-1.8-1.5-.37-1.13.02-2.6.9-3.47.68-.65 1.57-.85 2.45-.54l-.35.94c-.52-.2-1-.08-1.4.32-.6.58-.9 1.66-.66 2.42.13.45.45.72.93.8.88-.1 1.7-.67 2.18-1.5.45-.75.54-1.58.24-2.28l.93-.38c.4 1 .3 2.15-.3 3.17-.66 1.12-1.78 1.87-3 2h-.06z"/></g><g><path fill="#D0D4E5" d="M1135.8 303.6c-.07 0-.13 0-.18-.03-1.23-.44-2-1.66-1.98-3.1.03-1.45.85-2.65 2.1-3.05l.3.95c-1 .33-1.4 1.34-1.4 2.1-.02.75.3 1.73 1.22 2.13 3.2-.3 6-2.75 6.57-5.67-.67-.3-1.5-.36-2.3-.14-.88.22-1.58.74-1.93 1.4l-.9-.46c.5-.9 1.42-1.6 2.56-1.92 1.2-.32 2.43-.17 3.38.42.17.1.26.3.24.5-.48 3.54-3.84 6.56-7.65 6.86h-.04z"/></g><g><path fill="#D0D4E5" d="M1084.6 303.72c-.8 0-1.63-.22-2.34-.75-.07-.05-.12-.1-.16-.2-.48-1-.35-2.22.34-3.28.76-1.17 2.04-1.87 3.32-1.82l-.04 1c-.9-.03-1.87.5-2.45 1.36-.47.72-.58 1.53-.3 2.2 1.26.85 2.96.46 4.1-.32.95-.66 1.83-1.82 1.47-3.13l.96-.28c.42 1.52-.3 3.14-1.86 4.22-.85.58-1.94.98-3.04.98z"/></g><g><path fill="#D0D4E5" d="M1029.77 301.34h-.07c-.9-.14-1.54-.67-1.8-1.5-.37-1.13.02-2.6.9-3.47.68-.65 1.57-.85 2.44-.54l-.34.94c-.52-.2-1-.08-1.4.32-.6.58-.9 1.66-.66 2.42.15.45.46.72.94.8.88-.1 1.7-.67 2.18-1.5.44-.75.53-1.58.24-2.28l.92-.38c.42 1 .3 2.15-.3 3.17-.66 1.12-1.77 1.87-3 2h-.05z"/></g><g><path fill="#D0D4E5" d="M975.34 303.6c-.06 0-.1 0-.17-.03-1.23-.44-2-1.66-1.98-3.1.02-1.45.85-2.65 2.1-3.05l.3.95c-1 .33-1.4 1.34-1.4 2.1-.02.75.3 1.73 1.22 2.13 3.2-.3 6-2.75 6.57-5.67-.68-.3-1.52-.36-2.32-.14-.87.23-1.57.74-1.93 1.4l-.88-.46c.48-.9 1.4-1.6 2.55-1.92 1.2-.32 2.43-.17 3.38.42.17.1.26.3.23.5-.48 3.54-3.84 6.56-7.65 6.86h-.04z"/></g><g><path fill="#D0D4E5" d="M924.16 303.72c-.82 0-1.63-.22-2.35-.75-.05-.05-.1-.1-.14-.2-.48-1-.36-2.22.33-3.28.76-1.17 2.03-1.87 3.32-1.82l-.04 1c-.9-.03-1.88.5-2.45 1.36-.47.72-.6 1.53-.32 2.2 1.28.85 2.98.46 4.12-.32.95-.66 1.84-1.82 1.47-3.13l.96-.28c.42 1.52-.3 3.14-1.87 4.22-.85.58-1.95.98-3.04.98z"/></g><g><path fill="#D0D4E5" d="M873.27 305h-.07c-.9-.12-1.54-.66-1.8-1.5-.37-1.1.02-2.6.9-3.45.68-.66 1.57-.86 2.44-.55l-.34.95c-.52-.2-1-.08-1.4.32-.6.58-.9 1.67-.66 2.42.15.45.46.72.94.8.88-.1 1.7-.67 2.18-1.5.44-.75.53-1.58.24-2.28l.92-.4c.42 1 .3 2.16-.3 3.2-.66 1.1-1.77 1.85-3 2h-.05z"/></g><g><path fill="#D0D4E5" d="M818.84 307.28c-.05 0-.1 0-.17-.03-1.22-.45-2-1.67-1.97-3.1.02-1.45.85-2.65 2.1-3.06l.3.94c-1 .33-1.4 1.35-1.4 2.12-.02.74.3 1.72 1.22 2.1 3.2-.3 6-2.73 6.57-5.65-.68-.3-1.52-.35-2.32-.13-.87.23-1.57.75-1.92 1.42l-.9-.48c.5-.9 1.42-1.6 2.56-1.92 1.2-.33 2.43-.18 3.38.4.17.12.26.3.24.5-.48 3.56-3.85 6.58-7.66 6.88h-.04z"/></g><g><path fill="#D0D4E5" d="M767.66 307.4c-.8 0-1.63-.22-2.34-.75-.07-.05-.12-.12-.16-.2-.48-1-.36-2.23.33-3.28.75-1.16 2.03-1.85 3.32-1.8l-.04 1c-.97-.04-1.88.48-2.45 1.35-.47.72-.58 1.53-.32 2.2 1.3.85 2.98.46 4.13-.33.95-.66 1.83-1.82 1.47-3.13l.96-.27c.42 1.52-.3 3.13-1.87 4.22-.85.58-1.95.98-3.04.98z"/></g><g><path fill="#D0D4E5" d="M712.83 305h-.07c-.9-.12-1.54-.66-1.8-1.5-.37-1.1.02-2.6.9-3.45.67-.66 1.57-.86 2.44-.55l-.34.95c-.52-.2-1-.08-1.4.32-.6.58-.9 1.67-.66 2.42.14.45.46.72.94.8.88-.1 1.7-.67 2.18-1.5.44-.75.53-1.58.24-2.28l.92-.4c.4 1 .3 2.16-.3 3.2-.66 1.1-1.78 1.85-3 2h-.05z"/></g><g><path fill="#D0D4E5" d="M658.4 307.28c-.06 0-.12 0-.17-.03-1.23-.45-2-1.67-1.98-3.1.03-1.45.85-2.65 2.1-3.06l.3.94c-1 .33-1.4 1.35-1.4 2.12 0 .74.3 1.72 1.22 2.1 3.2-.3 6-2.73 6.57-5.65-.66-.3-1.5-.35-2.3-.13-.88.23-1.58.75-1.93 1.42l-.87-.48c.48-.9 1.4-1.6 2.54-1.92 1.2-.33 2.43-.18 3.4.4.16.12.25.3.22.5-.5 3.56-3.85 6.58-7.66 6.88h-.04z"/></g><g><path fill="#D0D4E5" d="M607.2 307.4c-.8 0-1.62-.22-2.33-.75-.07-.05-.12-.12-.15-.2-.48-1-.36-2.23.33-3.28.76-1.16 2.04-1.85 3.32-1.8l-.03 1c-.93-.05-1.88.48-2.45 1.35-.48.72-.6 1.53-.33 2.2 1.27.85 2.97.46 4.1-.33.96-.66 1.85-1.82 1.48-3.13l.96-.27c.44 1.52-.28 3.13-1.85 4.22-.85.58-1.94.98-3.03.98z"/></g><g><path fill="#D0D4E5" d="M1190.2 259.68h-.06c-.9-.13-1.53-.67-1.8-1.5-.37-1.12.02-2.6.9-3.46.68-.66 1.57-.86 2.45-.54l-.35.94c-.52-.2-1-.08-1.4.32-.6.58-.9 1.67-.66 2.42.13.46.45.73.93.82.88-.12 1.7-.68 2.18-1.5.45-.76.54-1.6.24-2.3l.93-.38c.4 1 .3 2.15-.3 3.18-.66 1.1-1.78 1.86-3 2h-.06z"/></g><g><path fill="#D0D4E5" d="M1135.8 261.95c-.07 0-.13 0-.18-.03-1.23-.45-2-1.67-1.98-3.1.03-1.46.85-2.65 2.1-3.06l.3.95c-1 .34-1.4 1.36-1.4 2.13-.02.74.3 1.72 1.22 2.1 3.2-.3 6-2.73 6.57-5.65-.67-.3-1.5-.36-2.3-.15-.88.24-1.58.76-1.93 1.43l-.9-.47c.5-.92 1.42-1.62 2.56-1.93 1.2-.33 2.43-.18 3.38.4.17.12.26.3.24.5-.48 3.55-3.84 6.57-7.65 6.88h-.04z"/></g><g><path fill="#D0D4E5" d="M1084.6 262.07c-.8 0-1.63-.23-2.34-.76-.07-.03-.12-.1-.16-.17-.48-1-.35-2.24.34-3.3.76-1.15 2.04-1.85 3.32-1.8l-.04 1c-.9-.04-1.87.5-2.45 1.36-.47.7-.58 1.52-.3 2.18 1.26.86 2.96.47 4.1-.32.95-.65 1.83-1.8 1.47-3.12l.96-.27c.42 1.52-.3 3.13-1.86 4.22-.85.57-1.94.97-3.04.97z"/></g><g><path fill="#D0D4E5" d="M1029.77 259.68h-.07c-.9-.13-1.54-.67-1.8-1.5-.37-1.12.02-2.6.9-3.46.68-.66 1.57-.86 2.44-.54l-.34.94c-.52-.2-1-.08-1.4.32-.6.58-.9 1.67-.66 2.42.15.46.46.73.94.82.88-.12 1.7-.68 2.18-1.5.44-.76.53-1.6.24-2.3l.92-.38c.42 1 .3 2.15-.3 3.18-.66 1.1-1.77 1.86-3 2h-.05z"/></g><g><path fill="#D0D4E5" d="M975.34 261.95c-.06 0-.1 0-.17-.03-1.23-.45-2-1.67-1.98-3.1.02-1.46.85-2.65 2.1-3.06l.3.95c-1 .34-1.4 1.36-1.4 2.13-.02.74.3 1.72 1.22 2.1 3.2-.3 6-2.73 6.57-5.65-.68-.3-1.52-.36-2.32-.14-.87.23-1.57.75-1.93 1.42l-.88-.47c.48-.92 1.4-1.62 2.55-1.93 1.2-.33 2.43-.18 3.38.4.17.12.26.3.23.5-.48 3.56-3.84 6.58-7.65 6.88h-.04z"/></g><g><path fill="#D0D4E5" d="M924.16 262.07c-.82 0-1.63-.23-2.35-.76-.05-.03-.1-.1-.14-.17-.48-1-.36-2.24.33-3.3.76-1.15 2.03-1.85 3.32-1.8l-.04 1c-.9-.04-1.88.5-2.45 1.36-.47.7-.6 1.52-.32 2.18 1.28.86 2.98.47 4.12-.32.95-.65 1.84-1.8 1.47-3.12l.96-.27c.42 1.52-.3 3.13-1.87 4.22-.85.57-1.95.97-3.04.97z"/></g><g><path fill="#D0D4E5" d="M873.27 263.36h-.07c-.9-.14-1.54-.67-1.8-1.5-.37-1.13.02-2.6.9-3.46.68-.66 1.57-.86 2.44-.55l-.34.94c-.52-.2-1-.1-1.4.3-.6.6-.9 1.7-.66 2.44.15.45.46.73.94.8.88-.1 1.7-.67 2.18-1.5.44-.75.53-1.58.24-2.28l.92-.38c.42 1 .3 2.15-.3 3.17-.66 1.12-1.77 1.87-3 2h-.05z"/></g><g><path fill="#D0D4E5" d="M818.84 265.63c-.05 0-.1 0-.17-.03-1.22-.45-2-1.67-1.97-3.1.02-1.46.85-2.66 2.1-3.06l.3.95c-1 .32-1.4 1.34-1.4 2.1-.02.75.3 1.73 1.22 2.12 3.2-.3 6-2.75 6.57-5.66-.68-.3-1.52-.37-2.32-.15-.87.25-1.57.76-1.92 1.43l-.9-.47c.5-.9 1.42-1.6 2.56-1.92 1.2-.32 2.43-.17 3.38.42.17.1.26.3.24.5-.48 3.54-3.85 6.56-7.66 6.87h-.04z"/></g><g><path fill="#D0D4E5" d="M767.66 265.74c-.8 0-1.63-.22-2.34-.75-.07-.06-.12-.12-.16-.2-.48-1-.36-2.23.33-3.28.75-1.17 2.03-1.86 3.32-1.82l-.04 1c-.97-.03-1.88.5-2.45 1.36-.47.72-.58 1.53-.32 2.2 1.3.86 2.98.46 4.13-.32.95-.66 1.83-1.82 1.47-3.13l.96-.26c.42 1.52-.3 3.14-1.87 4.22-.85.58-1.95.98-3.04.98z"/></g><g><path fill="#D0D4E5" d="M712.83 263.36h-.07c-.9-.14-1.54-.67-1.8-1.5-.37-1.13.02-2.6.9-3.46.67-.66 1.57-.86 2.44-.55l-.34.94c-.52-.2-1-.1-1.4.3-.6.6-.9 1.7-.66 2.44.14.45.46.73.94.8.88-.1 1.7-.67 2.18-1.5.44-.75.53-1.58.24-2.28l.92-.38c.4 1 .3 2.15-.3 3.17-.66 1.12-1.78 1.87-3 2h-.05z"/></g><g><path fill="#D0D4E5" d="M658.4 265.63c-.06 0-.12 0-.17-.03-1.23-.45-2-1.67-1.98-3.1.03-1.46.85-2.66 2.1-3.06l.3.95c-1 .32-1.4 1.34-1.4 2.1 0 .75.3 1.73 1.22 2.12 3.2-.3 6-2.75 6.57-5.66-.66-.3-1.5-.37-2.3-.15-.88.25-1.58.76-1.93 1.43l-.87-.47c.48-.9 1.4-1.6 2.54-1.92 1.2-.32 2.43-.17 3.4.42.16.1.25.3.22.5-.5 3.54-3.85 6.56-7.66 6.87h-.04z"/></g><g><path fill="#D0D4E5" d="M607.2 265.74c-.8 0-1.62-.22-2.33-.75-.07-.06-.12-.12-.15-.2-.48-1-.36-2.23.33-3.28.76-1.17 2.04-1.86 3.32-1.8l-.03.98c-.93-.03-1.88.5-2.45 1.36-.48.72-.6 1.53-.33 2.2 1.27.86 2.97.47 4.1-.32.96-.65 1.85-1.82 1.48-3.13l.96-.26c.44 1.52-.28 3.14-1.85 4.22-.85.58-1.94.98-3.03.98z"/></g></g><g><g><path fill="#EBEEF2" d="M741.67 811.1s57.95-574.86 70.15-686.95c9.18 1.22 18.5.73 27.96-1.48-13.47 124.4-76.12 690.44-76.12 690.44l-22-2z"/></g><g opacity=".5"><g><path fill="#FFF" d="M691.7 805.1s44.24-568.84 56-681.56c40.2.44 80.43-.84 120.53-3.84-12.73 125.1-70.6 701.4-70.6 701.4l-105.92-16z"/></g><g><g><path fill="#FFF" d="M690.42 806.13l3.53-43.72 1.75-21.28c.6-7.1 1.02-14.22 1.55-21.32.46-7.1 1.14-14.2 1.75-21.3l1.82-21.3 3.14-42.62 3.13-42.63c.48-7.1 1.1-14.2 1.7-21.3l1.82-21.3.9-10.64.8-10.65 1.57-21.3.8-10.67.9-10.65 1.8-21.3 1.87-21.28c.63-7.1 1.24-14.2 1.8-21.3l1.75-21.3c.6-7.1 1.18-14.2 1.68-21.3l1.6-21.3c.24-3.57.58-7.1.9-10.66l1-10.65 1.02-10.64c.3-3.54.52-7.1.8-10.65.25-3.55.46-7.1.77-10.65l.9-10.65 7.38-85.17c1.23-14.2 2.48-28.4 3.8-42.58l2.22-21.26c.73-7.1 1.6-14.16 2.17-21.27l.05-.57h.6c5.02 0 10.04 0 15.06-.04l7.54-.08c2.5-.05 5.02-.06 7.53-.05 10.05-.03 20.1-.18 30.14-.42 5-.12 10.03-.27 15.05-.44l7.53-.3 7.53-.4c5.03-.27 10.04-.57 15.05-.9 5.02-.33 10.03-.7 15.04-1.1l.63-.05-.06.66c-1.38 14.62-2.9 29.23-4.37 43.84l-4.46 43.84c-1.53 14.6-3.06 29.2-4.5 43.83l-4.08 43.87-8.46 87.7-4.62 43.83-1.16 10.95-1.05 10.97L834 470.5l-4.15 43.86c-1.5 14.6-3.2 29.2-4.53 43.83l-2.12 21.94c-.7 7.3-1.4 14.62-2.25 21.9-1.6 14.6-3.33 29.2-4.68 43.82-.74 7.3-1.37 14.63-2.18 21.92l-2.4 21.9-1.98 21.95-.5 5.48-.57 5.5-1.16 10.94c-1.65 14.6-3.15 29.2-4.67 43.82l-2.08 21.93-1.04 10.96-1.15 10.95-.1.98-.95-.15-26.47-4.14-26.5-3.8-13.27-1.9-13.24-1.96-27.6-4.1zm2.57-2.04l25.37 3.84 13.24 2 13.23 2.1 26.47 4.13 26.5 3.77-1.35 1.06 1.02-10.97 1.15-10.96 2.33-21.9c1.4-14.62 2.8-29.24 4.1-43.88l1.03-10.97.52-5.48.6-5.48c.85-7.3 1.83-14.58 2.55-21.88l2.02-21.95c.3-3.66.73-7.3 1.13-10.96l1.2-10.96c1.7-14.6 2.94-29.22 4.3-43.85.62-7.33 1.43-14.63 2.2-21.93l2.34-21.9c1.65-14.6 2.9-29.23 4.33-43.85l4.63-43.82 2.28-21.9 1.13-10.96 1-10.97c1.37-14.63 2.63-29.26 4.05-43.88l9.04-87.67 4.84-43.8c1.5-14.6 2.84-29.23 4.18-43.85l4.25-43.86c1.43-14.6 2.77-29.24 4.43-43.83l1.22 1.24c-5.02.33-10.04.65-15.07.92l-15.06.78-30.15 1.5c-5.03.24-10.05.45-15.08.64-2.52.1-5.03.18-7.55.23l-7.54.16c-2.52.04-5.03.08-7.55.06-2.5-.03-5.03 0-7.54-.1l-7.56-.2c-2.5-.1-5.03-.2-7.54-.24l1.05-.93c-1.58 14.15-2.5 28.37-3.55 42.58-.6 7.1-1.26 14.2-1.94 21.28l-1.96 21.3c-1.34 14.17-2.54 28.37-3.77 42.56l-3.64 42.6-.9 10.63c-.3 3.54-.7 7.08-1.05 10.63-.34 3.55-.72 7.1-1.03 10.64l-.8 10.65-.77 10.66c-.26 3.55-.5 7.1-.85 10.65l-1.94 21.28c-.67 7.1-1.27 14.2-1.86 21.3l-1.8 21.3c-1.2 14.2-2.3 28.4-3.43 42.6l-3.42 42.6-1.74 21.3-.83 10.66-.77 10.66-1.53 21.32c-.5 7.1-1.03 14.2-1.64 21.3l-3.53 42.6-3.5 42.6-1.5 21.32c-.52 7.1-.96 14.22-1.6 21.3-.57 7.1-1.26 14.2-1.75 21.3l-1.56 21.32-3.12 41.5z"/></g></g></g><g><path fill="#202E78" d="M690 806.48l3.58-44.1 1.78-21.3c.32-3.54.56-7.1.8-10.65l.72-10.66c.94-14.22 2.55-28.38 3.65-42.6l3.05-42.62 3.05-42.64c.48-7.1 1.06-14.2 1.66-21.3l1.9-21.28.94-10.65c.3-3.55.52-7.1.78-10.66l1.52-21.3.77-10.66.94-10.65 1.85-21.3 1.9-21.3.94-10.63.88-10.65 1.75-21.3c.6-7.1 1.2-14.2 1.66-21.3 1.03-14.22 1.92-28.44 3.54-42.6.73-7.1 1.43-14.18 1.78-21.3.38-7.12 1.07-14.2 1.66-21.3l7.45-85.18c1.25-14.2 2.4-28.4 3.8-42.57l2.3-21.26c.76-7.08 1.64-14.15 2.24-21.25l.06-.74h.76c5.02.04 10.04-.06 15.07-.13 2.5-.07 5-.06 7.52-.1 2.5-.03 5.02-.03 7.53-.02 10.05 0 20.1-.13 30.13-.35 5.03-.1 10.05-.25 15.07-.4l7.53-.28 7.53-.4c5.02-.3 10.04-.6 15.05-.93 5-.35 10.02-.73 15.03-1.13l.85-.06-.08.87c-1.35 14.63-2.88 29.23-4.36 43.84l-4.47 43.85c-1.55 14.6-3.1 29.2-4.52 43.82l-3.97 43.9-4.1 43.86-4.24 43.85c-1.5 14.6-3.15 29.2-4.75 43.8l-1.14 10.96-1.02 10.97-2.04 21.95-4.05 43.87-2.37 21.9c-.4 3.65-.83 7.3-1.17 10.96l-1.04 10.96-2.1 21.93c-.7 7.3-1.37 14.62-2.2 21.92-1.73 14.58-3.5 29.16-4.82 43.8l-1.06 10.95c-.35 3.66-.68 7.3-1.12 10.96L812 689.7c-.77 7.3-1.26 14.64-1.9 21.96l-.5 5.48-.6 5.48-1.17 10.95c-1.68 14.6-3.2 29.2-4.73 43.8l-2.04 21.94-1.03 10.98-1.17 10.95-.14 1.3-1.27-.2-26.45-4.2-26.53-3.7c-4.42-.63-8.84-1.2-13.26-1.86l-13.24-1.96L690 806.5zm3.4-2.73l25.02 3.8 13.24 2c4.42.68 8.82 1.42 13.23 2.12l26.44 4.2 26.53 3.67-1.8 1.4c.32-3.64.6-7.3.98-10.96l1.17-10.95 2.37-21.9c1.45-14.62 2.72-29.25 3.96-43.9.33-3.64.62-7.3 1-10.96l.53-5.48.6-5.48c.9-7.3 1.96-14.57 2.7-21.87.76-7.3 1.2-14.64 1.92-21.95.66-7.3 1.53-14.6 2.4-21.9.86-7.3 1.66-14.6 2.32-21.9.68-7.32 1.22-14.64 1.88-21.96.64-7.3 1.46-14.6 2.25-21.9l2.38-21.9 1.2-10.96c.4-3.65.7-7.3 1.05-10.97l2.05-21.92 4.7-43.8 2.3-21.92L835 437.4l1.02-10.96 1.84-21.96c.3-3.66.63-7.32.97-10.97.34-3.65.66-7.3 1.04-10.96l4.43-43.84 4.7-43.8 2.5-21.9 1.3-10.94 1.2-10.94c1.5-14.6 2.8-29.24 4.1-43.88l4.12-43.86c1.44-14.62 2.8-29.24 4.45-43.84l1.67 1.73-15.07.82-7.54.36-7.53.38c-5.03.24-10.05.47-15.07.77-5.03.26-10.05.5-15.08.8-5.02.28-10.05.52-15.08.73-2.5.1-5.03.2-7.54.26l-7.55.16c-2.52.05-5.03.1-7.55.06-2.52-.04-5.03-.02-7.55-.13l-7.55-.3c-2.5-.1-5.03-.24-7.54-.27l1.4-1.25-.6 5.3c-.2 1.78-.33 3.56-.5 5.33l-.46 5.33-.4 5.33c-.26 3.55-.47 7.1-.7 10.66l-.74 10.66c-.6 7.1-1.24 14.2-1.94 21.27l-2 21.28C740.4 223 739.22 237.2 738 251.4l-3.7 42.58c-.62 7.1-1.14 14.2-2 21.28-.86 7.08-1.4 14.18-1.85 21.3-.78 14.22-2.24 28.4-3.57 42.58-.7 7.1-1.32 14.2-1.9 21.3l-1.82 21.28c-1.23 14.2-2.3 28.4-3.44 42.6-1.14 14.2-2.2 28.4-3.42 42.6l-1.75 21.3-.84 10.66-.72 10.66-1.5 21.32-.74 10.66c-.25 3.56-.58 7.1-.87 10.65l-3.57 42.6-3.55 42.6-1.46 21.3c-.5 7.12-.9 14.23-1.57 21.33-.57 7.1-1.3 14.18-1.78 21.3l-1.53 21.3-3 41.15z"/></g><g><path fill="#202E78" d="M841.37 122.85l-.84 7.05-2.45 19.92c-.22 2.15-.35 4.43-.54 6.8-.2 2.4-.55 4.86-.93 7.44s-.8 5.26-1.12 8.05c-.34 2.8-.57 5.7-.87 8.7-.56 6-1.06 12.4-1.64 19.13l-1.02 10.33c-.4 3.53-.92 7.12-1.45 10.8-.3 1.82-.48 3.68-.73 5.56-.2 1.88-.4 3.78-.55 5.7-.3 3.85-.58 7.77-1.06 11.73l-1.55 12.1-1.65 12.44c-.94 8.42-2.1 17.07-2.68 25.98-.2 2.22-.4 4.45-.74 6.68-.32 2.23-.77 4.46-1.08 6.7-.37 2.26-.53 4.54-.62 6.84-.12 2.3-.45 4.58-.7 6.88-1.1 9.2-2.2 18.55-3.34 28.02l-1.6 14.3c-.25 2.4-.54 4.8-.83 7.2-.32 2.4-.72 4.8-1.08 7.2-.8 4.8-1.45 9.64-1.7 14.54-.3 4.9-.97 9.76-1.67 14.63-.36 2.44-.7 4.88-1.07 7.32-.3 2.44-.68 4.87-.9 7.33-.52 4.9-1.03 9.82-1.5 14.74-.45 4.92-1.07 9.83-1.6 14.73l-1.7 14.7c-.54 4.88-1.23 9.75-1.76 14.6-.63 4.87-.96 9.75-1.4 14.6-.8 9.7-1.7 19.3-2.62 28.8-.5 4.73-.97 9.44-1.45 14.12-.24 2.34-.55 4.66-.84 6.98l-1 6.9c-1.3 9.18-1.9 18.28-2.74 27.16l-.6 6.62c-.18 2.2-.37 4.38-.65 6.54l-.9 6.44c-.3 2.13-.5 4.26-.7 6.37l-.6 6.3c-.18 2.08-.36 4.15-.6 6.2-.4 4.1-1.05 8.12-1.7 12.07-1.34 7.9-1.5 15.64-2.74 22.96-.6 3.66-1 7.26-1.16 10.82-.08 1.77-.22 3.52-.4 5.24l-.66 5.1c-.93 6.68-1.85 13.02-2.45 19-.3 3-.55 5.92-.8 8.72-.14 1.4-.28 2.77-.4 4.12l-.5 3.96c-.76 5.16-1.4 9.9-1.7 14.22l-.94 11.5-.86 8.5c-.22 2.3-.42 4.06-.56 5.25l-.2 1.8c-.1.87-.92 1.5-1.8 1.4-.87-.1-1.44-.88-1.44-1.76 0 0 .1-.62.22-1.8.12-1.2.33-2.97.6-5.26l1-8.48c.4-3.33.96-7.15 1.55-11.44.58-4.28.96-9.05 1.28-14.26l.35-3.97.48-4.12 1.18-8.65c.7-5.98 1.16-12.37 1.66-19.1.25-3.38.6-6.83 1.32-10.32.73-3.48 1.16-7.1 1.33-10.8.3-7.42 2.26-14.97 2.68-22.96.27-4 .5-8.05 1.07-12.14.23-2.05.53-4.1.82-6.18l.85-6.27c.28-2.1.56-4.22.76-6.36l.54-6.48c.2-2.16.5-4.34.77-6.52.3-2.2.57-4.4.86-6.6 1.1-8.85 2.47-17.86 3.07-27.1l.46-6.98c.2-2.33.38-4.66.65-7l1.6-14.12c.53-4.74 1.18-9.5 1.77-14.27.6-4.8 1.22-9.6 2.02-14.4.76-4.8 1.44-9.64 1.92-14.5.42-4.9.77-9.8 1.23-14.7.92-9.8 1.83-19.64 3.07-29.44.66-4.9 1.54-9.76 2.04-14.67.16-1.22.28-2.45.37-3.68l.3-3.7c.15-2.45.3-4.92.43-7.38.1-2.46.33-4.9.55-7.35.18-2.45.6-4.88 1.1-7.28 1.15-4.8 1.56-9.67 1.7-14.55.07-2.45.2-4.87.4-7.3.25-2.4.5-4.8.83-7.2l1.84-14.25 3.26-28.03c.28-2.3.5-4.6.92-6.85.45-2.26.84-4.52 1-6.8.22-2.26.3-4.52.5-6.77.2-2.24.5-4.46.8-6.67 1.4-8.82 2.34-17.5 3.38-25.92l2.67-24.58 1.38-11.7.63-5.7c.17-1.88.37-3.74.5-5.6.26-3.68.53-7.3.9-10.83.4-3.54.85-6.97 1.26-10.32.83-6.7 1.6-13.07 2.35-19.04.37-3 .78-5.88 1.05-8.68.3-2.8.46-5.5.66-8.1.2-2.6.4-5.1.7-7.46.34-2.37.64-4.63.94-6.77.83-8.6 1.5-15.37 1.93-19.98l.72-7.06c.08-.9.86-1.53 1.74-1.44.88.08 1.52.87 1.43 1.75v.05z"/></g></g><g><g fill="#FFF"><path d="M701.38 727.7c15.08 15.4 30.15 30.82 45.22 46.23-2.48 9.58-8 23.8-12.23 34.14-3.1 7.6-5.5 13.1-5.5 13.1l-6.85-6.93-31.2-31.6s-3.27-20.42-1.88-30.23c1.4-9.8 5.33-19.3 12.44-24.7z"/><path d="M729.34 823.78l-39.93-40.42-.06-.48c-.14-.84-3.28-20.76-1.88-30.68 1.6-11.42 6.24-20.54 13.02-25.7l1.05-.8 46.74 47.78-.22.82c-2.52 9.7-8.07 24.03-12.3 34.34-3.07 7.53-5.5 13.07-5.52 13.12l-.9 2.02zm-37.12-41.84l36.14 36.6c.98-2.27 2.67-6.25 4.63-11.04 4.05-9.93 9.37-23.6 11.94-33.13l-43.67-44.64c-5.6 4.8-9.42 12.86-10.84 22.9-1.23 8.65 1.32 26.2 1.8 29.3z"/></g><g fill="#FFF"><path d="M747.3 770.93l-.4 3.28-.3-.27c.28-1.06.5-2.07.7-3z"/><path d="M747.98 777.45l-3.04-3.07.2-.83c.28-1.04.5-2.02.7-2.93l2.96.5-.82 6.33z"/></g><g><g><path fill="#202E78" d="M586.8 417.13L691 778.6l7.73-20.93 20.5 17.6 7.77-20.9 20.4 17.3-104.04-370.5"/></g><g><path fill="#202E78" d="M587.93 416.8l13 45.2 6.42 22.6 6.73 22.54 3.37 11.27 3.28 11.3 6.54 22.58 12.9 45.22 12.94 45.2 12.85 45.25 12.78 45.25 6.53 22.6 6.46 22.6-1.45-.06 7.82-20.9c.12-.36.5-.54.86-.4.08.02.15.07.2.12 3.42 2.94 6.82 5.9 10.25 8.8l10.3 8.78-1.12.3c2.56-7 5.15-13.96 7.75-20.92.14-.36.54-.55.9-.42.1.03.16.08.22.13l20.38 17.32-1.06.7c-2.17-7.73-4.3-15.46-6.5-23.17l-6.73-23.1-13.13-46.27-13.12-46.26-6.57-23.13-6.4-23.17c-2.15-7.73-4.24-15.47-6.43-23.18l-6.54-23.14-6.54-23.14c-2.2-7.7-4.27-15.46-6.4-23.18-2.12-7.74-4.24-15.47-6.45-23.17l-6.56-23.13-13.18-46.27 2.27-.63 13.06 46.3 6.54 23.13c2.15 7.72 4.4 15.42 6.63 23.12 2.2 7.7 4.48 15.4 6.6 23.13l6.42 23.17 12.87 46.35 6.46 23.17 6.35 23.2 3.2 11.58 3.3 11.57 6.6 23.12 13.17 46.26 6.22 23.23c2.13 7.74 4.43 15.43 6.63 23.13.18.64-.18 1.3-.82 1.48-.4.12-.8.02-1.1-.22l-20.55-17.14 2.23-.6-3.78 10.5c-.64 1.74-1.3 3.48-1.96 5.22l-1.96 5.2v.03c-.3.74-1.12 1.1-1.87.83-.16-.06-.3-.15-.44-.26l-10.2-8.87c-1.7-1.48-3.38-2.98-5.1-4.43l-5.14-4.4 2.12-.54-7.7 20.96c-.27.7-1.06 1.06-1.77.8-.4-.16-.72-.5-.84-.9l-6.5-22.6-6.4-22.63-6.7-22.54-1.67-5.63-1.6-5.67-3.15-11.32-6.3-22.64c-2.14-7.54-4.4-15.05-6.46-22.6l-6.3-22.66c-2.13-7.55-4.2-15.1-6.43-22.62l-13.2-45.14-6.6-22.56-3.3-11.3-3.2-11.3-6.4-22.62-6.67-22.55-13.14-45.14 2.27-.66z"/></g></g><g><g><path fill="#202E78" d="M734.37 808.07c-3.1 7.6-5.5 13.1-5.5 13.1l-6.85-6.93c2.76-2.84 6.2-4.88 9.93-5.84.76-.2 1.58-.32 2.42-.33z"/></g><g><path fill="#202E78" d="M735.46 808.53c-.2.56-.47 1.1-.7 1.63-.12.27-.24.54-.43.8-.18.23-.23.53-.3.83-.04.3-.06.6-.13.9-.05.3-.15.57-.25.85-.08.3-.23.54-.34.82l-.38.8c-.26.53-.55 1.05-.8 1.6l-.75 1.6-.85 1.57c-.26.53-.57 1.04-.9 1.55l-.13.22c-.22.35-.67.46-1.02.25-.1-.06-.17-.13-.22-.2-.24-.35-.54-.62-.83-.9-.3-.28-.55-.6-.83-.9-.26-.3-.5-.64-.78-.94-.26-.3-.6-.55-.9-.83-.3-.27-.54-.6-.82-.9-.27-.3-.52-.6-.82-.9-.15-.13-.27-.3-.44-.4-.15-.14-.35-.23-.54-.33-.37-.2-.64-.5-.95-.76-.37-.3-.4-.84-.1-1.2l.1-.12c.4-.46.8-.92 1.26-1.34.45-.43.92-.83 1.37-1.26.46-.42.97-.8 1.54-1.05.6-.24 1.14-.5 1.68-.8.54-.32 1.07-.64 1.65-.87.28-.12.58-.2.9-.25.3-.04.6-.1.9-.18l.9-.3c.27-.1.58-.2.9-.28.63-.17 1.27-.3 1.92-.35.62-.07 1.17.38 1.23 1 0 .17 0 .34-.07.5l-.04.13zm-2.84 1c-.18.03-.35.07-.54.13l-.78.27c-.52.2-.94.63-1.46.8-.5.2-1.04.34-1.55.55-.53.18-1 .46-1.5.73-.24.14-.46.3-.72.42-.24.14-.52.23-.76.37-.25.12-.5.28-.7.47-.2.2-.4.38-.6.6-.18.2-.35.42-.53.64-.2.22-.35.46-.54.66v-1.84l.44.4c.15.14.3.3.36.5.1.2.15.43.28.58.13.16.3.28.45.4.64.5 1.45.85 2 1.44.25.33.42.73.72 1 .28.3.6.54.9.82.27.3.58.57.82.9l.38.48c.13.16.3.28.47.4l-2.16.4c.05-.3.07-.6.2-.88.12-.26.28-.52.48-.76.2-.23.38-.48.54-.73.16-.25.2-.56.35-.82.17-.25.34-.5.54-.74.18-.23.36-.48.5-.74.15-.26.25-.54.36-.8l.26-.86.5-1.72c.15-.58.47-1.1.8-1.6.12-.26.28-.52.3-.82.03-.23.1-.43.16-.64z"/></g></g><g><g><path fill="#FFF" d="M700.68 763.22L601.7 413.28"/></g><g><path fill="#FFF" d="M699.53 763.55l-1.08-3.94c-.7-2.57-1.7-6.34-2.98-11.14l-1.22-3.74c-.4-1.3-.76-2.7-1.1-4.16-.34-1.47-.66-3-1.1-4.55-.43-1.55-.97-3.14-1.47-4.8l-3.3-10.53c-.56-1.86-1.17-3.76-1.75-5.7-.56-1.97-1.03-4-1.53-6.08-.5-2.1-1.08-4.18-1.76-6.3-.7-2.1-1.43-4.24-2.03-6.46-1.16-4.44-2.33-9.05-3.52-13.8-1.33-4.68-2.56-9.55-4.25-14.4-.38-1.22-.76-2.46-1.05-3.72-.3-1.26-.52-2.55-.82-3.83-.28-1.3-.7-2.53-1.18-3.77-.46-1.24-.77-2.53-1.13-3.8l-4.27-15.67-2.25-7.96c-.4-1.33-.76-2.67-1.12-4-.32-1.37-.6-2.74-.93-4.1-.57-2.74-1.26-5.47-2.25-8.1-.95-2.67-1.62-5.42-2.27-8.17-.65-2.76-1.28-5.53-2.07-8.26l-2.43-8.17c-1.63-5.44-3.08-10.93-4.63-16.38l-2.2-8.18c-.7-2.72-1.62-5.38-2.45-8.06-1.74-5.32-3.36-10.63-4.96-15.87l-2.3-7.83c-.4-1.3-.7-2.6-1.06-3.9l-.95-3.9c-2.7-10.32-6.4-19.98-8.6-29.5-.7-2.34-1.45-4.63-2.1-6.9-.7-2.28-1.17-4.57-1.65-6.82-.93-4.52-2.62-8.65-3.5-12.84-.78-4.2-2.7-7.9-3.42-11.72-.9-3.8-1.83-7.35-2.77-10.7-.5-1.64-1-3.24-1.5-4.8l-.68-2.27-.57-2.2c-.7-2.92-1.36-5.6-2.18-7.95l-2.04-6.32-1.4-4.7c-.4-1.27-.67-2.26-.85-2.92-.2-.65-.28-1-.28-1l2.3-.65.3 1c.2.66.48 1.65.82 2.93.36 1.28.8 2.87 1.3 4.73.5 1.87 1 4.04 1.64 6.44.58 2.43 1.45 5.04 2.45 7.87 1 2.84 1.68 6.02 2.55 9.37.92 3.34 2.1 6.84 3.34 10.52.6 1.84 1.2 3.74 1.5 5.78.3 2.03.86 4.04 1.6 6.04 1.55 4 1.96 8.5 3.55 12.82.74 2.17 1.53 4.38 2.1 6.68.62 2.3 1.15 4.64 1.77 7 .53 2.4 1.34 4.74 2.1 7.12.73 2.4 1.3 4.88 1.96 7.36 1.3 4.95 2.47 10.07 4.23 15.1l1.32 3.8c.4 1.28.83 2.56 1.2 3.86l2.22 7.87c.74 2.64 1.4 5.32 2.12 8 .7 2.67 1.4 5.37 1.97 8.12.58 2.74 1.25 5.47 2.06 8.16.85 2.7 1.77 5.38 2.6 8.08 1.67 5.4 3.35 10.84 4.78 16.34.7 2.76 1.23 5.56 2.04 8.28.34 1.38.84 2.7 1.26 4.07l1.44 4c.5 1.33.93 2.68 1.35 4.03.46 1.34.74 2.72.95 4.13.33 2.83 1.2 5.5 2.25 8.1 1.06 2.62 1.88 5.28 2.54 7.98l2.08 8 4.32 15.65c.34 1.3.73 2.56.97 3.86.2 1.33.47 2.62.9 3.86.38 1.25.85 2.47 1.24 3.7.4 1.24.7 2.5 1 3.74 1.1 5.02 2.5 9.84 3.75 14.56l3.93 13.67c.6 2.22 1.2 4.4 1.8 6.53.3 1.07.57 2.13.9 3.17.33 1.04.66 2.06 1 3.07.64 2.04 1.33 4 1.9 5.97.54 1.96 1.03 3.9 1.54 5.77l2.84 10.66c.45 1.67.85 3.3 1.3 4.85.46 1.55 1 3.03 1.47 4.45.48 1.42.92 2.8 1.27 4.12l.95 3.8 3.35 11.06 1.16 3.9-2.3.67z"/></g></g><g fill="#7084CB"><path d="M579.4 386.86c-2.66-5.5-5.4-12-3.27-17.3 1.08-2.72 3.26-4.56 5.33-6.34 9.13-7.85 17.64-16.57 25.42-26.07 2.3-2.8 5.24-5.92 8.74-4.9 2.77.8 4.6 3.9 6.02 6.77 5.44 11.06 9.07 22 11.3 34.12"/><path d="M578.06 387.52c-3.06-6.3-5.58-12.9-3.33-18.53 1.2-3 3.56-5.03 5.64-6.82l.12-.1c9.03-7.77 17.52-16.48 25.23-25.88 1.8-2.2 5.56-6.78 10.3-5.4 3.33.96 5.4 4.36 6.96 7.56 5.52 11.23 9.15 22.2 11.42 34.5l-2.95.55c-2.22-12.02-5.77-22.74-11.17-33.72-1.2-2.45-2.88-5.36-5.1-6-2.5-.73-4.92 1.7-7.16 4.42-7.8 9.54-16.43 18.37-25.6 26.25l-.12.1c-2 1.72-3.88 3.34-4.8 5.65-1.82 4.55.48 10.43 3.23 16.1l-2.7 1.32z"/></g><g><g><path fill="#FFF" d="M729.63 763.1L626.6 406.44"/></g><g><path fill="#FFF" d="M728.47 763.44l-1.12-4.02-3.1-11.36-1.28-3.8c-.42-1.35-.78-2.77-1.14-4.26-.36-1.5-.7-3.04-1.16-4.63-.44-1.6-1-3.2-1.52-4.9l-3.4-10.74c-.6-1.9-1.24-3.82-1.83-5.82-.6-2-1.1-4.06-1.6-6.18-.53-2.1-1.13-4.25-1.84-6.4-.72-2.14-1.47-4.33-2.1-6.6-1.22-4.52-2.44-9.2-3.7-14.04-1.38-4.8-2.67-9.75-4.4-14.7-.4-1.24-.8-2.5-1.1-3.78-.32-1.3-.55-2.6-.87-3.9-.28-1.3-.72-2.58-1.2-3.84-.48-1.27-.8-2.58-1.2-3.9l-4.43-15.95-2.35-8.1c-.4-1.35-.78-2.72-1.16-4.1-.35-1.37-.65-2.76-1-4.15-.6-2.8-1.3-5.58-2.33-8.27-.98-2.7-1.68-5.5-2.37-8.32-.67-2.8-1.34-5.63-2.16-8.4l-2.52-8.34c-1.7-5.55-3.22-11.15-4.82-16.7l-2.3-8.33c-.74-2.8-1.7-5.5-2.54-8.23-1.8-5.42-3.48-10.83-5.14-16.18l-2.4-8c-.4-1.32-.75-2.65-1.12-3.97l-.98-3.98c-2.8-10.5-6.6-20.36-8.94-30.06-.72-2.4-1.5-4.73-2.18-7.06-.72-2.3-1.22-4.65-1.73-6.94-.98-4.6-2.72-8.82-3.63-13.08-.84-4.3-2.8-8.06-3.57-11.97-.95-3.85-1.92-7.5-2.9-10.88-.52-1.7-1.04-3.32-1.54-4.9l-.73-2.32-.6-2.27c-.75-2.96-1.43-5.7-2.27-8.1l-2.12-6.43-1.45-4.8c-.4-1.3-.7-2.3-.88-2.97l-.3-1.02 2.3-.67.3 1 .87 3 1.36 4.82c.53 1.9 1.04 4.1 1.7 6.56.6 2.46 1.5 5.13 2.54 8.02 1.03 2.88 1.75 6.12 2.66 9.54.95 3.4 2.17 6.96 3.46 10.72.63 1.88 1.23 3.82 1.56 5.9.34 2.06.9 4.12 1.7 6.16 1.57 4.07 2.04 8.65 3.67 13.06.78 2.22 1.6 4.46 2.2 6.8.64 2.35 1.2 4.75 1.84 7.15.57 2.44 1.4 4.83 2.2 7.26.75 2.43 1.34 4.96 2.03 7.48 1.37 5.05 2.6 10.27 4.4 15.4l1.38 3.87c.42 1.3.87 2.6 1.25 3.94l2.3 8c.78 2.7 1.48 5.42 2.22 8.15.74 2.74 1.46 5.5 2.07 8.28.62 2.8 1.32 5.58 2.17 8.33.9 2.73 1.83 5.46 2.7 8.22 1.72 5.5 3.47 11.05 4.97 16.65.73 2.8 1.3 5.67 2.12 8.44.36 1.4.87 2.77 1.3 4.15l1.5 4.08c.52 1.35.96 2.73 1.4 4.1.47 1.37.77 2.78.98 4.2.37 2.9 1.26 5.63 2.35 8.28 1.1 2.66 1.94 5.37 2.63 8.12l2.17 8.16 4.5 15.94c.36 1.3.77 2.6 1.02 3.94.23 1.33.5 2.65.94 3.92.4 1.27.88 2.5 1.28 3.77.4 1.26.74 2.53 1.06 3.8 1.14 5.12 2.6 10.03 3.9 14.85l4.1 13.93 1.85 6.67c.3 1.1.6 2.17.93 3.23l1.03 3.13c.68 2.07 1.4 4.08 1.97 6.08.58 2 1.1 3.98 1.62 5.9l2.96 10.86c.48 1.7.9 3.36 1.38 4.94.47 1.6 1 3.1 1.5 4.54.5 1.45.95 2.84 1.32 4.2.34 1.36.67 2.65 1 3.88l3.47 11.26c.8 2.6 1.2 4 1.2 4l-2.3.66z"/></g></g><g><path fill="#202E78" d="M586.2 419.1c-.43-1.27-.84-2.55-1.25-3.84-.4-1.3-.82-2.58-1.2-3.87-.2-.66-.34-1.33-.52-1.98-.2-.65-.43-1.28-.7-1.9-.48-1.27-1.1-2.5-1.6-3.75-.25-.62-.48-1.26-.7-1.9-.22-.64-.46-1.27-.67-1.9-.4-1.3-.82-2.6-1.2-3.9l-2.33-7.75-.52-1.73 1.68-.47 3.54-1c1.17-.34 2.37-.63 3.56-.93 2.38-.58 4.74-1.25 7.15-1.76 1.2-.27 2.4-.54 3.56-.92l1.74-.55 1.78-.5c1.18-.32 2.37-.6 3.56-.9l1.77-.48 1.75-.58 1.75-.58 1.77-.48 3.55-.97c1.18-.36 2.36-.66 3.5-1.12 1.13-.5 2.26-1 3.44-1.36 2.34-.77 4.67-1.54 7-2.28 1.17-.38 2.35-.72 3.5-1.14 1.16-.4 2.32-.78 3.5-1.15l1.48-.47.53 1.56c.25.7.42 1.4.62 2.12l.53 2.14c.33 1.43.73 2.85 1.17 4.26.42 1.4.9 2.8 1.35 4.2.46 1.4.9 2.8 1.27 4.22.2.7.34 1.44.5 2.15.16.73.35 1.43.54 2.15.44 1.4.84 2.8 1.32 4.2l2.8 8.37c.28.83-.16 1.72-.98 2-.83.28-1.72-.17-2-1v-.02l-.02-.07-2.63-8.43c-.42-1.4-.88-2.8-1.33-4.2-.25-.7-.5-1.4-.77-2.07-.26-.7-.55-1.37-.78-2.07-.25-.7-.45-1.42-.65-2.12l-.6-2.13-1.1-4.27c-.35-1.43-.78-2.84-1.18-4.25l-.6-2.13c-.2-.7-.42-1.4-.6-2.13l2.06 1.1c-1.2.3-2.4.5-3.6.82-1.2.3-2.34.73-3.5 1.1l-3.48 1.23c-1.15.42-2.3.8-3.48 1.17-.6.18-1.16.4-1.77.5-.6.1-1.23.15-1.85.23-.62.08-1.2.3-1.77.5-.58.2-1.16.4-1.73.63-1.14.46-2.27.96-3.42 1.4-1.15.42-2.3.88-3.52 1.06-1.22.17-2.4.54-3.56.9-1.16.4-2.32.8-3.5 1.12l-1.77.5-1.8.43c-1.2.27-2.34.7-3.46 1.22-1.12.5-2.32.77-3.53 1-1.2.22-2.44.4-3.63.7-.6.14-1.16.38-1.76.54-.58.18-1.2.27-1.8.4-1.2.24-2.43.4-3.62.7l.67-1.27c.18.65.36 1.3.58 1.94.22.65.42 1.3.66 1.93.45 1.28.93 2.54 1.4 3.8.93 2.55 2 5.04 2.76 7.64.4 1.3.68 2.62 1.07 3.9.18.66.37 1.3.62 1.94.26.64.55 1.25.8 1.88.46 1.27.9 2.55 1.35 3.82.46 1.27.9 2.55 1.33 3.83.28.83-.17 1.72-1 2-.82.27-1.7-.17-1.98-1v-.02z"/></g><g><path fill="#202E78" d="M573.84 392.77s1.04-.33 2.9-.83c.46-.1.96-.3 1.54-.37.6-.03 1.17-.25 1.8-.53.6-.3 1.22-.67 1.92-.95.7-.27 1.44-.55 2.24-.75 1.58-.43 3.32-.8 5.15-1.25 1.8-.5 3.72-1 5.74-1.4 1-.2 2-.47 3.07-.62l1.58-.3 1.53-.46c2.07-.64 4.3-.85 6.32-1.68 1.04-.35 2.12-.56 3.17-.84.52-.12 1.05-.26 1.56-.42.53-.14 1.03-.35 1.5-.63.97-.55 2-.8 3-1.16 1-.36 2-.68 2.97-1 1.97-.56 3.76-1.48 5.64-1.77 1.88-.26 3.55-.87 5.1-1.4.78-.26 1.53-.5 2.27-.63.75-.1 1.46-.2 2.1-.4 1.28-.36 2.37-.76 3.27-1.1l2.85-1c.82-.3 1.72.12 2 .94.3.82-.12 1.72-.94 2.02h-.04l-.14.06-2.86.9c-.92.28-2.04.6-3.3 1.04-.63.2-1.27.54-1.96.85-.7.3-1.46.48-2.26.67-1.6.34-3.36.7-5.17 1.2-.9.24-1.84.48-2.84.6-1 .1-1.94.46-2.9.8-.98.33-1.94.74-2.93 1.1-.5.2-1 .35-1.5.52-.5.18-1.03.32-1.6.26-.3 0-.57-.02-.84.03-.27.04-.52.14-.78.23-.5.18-1 .42-1.5.66-1 .47-1.98 1-3.04 1.27-.54.1-1.1.1-1.64.23-.54.1-1.06.3-1.57.47-1.03.37-2.07.65-3.12.9-.52.1-1.06.2-1.56.35-.5.17-1 .43-1.47.67-.96.47-2.03.5-3.07.6-.52.05-1.04.1-1.5.26-.5.18-.96.3-1.46.36-.98.16-2 .15-2.9.4-.92.2-1.8.5-2.6.8l-2.4.94c-.77.3-1.5.6-2.23.8-.7.18-1.42.27-2.08.4-.65.13-1.25.3-1.77.6-.52.27-1.03.4-1.48.57-1.8.65-2.85.96-2.85.96-.84.24-1.7-.23-1.96-1.06-.25-.83.2-1.7 1.03-1.95l.04-.03z"/></g><g><path fill="#202E78" d="M576.67 401.3s1.04-.32 2.9-.8c.46-.13.96-.3 1.54-.38.6-.04 1.18-.26 1.8-.54.6-.3 1.23-.67 1.93-.95.7-.26 1.44-.54 2.24-.73 1.58-.43 3.32-.82 5.14-1.26 1.83-.5 3.75-1 5.77-1.4 1-.2 2-.46 3.06-.62.53-.08 1.05-.2 1.58-.3.52-.14 1.03-.3 1.54-.46 2.06-.63 4.28-.85 6.3-1.68 1.05-.35 2.13-.55 3.18-.83.53-.13 1.06-.27 1.57-.43.52-.14 1.02-.34 1.5-.62.96-.56 2-.8 3-1.17 1-.35 1.98-.67 2.95-.98 1.98-.57 3.77-1.5 5.65-1.77 1.88-.27 3.55-.88 5.1-1.42.78-.25 1.53-.48 2.27-.6.75-.12 1.46-.2 2.1-.4 1.28-.37 2.37-.78 3.27-1.1l2.84-1.02c.82-.3 1.72.13 2 .94.3.82-.12 1.72-.94 2.02 0 0-.03 0-.05.02l-.15.04-2.87.9c-.9.3-2.03.6-3.3 1.04-.62.2-1.26.54-1.95.85-.7.3-1.46.47-2.26.67-1.6.34-3.36.68-5.17 1.2-.9.23-1.84.47-2.84.58-1 .1-1.94.47-2.9.8-.98.34-1.94.75-2.93 1.12-.5.2-1 .34-1.5.52s-1.03.32-1.6.27c-.3 0-.57 0-.84.04-.28.05-.53.14-.8.24-.5.17-1 .4-1.5.65-1 .48-1.97 1-3.03 1.28-.54.12-1.1.1-1.64.24-.54.1-1.06.3-1.57.47-1.03.38-2.07.67-3.12.9-.53.12-1.07.2-1.58.36-.5.17-.98.44-1.46.67-.96.48-2.04.5-3.08.6-.5.06-1.03.1-1.5.27-.48.18-.95.32-1.45.36-1 .16-2 .15-2.9.4-.92.2-1.8.5-2.6.8l-2.4.94c-.77.3-1.5.6-2.23.8-.72.18-1.44.27-2.1.4-.65.13-1.25.3-1.76.6-.52.27-1.03.4-1.48.58-1.8.64-2.86.96-2.86.96-.83.24-1.7-.23-1.95-1.06-.26-.82.2-1.7 1-1.95l.07-.02z"/></g><g><path fill="#202E78" d="M579.5 409.86s1.04-.34 2.9-.83c.46-.12.96-.3 1.54-.37.6-.03 1.17-.25 1.78-.53.6-.3 1.24-.67 1.94-.95.7-.27 1.44-.54 2.24-.74 1.58-.43 3.32-.8 5.14-1.26 1.82-.48 3.74-1 5.76-1.38 1-.2 2-.48 3.06-.63l1.57-.3 1.54-.46c2.06-.63 4.27-.84 6.3-1.68 1.05-.34 2.13-.55 3.18-.83.53-.13 1.05-.27 1.57-.43.53-.14 1.03-.35 1.5-.63.97-.55 2-.8 3-1.16 1-.35 2-.67 2.96-1 1.97-.56 3.77-1.47 5.65-1.76 1.88-.27 3.55-.88 5.1-1.4.78-.26 1.53-.5 2.27-.63.75-.1 1.46-.2 2.1-.4 1.28-.37 2.37-.77 3.27-1.1l2.84-1.02c.82-.3 1.72.13 2.02.95.3.82-.13 1.72-.95 2-.02.02-.03.03-.05.03l-.14.04-2.87.9c-.9.3-2.02.6-3.28 1.04-.63.2-1.27.54-1.96.86-.7.28-1.46.47-2.26.66-1.6.34-3.36.68-5.17 1.2-.9.24-1.84.48-2.84.58-1 .1-1.95.47-2.92.8-.97.35-1.94.75-2.93 1.13-.5.2-1 .34-1.5.5-.5.2-1.02.34-1.6.28-.28 0-.57-.02-.83.03-.27.05-.52.15-.78.24-.5.18-1 .4-1.5.66-1 .48-1.98 1-3.05 1.27-.54.1-1.1.1-1.65.24-.53.1-1.05.28-1.56.46-1.04.37-2.1.65-3.13.9-.53.1-1.07.18-1.58.35-.5.18-1 .44-1.47.68-.96.47-2.04.5-3.08.6-.5.06-1.03.1-1.5.26-.48.18-.96.32-1.46.37-1 .17-2 .15-2.9.4-.92.2-1.8.5-2.62.82l-2.4.93c-.76.3-1.5.6-2.2.78-.73.2-1.45.28-2.1.4-.66.15-1.26.32-1.77.62-.5.26-1.02.4-1.48.57-1.8.65-2.85.96-2.85.96-.83.25-1.7-.22-1.95-1.06-.25-.82.2-1.7 1.02-1.95h.06z"/></g></g><g><g fill="#7084CB"><path d="M794.44 471.56c4.35-33.45 8.9-67.08 16.48-99.8s18.4-64.78 33.6-90.46c4.03-6.8 9.74-13.7 14.2-10.5 2 1.45 3.2 4.68 4.16 7.96 7 24 4.33 55.06.9 84.16-4.66 39.62-10.5 79.2-17.47 118.52l-51.86-9.88z"/><path d="M847.52 483.2l-54.75-10.43.18-1.4c4.66-35.83 9.12-68.08 16.5-99.95 8.55-36.87 19.92-67.44 33.78-90.88 2.9-4.92 7.32-10.98 11.83-11.92 1.62-.33 3.2 0 4.53.97 2.43 1.74 3.75 5.4 4.72 8.74 7.2 24.66 4.26 56.68.96 84.76-4.65 39.5-10.54 79.4-17.5 118.6l-.26 1.5zm-51.4-12.85l48.98 9.34c6.83-38.68 12.6-78 17.2-116.95 3.27-27.8 6.17-59.45-.86-83.57-.78-2.68-1.9-5.93-3.6-7.16-.67-.48-1.36-.63-2.17-.46-2.64.55-6.23 4.38-9.86 10.5-13.7 23.18-24.95 53.47-33.42 90.03-7.26 31.32-11.7 63.07-16.27 98.25z"/></g><g fill="#5D73C4"><path d="M851.96 448.9c-4.92.33-9.83.65-14.76 1-1.87.1-3.8.26-5.46 1.43-2.13 1.5-3.32 4.38-4.92 6.68-3.72 5.42-10.15 7.77-15.4 5.66-2.68-1.06-5-3.13-7.7-4.16-2.66-1.02-6.33-.73-7.88 2.17l3.88-23.02 52.24 10.24z"/><path d="M815.4 465.92c-1.56 0-3.1-.28-4.55-.86-1.43-.58-2.73-1.4-4-2.17-1.24-.8-2.42-1.52-3.65-2-1.75-.67-4.8-.83-6.04 1.48-.35.65-1.12.95-1.8.7-.7-.23-1.12-.94-1-1.66l3.9-23.02c.05-.4.28-.75.6-.98.35-.23.76-.32 1.15-.24l52.25 10.24c.74.15 1.26.82 1.2 1.57-.04.74-.64 1.34-1.4 1.4l-14.75.98c-1.65.1-3.35.23-4.7 1.18-1.24.88-2.17 2.44-3.15 4.1-.44.73-.9 1.5-1.4 2.2-3.08 4.48-7.94 7.06-12.66 7.06zm-14.56-8.45c1.18 0 2.36.22 3.43.63 1.5.58 2.85 1.42 4.17 2.24 1.2.75 2.34 1.46 3.52 1.93 4.6 1.84 10.32-.3 13.63-5.1.43-.65.84-1.33 1.27-2.06 1.1-1.84 2.24-3.75 4-5 2.03-1.43 4.36-1.6 6.23-1.7l3.34-.24-39.5-7.74-2.96 17.54c.9-.34 1.88-.5 2.86-.5z"/></g><g fill="#7084CB"><path d="M793.72 437.5c4.04-33.53 8.3-67.2 16.4-99.83 8.07-32.63 20.2-64.44 38-89.62 4.73-6.67 11.53-13.37 17.2-9.93 2.53 1.55 4.16 4.86 5.48 8.2 9.66 24.53 7.6 55.7 4.55 84.86-4.18 39.7-9.8 79.33-16.88 118.64l-64.75-12.33z"/><path d="M859.68 451.57l-67.62-12.87.17-1.4c4.33-35.9 8.55-68.2 16.43-100 9.1-36.78 21.98-67.1 38.24-90.11 7.02-9.94 13.84-13.62 19.2-10.36 3 1.83 4.76 5.55 6.1 8.94 9.93 25.22 7.6 57.4 4.64 85.56-4.17 39.6-9.85 79.55-16.9 118.74l-.26 1.5zm-64.3-15.3l61.9 11.8c6.9-38.66 12.47-78.02 16.57-117.04 2.93-27.82 5.24-59.56-4.44-84.15-1.08-2.76-2.6-6.1-4.87-7.48-5.34-3.24-12.4 5.57-15.18 9.52-16.05 22.7-28.76 52.68-37.78 89.1-7.74 31.22-11.94 63-16.2 98.26z"/></g><g fill="#7084CB"><path d="M794.13 470.78c-6.3 33.1-31.45 191.77-34.44 225.32s-2.65 67.6 3.87 97.2c1.73 7.84 5.04 16.37 10.33 14.9 2.37-.65 4.55-3.27 6.5-6.03 14.24-20.2 21.42-50.43 27.27-79.1 7.95-39.02 33.7-203.76 39.35-243.33l-52.9-8.96z"/><path d="M772.72 809.88c-1.04 0-2.04-.3-3-.87-4.02-2.42-6.36-9.7-7.6-15.38-5.97-27-7.28-59.86-3.92-97.65 2.94-33.03 28.17-192.5 34.46-225.47l.28-1.44 55.77 9.45-.2 1.46c-5.33 37.4-31.33 204-39.37 243.42-5.63 27.66-12.87 58.9-27.5 79.65-2 2.83-4.43 5.82-7.33 6.62-.53.15-1.06.23-1.58.23zm22.6-337.37c-6.7 35.9-31.24 191.22-34.13 223.73-3.35 37.5-2.05 70.04 3.84 96.74 1.56 7.12 3.84 12.03 6.23 13.47.73.44 1.44.54 2.23.32 2-.55 4.1-3.2 5.67-5.46 14.3-20.27 21.45-51.16 27.03-78.52 7.92-38.9 33.37-201.77 39.12-241.8l-50-8.47z"/></g><g><path fill="#202E78" d="M878.95 289.2l.77.2.67.16c.48.1.96.16 1.46.22 1 .13 2 .2 3.05.25l3.2.18c.55.04 1.1.1 1.65.2.55.08 1.1.18 1.65.3l1.24.26-.05 1.1c-.14 2.52.22 5.05.2 7.56.13 2.52-.04 5-.2 7.5s-.48 4.96-.7 7.44l-.84 7.42-.85 7.4-1 7.4c-.36 2.46-.7 4.92-1.1 7.37l-.58 3.68-.44 3.7c-.26 2.47-.64 4.92-.98 7.38-.37 2.47-.77 4.92-1 7.4l-.38 3.7-.5 3.68c-.33 2.46-.62 4.92-.92 7.38-.16 1.23-.28 2.46-.3 3.7l-.03 1.87-.1 1.85c-.08 1.23-.2 2.47-.25 3.7l-.12 3.68c-.15 2.62-.5 5.07-.9 7.56-.4 2.47-.77 4.94-1.3 7.4l-.12.6-.5.35-.78.55-.77.5c-.52.34-1.05.65-1.6.93-1.1.56-2.26 1.06-3.47 1.47-1.2.4-2.5.73-3.94.7-.36 0-.73-.03-1.1-.1-.4-.06-.77-.16-1.15-.3-.4-.15-.76-.36-1.1-.6-.34-.26-.63-.56-.9-.88l-.16-.2-.07-.3c-.75-2.76-1.32-5.55-1.76-8.36-.24-1.4-.36-2.82-.4-4.25-.05-.7-.07-1.42-.1-2.13l-.03-2.15c-.05-1.42-.03-2.86.05-4.3.04-.74.08-1.46.18-2.2l.07-.55v-.05l.07-.24.02-.05.05-.12.03-.13c0-.03.03-.08.08-.18.1-.16.2-.32.32-.48l.17-.22c.04-.06.08-.1.13-.14.17-.16.36-.35.53-.48.72-.55 1.42-.88 2.15-1.2.72-.3 1.46-.52 2.2-.73.76-.17 1.53-.32 2.36-.36.43 0 .86 0 1.36.08.48.07 1.1.24 1.77.8.6.6.63 1.6.03 2.22-.6.62-1.6.64-2.23.04.1.13.07.04-.14.02-.18-.04-.46-.03-.72-.03-.56.02-1.16.12-1.76.25-.6.16-1.2.33-1.76.56-.54.23-1.1.5-1.46.78-.1.07-.13.13-.2.2l-.06.03c.02 0 .03-.03.04-.04.03-.03.04-.07.03-.1v-.04l-.03.06-.04.12-.05.13-.02.06.07-.27v.05l-.08.5c-.1.63-.15 1.3-.2 1.95-.08 1.32-.08 2.67-.02 4.02.03.67.1 1.35.2 2.02.07.67.15 1.34.26 2.02.1.67.23 1.34.3 2.02.12.67.22 1.35.3 2.02.17 1.36.38 2.7.62 4.05.25 1.35.5 2.7.8 4l-.33-.65c.1.1.17.2.26.3.1.07.22.15.35.2.26.14.63.2 1.05.2.85.02 1.86-.23 2.86-.57 1-.36 2-.8 2.98-1.33l1.48-.8.73-.4.7-.44-.62.93c.65-2.36 1.23-4.77 1.56-7.2.38-2.4.64-4.9.73-7.2l.03-1.86c0-.64.02-1.28.05-1.92.08-1.27.2-2.5.3-3.76.02-.63.15-1.25.23-1.86l.42-1.84c.3-1.22.4-2.46.5-3.7.1-1.24.2-2.48.23-3.72l.2-3.73.3-3.72c.13-1.23.35-2.46.6-3.68.24-1.22.4-2.45.54-3.68l.4-3.7c.1-1.24.3-2.47.43-3.7.15-1.23.3-2.46.5-3.68.2-1.24.38-2.47.53-3.7.12-1.23.14-2.48.2-3.72.13-2.48.65-4.92 1.1-7.36.2-1.23.46-2.44.62-3.67.14-1.23.23-2.47.4-3.7.4-2.45.9-4.9 1.23-7.35.34-2.45.54-4.92.68-7.4.12-2.47.3-4.95.35-7.42.03-1.23.1-2.47.15-3.7.04-1.24.1-2.46.2-3.7.08-1.22.22-2.46.23-3.67.04-1.22.1-2.44-.02-3.66l1.04 1.2c-.5-.06-1-.1-1.5-.12l-1.53-.07-3.14-.1c-1.07-.05-2.16-.1-3.27-.2-.57-.07-1.13-.14-1.7-.24l-.87-.16-.77-.2c-.84-.2-1.36-1.04-1.16-1.88.2-.85 1.05-1.37 1.9-1.17h.05z"/></g><g opacity=".1"><g opacity=".5" fill="#FFF"><path d="M833.97 325.54c6.28-12.47 9.73-28.4 10.8-42.5.2-2.62.1-5.74-1.67-7-1.5-1.06-3.6-.17-4.88 1.45-6.27 7.88-8.15 23.06-11.63 32.76-7.57 21.05-14.05 42.62-18.96 64.66-1.6 7.28-3.05 15.25-.6 21.82.4 1.1.97 2.2 1.9 2.52.7.24 1.47 0 2.16-.33 4.12-2.03 6.48-7.73 7.05-13.08.56-5.35-.24-10.65-.3-16-.1-8.32 1.67-16.82 5.03-24.32 3.15-7.05 7.63-13.12 11.1-20z"/><path d="M809.57 400.86c-.4 0-.76-.06-1.1-.2-1.63-.55-2.4-2.2-2.84-3.4-2.6-6.98-1.08-15.36.55-22.66 4.63-20.82 11.02-42.63 19-64.85 1.1-3.08 2.05-6.74 3.05-10.62 2.16-8.36 4.4-17 8.8-22.57 1.97-2.47 4.88-3.2 6.94-1.74 2.48 1.76 2.5 5.6 2.3 8.32-1.2 15.92-5.2 31.62-10.96 43.07-1.54 3.08-3.3 6.02-5 8.87-2.13 3.54-4.33 7.2-6.06 11.07-3.3 7.35-4.98 15.54-4.9 23.7.03 1.84.14 3.73.25 5.56.2 3.45.42 7.02.04 10.6-.56 5.3-2.93 11.84-7.88 14.27-.8.4-1.52.6-2.2.6zm32.05-123.78c-.73 0-1.64.6-2.23 1.34-4.04 5.08-6.2 13.4-8.27 21.46-1.02 3.95-1.98 7.67-3.13 10.9-7.93 22.08-14.3 43.78-18.9 64.47-1.53 6.9-2.97 14.75-.66 20.97.5 1.38.93 1.6 1 1.62.07.02.33.07 1-.26 3.18-1.56 5.62-6.23 6.22-11.9.35-3.33.15-6.62-.06-10.1-.1-1.87-.22-3.8-.25-5.7-.1-8.6 1.7-17.22 5.16-24.96 1.8-4.03 4.06-7.78 6.23-11.4 1.67-2.8 3.4-5.68 4.9-8.66 5.6-11.1 9.47-26.4 10.64-41.94.3-3.86-.4-5.2-1.04-5.66-.18-.12-.4-.18-.6-.18z"/></g></g></g><g opacity=".7"><path fill="#F4F6F8" d="M567.6 459.3c4.37 121.4 8.72 206.82 13.08 328.24.48 13.54 1.1 27.6 7.42 39.57 13 24.7 44.5 31.82 72.2 34.9 58.5 6.5 117.7 6.77 176.26.84 15.82-1.6 33.8-5.04 41.88-18.74 4.3-7.26 5.04-16.04 5.27-24.46 1.53-54.66 1.3-103.6.3-180.9-1.02-76.55-11.47-185.9-11.47-185.9"/></g><g><path fill="#202E78" d="M569 465.23s.24 4.15.5 11.94c.1 3.9.3 8.7.5 14.34.16 5.65.3 12.14.66 19.4l.65 11.47c.17 4 .22 8.22.33 12.6.07 4.38.18 8.94.42 13.66l.8 14.68 1.77 32.22.48 8.6.35 8.85.52 18.3c.22 6.22.7 12.57 1.02 19.04l.53 9.8c.1 3.3.2 6.64.32 10 .5 13.43.7 27.32 1.34 41.6l.4 10.77c.08 1.8.14 3.62.2 5.44l.33 5.48.6 11.04c.1 1.85.2 3.7.27 5.57.03 1.86.1 3.72.1 5.6.02 3.75 0 7.52.1 11.3.1 3.8.53 7.6.7 11.42.33 7.64.38 15.4 1.05 23.05.67 7.66 2 15.35 5.1 22.4.36.9.8 1.74 1.22 2.6.44.8.94 1.74 1.43 2.56 1 1.6 2.06 3.22 3.28 4.73 2.4 3.03 5.18 5.8 8.27 8.2 3.08 2.4 6.42 4.5 9.93 6.34 3.52 1.8 7.2 3.34 10.96 4.7 7.53 2.7 15.35 4.84 23.36 6.3 2 .36 4 .7 6.03 1.03 2.02.27 4.05.5 6.08.73 4.1.34 8.2.7 12.3 1.03 4.1.3 8.17.76 12.27 1.17 4.1.36 8.2.78 12.33 1.1 4.12.3 8.24.68 12.38.92l6.2.4c2.06.14 4.14.15 6.2.24l6.22.2 6.22.14c4.15.1 8.3.1 12.44.1 8.3 0 16.6-.02 24.88-.17l12.42-.33c4.13-.18 8.27-.3 12.4-.53 8.25-.44 16.5-.86 24.68-1.5l6.15-.48c2.03-.2 4.07-.38 6.12-.57 4.08-.4 8.14-.85 12.15-1.5 4.02-.63 8-1.46 11.83-2.63 3.85-1.16 7.57-2.66 10.96-4.7 3.4-1.98 6.42-4.53 8.76-7.6 1.16-1.53 2.16-3.2 2.97-4.95.8-1.73 1.44-3.57 1.93-5.44 1.98-7.53 1.78-15.5 2-23.42.17-7.9.2-15.75.5-23.53l.3-11.63c.1-3.86.23-7.7.25-11.52l.07-5.73-.03-5.7-.08-11.3-.27-22.23-.18-10.9-.1-5.42v-5.37l.05-10.64v-5.27c-.02-1.75-.06-3.5-.1-5.22l-.37-20.47c-.14-6.7-.23-13.33-.1-19.8.03-6.48.17-12.85-.17-19.06-.1-3.1-.23-6.2-.35-9.23-.17-3.04-.2-6.06-.27-9.04l-.23-8.83c-.12-2.9-.35-5.78-.6-8.6-.26-2.84-.46-5.63-.62-8.4l-.37-8.16c-.2-5.37-.4-10.6-.7-15.64-.47-10.1-1.35-19.55-2.08-28.28-.6-8.74-1-16.78-1.6-24.02-.67-7.24-1.34-13.7-1.95-19.3-.53-5.63-.95-10.4-1.3-14.3C871.36 457.14 871 453 871 453c0-.9.47-1.67 1.35-1.76.88-.08 1.65.56 1.65 1.44 0 0 .44 4.15 1.13 11.92.33 3.88.8 8.66 1.23 14.3l1.34 19.37c.3 3.63.73 7.44 1.1 11.44.37 4 .87 8.2 1.15 12.56.58 8.75.94 18.23 1.8 28.33l1.32 15.62c.44 5.36.83 10.9.74 16.6-.07 5.68.28 11.5.75 17.46.22 2.98.38 6 .43 9.05.08 3.05.04 6.14.06 9.26.06 6.24.22 12.6.6 19.07.3 6.5.35 13.1.34 19.82v20.48l-.02 5.22.1 5.27.2 10.63.1 5.38c0 1.8 0 3.6-.02 5.4 0 3.63-.03 7.27-.05 10.94l-.16 22.24-.1 11.3-.07 5.7v5.74c.02 7.66.23 15.4.22 23.18 0 7.8-.22 15.66-.4 23.57-.13 3.96-.16 7.9-.4 11.97-.25 4.05-.8 8.16-1.94 12.2-.58 2.02-1.3 4-2.25 5.94-.92 1.9-2.04 3.72-3.38 5.4-2.65 3.37-6.04 6.1-9.72 8.16-3.7 2.04-7.66 3.47-11.67 4.53-4.02 1.07-8.1 1.76-12.2 2.26-2.04.26-4.08.5-6.13.7-2.04.2-4.1.32-6.13.56-2.05.2-4.1.42-6.14.63l-6.15.54c-8.2.8-16.44 1.5-24.7 1.98-4.15.27-8.3.44-12.44.67-4.14.18-8.3.3-12.45.42-8.32.16-16.64.33-24.96.12-4.15-.1-8.3-.24-12.47-.44l-12.45-.54c-8.3-.37-16.6-.62-24.88-.9-8.28-.32-16.56-.75-24.77-1.7-2.04-.23-4.07-.6-6.1-.9l-6.12-.96c-4.08-.6-8.16-1.17-12.23-1.75-4.07-.57-8.14-1.2-12.2-2.02-4.02-.85-8.03-1.9-11.92-3.3-7.8-2.72-15.26-6.57-21.75-11.73-3.25-2.57-6.18-5.54-8.73-8.8-1.3-1.6-2.45-3.3-3.56-5.1-.53-.9-.96-1.68-1.5-2.65-.43-.93-.92-1.83-1.32-2.78-3.33-7.52-4.74-15.57-5.4-23.4-.35-3.93-.52-7.84-.66-11.7l-.35-11.54c-.08-3.82.12-7.64-.05-11.42-.14-3.78-.4-7.54-.66-11.28-.14-1.87-.2-3.74-.3-5.6l-.13-5.58-.23-11.05-.1-5.5-.18-5.43-.38-10.78-.37-10.64-.45-10.47-.9-20.48c-.67-13.42-1-26.4-1.66-38.85l-1.1-18.26-.5-8.82-.3-8.63-1.13-32.24c-.16-5.05-.33-9.95-.5-14.68-.18-4.72-.5-9.28-.72-13.65-.25-4.38-.54-8.57-.7-12.6l-.32-11.46c-.24-7.26-.6-13.74-.88-19.4-.3-5.63-.47-10.43-.65-14.32l-.52-11.93c-.02-.88.56-1.63 1.44-1.67.88-.04 1.56.65 1.56 1.53v.03z"/></g><g><path fill="#202E78" d="M552.76 458s5.22-.35 14.34-.55c2.3-.05 4.8-.25 7.56-.22 1.38 0 2.8-.04 4.3-.1 1.48-.03 3.02-.18 4.6-.26 3.18-.18 6.56-.4 10.12-.6 3.57-.15 7.3-.3 11.23-.36 7.83-.1 16.3-.24 25.27-.37 4.48-.1 9.1-.17 13.8-.26l14.4-.15c4.9-.04 9.87-.14 14.9-.1l7.6-.04 7.66-.2c10.27-.28 20.7-.13 31.14-.6 5.2-.18 10.43-.2 15.62-.3 5.2-.15 10.37-.12 15.5-.52 5.12-.38 10.22-.45 15.25-.64l14.88-.48c9.78-.26 19.23-.85 28.2-.8l6.63-.06c2.18 0 4.32-.04 6.43-.12l12.2-.36c7.8-.33 15-.2 21.34-.28 6.36-.16 11.9-.37 16.46-.54l14.34-.54c.87-.03 1.6.8 1.63 1.67.03.88-.65 1.8-1.5 1.8h-.06s-5.2 0-14.33.26c-4.56.13-10.1.2-16.46.4-6.34.27-13.5.72-21.33.73-3.9.03-8 .05-12.2.1-4.23 0-8.58.13-13.07.2-8.96.27-18.43-.15-28.2.43l-14.9.55-7.57.28c-2.55.1-5.1.15-7.68 0-2.57-.12-5.15-.12-7.73.02l-3.88.16-3.9.22c-5.18.3-10.4.66-15.6.75-2.6 0-5.22 0-7.83-.02-2.6 0-5.2.12-7.8.2-5.2.2-10.36.3-15.5.36-2.57 0-5.13.05-7.67.08-2.54.08-5.07.27-7.6.42-5 .32-10 .14-14.88.1-4.9-.18-9.7.17-14.4.1l-7-.08c-2.3-.04-4.57-.05-6.8-.02-4.5.08-8.86.23-13.07.38l-12.2.52c-3.9.17-7.66.3-11.22.4l-10.13.08c-1.6.02-3.13 0-4.6.06-1.5.07-2.93.15-4.3.2-2.75.2-5.27.25-7.56.33-9.12.3-14.33.5-14.33.5-.87.02-1.6-.43-1.63-1.3-.02-.87.66-1.4 1.53-1.4h.03z"/></g><g><path fill="#202E78" d="M552.76 474s5.22-.35 14.34-.55c2.3-.05 4.8-.25 7.56-.22 1.38 0 2.8-.04 4.3-.1 1.48-.03 3.02-.18 4.6-.26 3.18-.18 6.56-.4 10.12-.6 3.57-.15 7.3-.3 11.23-.36 7.83-.1 16.3-.24 25.27-.37 4.48-.1 9.1-.17 13.8-.26l14.4-.15c4.9-.04 9.87-.14 14.9-.1l7.6-.04 7.66-.2c10.27-.28 20.7-.13 31.14-.6 5.2-.18 10.43-.2 15.62-.3 5.2-.15 10.37-.12 15.5-.52 5.12-.38 10.22-.45 15.25-.64l14.88-.48c9.78-.26 19.23-.85 28.2-.8l6.63-.06c2.18 0 4.32-.04 6.43-.12l12.2-.36c7.8-.33 15-.2 21.34-.28 6.36-.16 11.9-.37 16.46-.54l14.34-.54c.87-.03 1.6.8 1.63 1.67.03.88-.65 1.8-1.5 1.8h-.06s-5.2 0-14.33.26c-4.56.13-10.1.2-16.46.4-6.34.27-13.5.72-21.33.73-3.9.03-8 .05-12.2.1-4.23 0-8.58.13-13.07.2-8.96.27-18.43-.15-28.2.43l-14.9.55-7.57.28c-2.55.1-5.1.15-7.68 0-2.57-.12-5.15-.12-7.73.02l-3.88.16-3.9.22c-5.18.3-10.4.66-15.6.75-2.6 0-5.22 0-7.83-.02-2.6 0-5.2.12-7.8.2-5.2.2-10.36.3-15.5.36-2.57 0-5.13.05-7.67.08-2.54.08-5.07.27-7.6.42-5 .32-10 .14-14.88.1-4.9-.18-9.7.17-14.4.1l-7-.08c-2.3-.04-4.57-.05-6.8-.02-4.5.08-8.86.23-13.07.38l-12.2.52c-3.9.17-7.66.3-11.22.4l-10.13.08c-1.6.02-3.13 0-4.6.06-1.5.07-2.93.15-4.3.2-2.75.2-5.27.25-7.56.33-9.12.3-14.33.5-14.33.5-.87.02-1.6-.43-1.63-1.3-.02-.87.66-1.4 1.53-1.4h.03z"/></g><g><path fill="#202E78" d="M552.76 490s5.22-.35 14.34-.55c2.3-.05 4.8-.25 7.56-.22 1.38 0 2.8-.04 4.3-.1 1.48-.03 3.02-.18 4.6-.26 3.18-.18 6.56-.4 10.12-.6 3.57-.15 7.3-.3 11.23-.36 7.83-.1 16.3-.24 25.27-.37 4.48-.1 9.1-.17 13.8-.26l14.4-.15c4.9-.04 9.87-.14 14.9-.1l7.6-.04 7.66-.2c10.27-.28 20.7-.13 31.14-.6 5.2-.18 10.43-.2 15.62-.3 5.2-.15 10.37-.12 15.5-.52 5.12-.38 10.22-.45 15.25-.64l14.88-.48c9.78-.26 19.23-.85 28.2-.8l6.63-.06c2.18 0 4.32-.04 6.43-.12l12.2-.36c7.8-.33 15-.2 21.34-.28 6.36-.16 11.9-.37 16.46-.54l14.34-.54c.87-.03 1.6.8 1.63 1.67.03.88-.65 1.8-1.5 1.8h-.06s-5.2 0-14.33.26c-4.56.13-10.1.2-16.46.4-6.34.27-13.5.72-21.33.73-3.9.03-8 .05-12.2.1-4.23 0-8.58.13-13.07.2-8.96.27-18.43-.15-28.2.43l-14.9.55-7.57.28c-2.55.1-5.1.15-7.68 0-2.57-.12-5.15-.12-7.73.02l-3.88.16-3.9.22c-5.18.3-10.4.66-15.6.75-2.6 0-5.22 0-7.83-.02-2.6 0-5.2.12-7.8.2-5.2.2-10.36.3-15.5.36-2.57 0-5.13.05-7.67.08-2.54.08-5.07.27-7.6.42-5 .32-10 .14-14.88.1-4.9-.18-9.7.17-14.4.1l-7-.08c-2.3-.04-4.57-.05-6.8-.02-4.5.08-8.86.23-13.07.38l-12.2.52c-3.9.17-7.66.3-11.22.4l-10.13.08c-1.6.02-3.13 0-4.6.06-1.5.07-2.93.15-4.3.2-2.75.2-5.27.25-7.56.33-9.12.3-14.33.5-14.33.5-.87.02-1.6-.43-1.63-1.3-.02-.87.66-1.4 1.53-1.4h.03z"/></g><g><path fill="#202E78" d="M552.76 506s5.22-.35 14.34-.55c2.3-.05 4.8-.25 7.56-.22 1.38 0 2.8-.04 4.3-.1 1.48-.03 3.02-.18 4.6-.26 3.18-.18 6.56-.4 10.12-.6 3.57-.15 7.3-.3 11.23-.36 7.83-.1 16.3-.24 25.27-.37 4.48-.1 9.1-.17 13.8-.26l14.4-.15c4.9-.04 9.87-.14 14.9-.1l7.6-.04 7.66-.2c10.27-.28 20.7-.13 31.14-.6 5.2-.18 10.43-.2 15.62-.3 5.2-.15 10.37-.12 15.5-.52 5.12-.38 10.22-.45 15.25-.64l14.88-.48c9.78-.26 19.23-.85 28.2-.8l6.63-.06c2.18 0 4.32-.04 6.43-.12l12.2-.36c7.8-.33 15-.2 21.34-.28 6.36-.16 11.9-.37 16.46-.54l14.34-.54c.87-.03 1.6.8 1.63 1.67.03.88-.65 1.8-1.5 1.8h-.06s-5.2 0-14.33.26c-4.56.13-10.1.2-16.46.4-6.34.27-13.5.72-21.33.73-3.9.03-8 .05-12.2.1-4.23 0-8.58.13-13.07.2-8.96.27-18.43-.15-28.2.43l-14.9.55-7.57.28c-2.55.1-5.1.15-7.68 0-2.57-.12-5.15-.12-7.73.02l-3.88.16-3.9.22c-5.18.3-10.4.66-15.6.75-2.6 0-5.22 0-7.83-.02-2.6 0-5.2.12-7.8.2-5.2.2-10.36.3-15.5.36-2.57 0-5.13.05-7.67.08-2.54.08-5.07.27-7.6.42-5 .32-10 .14-14.88.1-4.9-.18-9.7.17-14.4.1l-7-.08c-2.3-.04-4.57-.05-6.8-.02-4.5.08-8.86.23-13.07.38l-12.2.52c-3.9.17-7.66.3-11.22.4l-10.13.08c-1.6.02-3.13 0-4.6.06-1.5.07-2.93.15-4.3.2-2.75.2-5.27.25-7.56.33-9.12.3-14.33.5-14.33.5-.87.02-1.6-.43-1.63-1.3-.02-.87.66-1.4 1.53-1.4h.03z"/></g><g><path fill="#E6EAEF" d="M716.66 690.02c-13.54 0-27.3-4.13-38.5-11.82-2.08-1.42-4.02-2.93-5.83-4.54-4.08 1.1-8.3 1.9-12.58 2.37-18.58 2.04-36.84-2.16-51.4-11.85l6.63-10c13.96 9.28 31.7 12.16 48.3 9.17-3.7-5.56-6.2-11.7-7.3-18.14-3.55-20.53 6.58-40.14 14.5-53.1 7.97-13.02 20.86-31.12 40.8-38 2.93-1 6.8-2 10.87-.63 5.97 2 9.36 7.7 10.07 16.88 1.5 19.72.3 56.7-24.87 82.93-6.14 6.4-13.5 11.63-21.7 15.5 11.85 7.84 27.58 11 41.26 8.23 14.16-2.84 26.57-10.23 37.06-19.3-3.42-7.36-4.34-16-2.66-25.3 1.67-9.23 5.97-19.1 12.1-27.8 3.1-4.4 7.55-9.63 14.33-10.74 4.43-.72 8.9.58 12.63 3.65 4.42 3.66 7.27 9.5 7.44 15.2.24 8.56-4 16-8.6 22.76-6.2 9.06-12.73 17.07-19.55 23.98 6.53 6.3 17.1 9.25 27.4 7.3 13.54-2.57 24.34-12.1 31-19.65l9 7.94c-11.35 12.83-24.4 20.96-37.77 23.5-14.5 2.75-29.15-1.6-38.45-10.93-13.12 11.1-27.13 18.27-41.55 21.18-4.13.83-8.37 1.24-12.62 1.24zm1.3-125.22c-.42 0-1.23.1-2.77.64-12.4 4.28-23.37 14.74-34.5 32.92-10.98 17.97-15.1 32.2-12.9 44.8 1.18 6.9 4.24 12.44 7.85 16.78 8.68-3.27 16.64-8.3 23.05-14.97 16-16.7 23.87-43.55 21.56-73.7-.37-4.84-1.56-6.3-1.94-6.43-.06-.02-.17-.04-.36-.04zm72.17 40.87c-.16 0-.3 0-.47.04-2.4.4-4.85 3.5-6.47 5.82-7.12 10.1-13.07 24.84-9.82 37.12 6.22-6.6 11.54-13.55 15.9-19.94 3.24-4.75 6.68-10.27 6.53-15.65-.06-2.3-1.3-4.82-3.08-6.3-.88-.7-1.75-1.08-2.6-1.08z"/></g><g><path fill="#E6EAEF" d="M633.02 846.05l9-3.23c1.44-.5 3-1.1 4.76-1.67l5.73-1.75 6.54-2c2.3-.64 4.75-1.2 7.3-1.83 2.56-.6 5.2-1.33 7.98-1.88l8.62-1.56c1.48-.26 2.98-.57 4.5-.8l4.65-.6c1.55-.24 3.14-.37 4.75-.5 1.6-.12 3.2-.44 4.83-.58 6.53-.57 13.26-1.42 20.14-1.52 3.44-.08 6.9-.27 10.38-.14l5.22.1h5.23c6.97.26 13.96.22 20.8.87 6.87.35 13.57 1.3 20.1 2 3.23.45 6.4 1.02 9.52 1.5l4.62.75c1.5.27 3 .62 4.46.92l4.35.9 4.22.98c2.75.65 5.34 1.53 7.86 2.25l7.2 2.15c2.27.77 4.44 1.44 6.47 2.08l5.7 1.8c1.74.57 3.3 1.2 4.75 1.72l6.68 2.43 2.37.85c.83.3 1.26 1.2.96 2.04-.3.83-1.2 1.26-2.03.97h-.02l-.1-.04-8.93-3.3c-1.43-.5-2.98-1.13-4.72-1.7l-5.63-1.77-6.4-2.05c-2.25-.7-4.67-1.27-7.15-2.02-2.5-.73-5.06-1.6-7.77-2.28l-4.15-1-4.3-.96c-1.44-.32-2.9-.68-4.4-.97-1.5-.26-3.03-.52-4.57-.8-3.08-.5-6.2-1.12-9.42-1.6-6.43-.8-13.06-1.78-19.87-2.2-6.78-.68-13.7-.8-20.6-1-3.47.08-6.93.18-10.37.27-3.45.04-6.86.4-10.26.54-6.8.28-13.48.68-19.97 1.08-1.62.1-3.22.3-4.8.6-1.56.3-3.1.6-4.67.74-1.55.2-3.08.37-4.6.55-1.5.22-3 .5-4.47.73-2.95.47-5.8 1-8.56 1.5-2.74.55-5.33 1.37-7.83 2.1-2.48.73-4.9 1.3-7.2 1.92l-6.4 1.94-5.64 1.7c-1.74.54-3.32 1.15-4.76 1.64l-9.04 3.14c-.83.28-1.74-.16-2.03-1-.3-.82.15-1.73.97-2.02h.02z"/></g><g opacity=".8" fill="#FFF"><path d="M757.18 784.36c-2.7-6.38-8.3-11.24-14.5-14.58-15.24-8.2-33.58-8.07-50.46-12.24-16.87-4.17-34.62-16.13-34.4-33.1.1-7.4 3.7-14.58 2.95-21.96C659.7 692 650.43 684.5 644 676.05c-17.26-22.62-14.7-53.58-12.97-81.7 1.15-18.48 1.48-38.85-5.9-56.28-6.48-15.3-25.82-34.74-31.02-12.48-7.32 31.4 2.48 66.84 5.44 97.03 4.22 43 4.86 86.54 7.27 129.67.84 14.87 1.72 30 6.92 44 9.36 25.26 33.32 44.82 60.48 49.4 27.15 4.55 56.45-6.05 73.96-26.8 8.15-9.63 13.9-23 9.02-34.54z"/><path d="M687.03 848.25c-4.37 0-8.74-.35-13.08-1.08-27.84-4.68-52.03-24.44-61.64-50.33-5.3-14.35-6.16-29.65-7-44.46-.8-14.32-1.4-28.92-2-43.05-1.2-28.45-2.44-57.87-5.25-86.55-.8-8.04-2.05-16.33-3.38-25.1-3.67-24.17-7.46-49.16-2.02-72.43 2.05-8.76 6.2-10.92 9.34-11.2 5.18-.44 10.45 3.83 13.96 7.5 4.25 4.43 8.2 10.4 10.54 15.93 7.33 17.3 7.23 37.6 6.03 56.96l-.17 2.66c-1.74 27.8-3.54 56.57 12.82 78.04 1.6 2.1 3.42 4.2 5.18 6.2 5.43 6.24 11.04 12.7 11.9 21 .44 4.3-.52 8.52-1.45 12.6-.74 3.27-1.44 6.37-1.48 9.52-.2 16.03 17.1 27.63 33.26 31.62 5.67 1.4 11.62 2.33 17.4 3.23 11.36 1.78 23.1 3.6 33.4 9.16 5.14 2.76 11.94 7.67 15.18 15.3 4.43 10.5.98 24-9.26 36.12-15.15 17.94-38.6 28.37-62.27 28.37zm-84.3-331.22c-.17 0-.33 0-.5.02-3.1.26-5.35 3.25-6.66 8.88-5.3 22.7-1.56 47.4 2.06 71.3 1.34 8.8 2.6 17.13 3.4 25.25 2.82 28.77 4.07 58.23 5.27 86.73.6 14.12 1.2 28.72 2 43 .82 14.6 1.66 29.68 6.82 43.6 9.24 24.9 32.53 43.9 59.33 48.4 26.8 4.5 55.3-5.8 72.57-26.25 9.48-11.24 12.77-23.58 8.78-33-2.9-6.85-9.12-11.3-13.84-13.85-9.83-5.3-21.33-7.1-32.45-8.82-5.82-.9-11.84-1.85-17.63-3.28-9.27-2.3-17.87-6.58-24.23-12.07-7.5-6.5-11.42-14.27-11.32-22.5.05-3.47.82-6.87 1.57-10.16.9-4 1.77-7.8 1.38-11.63-.76-7.35-5.82-13.16-11.18-19.32-1.8-2.06-3.65-4.18-5.3-6.36-17.04-22.35-15.12-53-13.43-80.05l.17-2.65c1.18-18.98 1.3-38.86-5.8-55.6-4.32-10.2-14.3-21.62-21-21.62z"/></g><g opacity=".8" fill="#FFF"><path d="M706.87 711.26c-3.63-.8-8.14-1.03-13.64-.5-3.2.3-6.6.7-9.14 2.7-5.76 4.54-3.1 14.25 2.35 19.14 25 22.37 47.85-15.34 20.42-21.34z"/><path d="M702.36 741.12c-4.64 0-10.5-1.66-16.9-7.4-3.8-3.4-6.23-8.8-6.1-13.5.1-3.3 1.42-6.06 3.8-7.95 2.95-2.34 6.82-2.7 9.93-3 5.37-.53 10.1-.35 14.1.52 7.74 1.7 12.67 6.16 13.5 12.25.9 6.5-3 13.43-9.5 16.9-1.74.92-4.84 2.17-8.85 2.17zm-3.53-29.15c-1.73 0-3.55.1-5.46.28-2.7.26-6.1.58-8.35 2.38-2.1 1.66-2.6 4-2.65 5.68-.12 3.87 1.92 8.35 5.08 11.18 7.44 6.66 15.6 8.4 22.34 4.8 5.3-2.82 8.66-8.64 7.94-13.82-.67-4.85-4.64-8.3-11.2-9.74-2.28-.5-4.86-.75-7.7-.75z"/></g></g></svg>